$MeshFormat
2.2 0 8
$EndMeshFormat
$Nodes
645
1 400 0 0
2 400 -400 0
3 0 -400 0
4 0 0 0
5 0 -40 0
6 0 -18 0
7 0 -16 0
8 0 -15 0
9 0.5034139807737499 0 0
10 1.146986440187978 0 0
11 1.969739565026546 0 0
12 3.021560324183999 0 0
13 4.366224748854424 0 0
14 6.085264860131248 0 0
15 8.282913350913489 0 0
16 11.09242210407622 0 0
17 14.68414231480294 0 0
18 19.27585483646497 0 0
19 25.14597271348259 0 0
20 32.65042529096703 0 0
21 42.24423720384263 0 0
22 54.50911702818316 0 0
23 70.1887340849887 0 0
24 90.23380619636238 0 0
25 115.8597465384937 0 0
26 148.6203543794843 0 0
27 190.502038097307 0 0
28 244.0442399209764 0 0
29 312.493449611558 0 0
30 400 -99.99999999955274 0
31 400 -199.9999999992947 0
32 400 -299.9999999994531 0
33 300.0000000007105 -400 0
34 200.0000000010325 -400 0
35 100.0000000007105 -400 0
36 0 -40.50480442981596 0
37 0 -41.16620169117161 0
38 0 -42.0327680100662 0
39 0 -43.16814800947172 0
40 0 -44.65572863201171 0
41 0 -46.60476501142826 0
42 0 -49.15840297531619 0
43 0 -52.50419297233965 0
44 0 -56.88786523392612 0
45 0 -62.63137544143713 0
46 0 -70.15655401244781 0
47 0 -80.01608378068833 0
48 0 -92.9340913699783 0
49 0 -109.8593375173953 0
50 0 -132.0348814349311 0
51 0 -161.0893994035741 0
52 0 -199.1567855592318 0
53 0 -249.0328790942712 0
54 0 -314.3808041088623 0
55 0 -18.44897959183674 0
56 0 -18.89795918367347 0
57 0 -19.3469387755102 0
58 0 -19.79591836734694 0
59 0 -20.24489795918367 0
60 0 -20.6938775510204 0
61 0 -21.14285714285714 0
62 0 -21.59183673469387 0
63 0 -22.04081632653061 0
64 0 -22.48979591836734 0
65 0 -22.93877551020407 0
66 0 -23.38775510204081 0
67 0 -23.83673469387755 0
68 0 -24.28571428571428 0
69 0 -24.73469387755101 0
70 0 -25.18367346938775 0
71 0 -25.63265306122448 0
72 0 -26.08163265306121 0
73 0 -26.53061224489795 0
74 0 -26.97959183673468 0
75 0 -27.42857142857141 0
76 0 -27.87755102040815 0
77 0 -28.32653061224488 0
78 0 -28.77551020408161 0
79 0 -29.22448979591834 0
80 0 -29.67346938775508 0
81 0 -30.12244897959181 0
82 0 -30.57142857142854 0
83 0 -31.02040816326527 0
84 0 -31.46938775510201 0
85 0 -31.91836734693874 0
86 0 -32.36734693877547 0
87 0 -32.81632653061221 0
88 0 -33.26530612244895 0
89 0 -33.71428571428568 0
90 0 -34.16326530612242 0
91 0 -34.61224489795916 0
92 0 -35.06122448979589 0
93 0 -35.51020408163263 0
94 0 -35.95918367346937 0
95 0 -36.4081632653061 0
96 0 -36.85714285714284 0
97 0 -37.30612244897958 0
98 0 -37.75510204081631 0
99 0 -38.20408163265305 0
100 0 -38.65306122448979 0
101 0 -39.10204081632653 0
102 0 -39.55102040816326 0
103 0 -16.4 0
104 0 -16.8 0
105 0 -17.2 0
106 0 -17.6 0
107 0 -15.33333333333333 0
108 0 -15.66666666666667 0
109 0 -0.441176470588135 0
110 0 -0.8823529411760309 0
111 0 -1.323529411764381 0
112 0 -1.764705882352866 0
113 0 -2.205882352940866 0
114 0 -2.6470588235287 0
115 0 -3.088235294116535 0
116 0 -3.529411764704369 0
117 0 -3.970588235292202 0
118 0 -4.411764705878944 0
119 0 -4.852941176465471 0
120 0 -5.294117647051999 0
121 0 -5.735294117638524 0
122 0 -6.176470588225052 0
123 0 -6.617647058811579 0
124 0 -7.058823529398105 0
125 0 -7.499999999984807 0
126 0 -7.941176470573773 0
127 0 -8.382352941162912 0
128 0 -8.823529411752052 0
129 0 -9.264705882341191 0
130 0 -9.705882352930331 0
131 0 -10.14705882351947 0
132 0 -10.58823529410861 0
133 0 -11.02941176469775 0
134 0 -11.47058823528689 0
135 0 -11.91176470587603 0
136 0 -12.35294117646517 0
137 0 -12.79411764705431 0
138 0 -13.23529411764344 0
139 0 -13.67647058823258 0
140 0 -14.11764705882172 0
141 0 -14.55882352941086 0
142 0.4529161683737577 -37.04421768707483 0
143 0.4029178721443807 -32.1428571428571 0
144 0.3264259380924059 -27.69795918367345 0
145 0.3964610370523594 -23.61224489795917 0
146 0.3888277323113783 -20.0204081632653 0
147 0.3464101615137742 -16.6 0
148 0.3820700310821524 -13.89705882352715 0
149 0.3820700310821524 -11.24999999999232 0
150 0.3361061811880024 -9.047642393529179 0
151 0.4483104749946117 -6.847808881719734 0
152 0.3888277323113783 -29.89795918367344 0
153 0.4192290102439043 -34.39846053326252 0
154 1.205148830988925 -45.45143579824776 0
155 0.3997227649166392 -40.13470319214559 0
156 0.3820700310798902 -5.073529411758734 0
157 0.4025207187539924 -21.81632653061222 0
158 0.3961399082465917 -25.38160681336185 0
159 0.3676189469125763 -18.22448979591837 0
160 4.385198643499415 -59.75962033768162 0
161 9.862962993635239 -86.47508757533332 0
162 29.28069389628378 -5.727771554910968 0
163 0.259946714432383 -15.18921568627444 0
164 12.9327917005909 -2.710099542944006 0
165 132.240050458989 -25.28211698293386 0
166 0.4007668351859003 -12.57352941175973 0
167 0.4081313839369378 -3.740664685182486 0
168 0.3120469303268927 -2.451569100831647 0
169 0.5185592473889704 -38.42778788230295 0
170 0.3888277323113814 -35.734693877551 0
171 63.36274980984992 -12.29580644577521 0
172 32.92531260688349 -178.927954392288 0
173 7.11806278272344 -1.559660030256399 0
174 3.474577419984175 -1.034989081601071 0
175 16.93113875214565 -120.9471094761632 0
176 216.905338468028 -47.85974212849995 0
177 2.554527240972746 -50.83129797382792 0
178 0.9877954569780283 -41.66509362046915 0
179 0.3772571287951239 -1.543897680468181 0
180 0.3813617213083557 -5.955882352931788 0
181 0.3820700310810225 -7.720588235279292 0
182 0.3820700310821517 -10.36764705881404 0
183 0.3888277323113783 -19.12244897959184 0
184 0.3585923582471857 -17.4 0
185 0.2612768744110158 -15.85922562791857 0
186 0.4357918291743847 -39.4734494671572 0
187 1.118722926108801 -39.94828086660938 0
188 1.435800832716474 -0.532518435150204 0
189 153.3469903385646 -321.6142130544805 0
190 312.5414410442796 -158.4135789755484 0
191 0.3878396865398231 -0.6689804247698179 0
192 44.00251289766977 -266.6027543730825 0
193 22.7641973149172 -6.385145629892631 0
194 25.90158198550188 -11.21162803863847 0
195 19.54221588191844 -11.60140987111429 0
196 22.8695693911156 -16.28732199024208 0
197 17.12091846649074 -16.40385199294948 0
198 19.98505164166431 -21.19416789573624 0
199 26.4133954558942 -21.34341684361109 0
200 22.92510830837246 -26.43003744835639 0
201 30.09055249220527 -27.26702672803768 0
202 24.84160960456936 -34.1433280596433 0
203 35.91460459901487 -34.88756150875751 0
204 30.53101626242104 -43.66375753909907 0
205 43.57762285558579 -44.59186234219091 0
206 14.76082808741956 -20.78935031511995 0
207 12.38683844084885 -17.39878007202945 0
208 10.49097527170645 -21.074844968516 0
209 12.52704762766038 -24.52866127595964 0
210 8.543028566730902 -17.58220682406447 0
211 10.09891981024428 -14.77442274901855 0
212 7.343058250639558 -14.9201457371735 0
213 8.336645946831695 -12.75167869541061 0
214 7.052364120721893 -20.37751127452287 0
215 6.187080506887135 -13.07205020620783 0
216 6.852219555791978 -11.08469021950142 0
217 5.258726947238099 -14.95548805791216 0
218 5.009899608313849 -11.6569374361687 0
219 5.56009349675901 -9.630509834576843 0
220 7.486318418331715 -9.041640490761321 0
221 32.58977080413445 -12.1112240960194 0
222 6.090628015505708 -7.831426613474395 0
223 4.545795884017242 -8.162376664087187 0
224 4.856895127374993 -6.70826481326894 0
225 34.60361475704247 -56.566219929327 0
226 52.67237943977779 -56.78720948838486 0
227 43.02841902012638 -72.06124330015918 0
228 63.51121337861778 -75.44465144646176 0
229 74.51418812707975 -49.69801607714443 0
230 87.3422466774873 -73.19147650742198 0
231 74.86598600399957 -100.5103886184813 0
232 106.2911127730422 -99.24348715282437 0
233 3.303492801968425 -7.035601170832535 0
234 3.750037857163316 -5.776693341002291 0
235 3.066257780658095 -8.445847012670914 0
236 6.567107001351663 -6.112923090623307 0
237 11.09828242812704 -12.10571696356719 0
238 18.85576021967141 -41.76825179695844 0
239 41.89533825070021 -23.88622057341523 0
240 2.60227156112198 -5.964533505308482 0
241 2.901762777463124 -4.905157273826115 0
242 4.03087651294549 -4.557707880525769 0
243 3.102826938826468 -3.839053933024255 0
244 89.6917237921176 -130.6011450606847 0
245 127.9713888487849 -129.8920796269321 0
246 108.0676356899278 -170.0831831303348 0
247 157.1587010590593 -169.9937674469383 0
248 4.172391019394574 -3.414240383476566 0
249 2.024412825570757 -4.265178617652196 0
250 2.251480712567934 -3.244366485441074 0
251 147.1653328974739 -92.54675702346319 0
252 5.893412853509615 -18.3116004789096 0
253 4.917429204031415 -19.81899989915736 0
254 5.914306309355405 -22.18160204957552 0
255 3.90120153182732 -18.62344712348672 0
256 4.077148060746127 -21.94877210754709 0
257 4.804445259284144 -23.44810475736638 0
258 3.107067363768857 -23.27493446394059 0
259 3.852050234994631 -24.63094357680002 0
260 5.424273786492686 -24.9284602083357 0
261 4.138891438558489 -26.20644226714352 0
262 5.999390206534139 -26.53794799666946 0
263 4.772757984257078 -27.79410116529917 0
264 6.670290199419917 -28.23864051896069 0
265 3.225154543290713 -27.55888381092219 0
266 3.642545404704494 -28.92681859801516 0
267 2.510270751949319 -24.54119924682668 0
268 2.334382800112603 -28.6533211455905 0
269 2.753895730933102 -29.85488565440733 0
270 3.91703108553592 -30.23525560567005 0
271 2.887513875868396 -31.12430607504439 0
272 4.280044628025607 -31.61088762039006 0
273 3.325623889854659 -32.49996504817037 0
274 4.688638931325428 -33.13002112197378 0
275 3.312622676798941 -34.04085585289088 0
276 5.087339443546312 -34.860841467208 0
277 0.341153710917502 -28.55215071227012 0
278 2.590525722051356 -22.02442479633099 0
279 6.0242241277279 -31.93041242335133 0
280 1.969483983828146 -22.85399252398141 0
281 0.3884062653526772 -22.71428571428571 0
282 1.933091481347651 -27.42773720796754 0
283 0.333670717732698 -26.73755938218032 0
284 2.685577979249598 -26.44878253029841 0
285 1.70338371789692 -30.5715072108573 0
286 0.4011939468403939 -31.184135210993 0
287 1.947225034506953 -33.87154197998536 0
288 0.4062595487201939 -33.04081632653058 0
289 2.182677311912582 -35.02986872479345 0
290 1.518716658194969 -32.36311732995849 0
291 7.240399643583309 -25.09566789741595 0
292 3.460308037841913 -19.97815057049138 0
293 2.589192646394826 -18.4014766338639 0
294 3.15346901893967 -17.41069754079028 0
295 1.960410719026699 -17.49947959135038 0
296 2.432025733438093 -16.5614700032464 0
297 2.042795424206745 -19.67085953401016 0
298 1.543001797430492 -18.45285979122186 0
299 1.462527035004942 -16.63608028741166 0
300 1.822247032429977 -15.83312046887022 0
301 2.791086245714418 -15.62312213535088 0
302 2.211931829702765 -14.98165673856606 0
303 3.120014119417101 -14.66453815140886 0
304 2.323359420732519 -13.95776606998997 0
305 3.455361471450433 -13.61544816571358 0
306 2.710329953527391 -12.78628311279385 0
307 1.685735144681753 -13.09650158478532 0
308 1.921797385487957 -12.13305034728131 0
309 1.547732050590396 -26.4192398320536 0
310 1.477214794535438 -13.87734935504551 0
311 2.920918269262827 -11.80631130465514 0
312 2.175853936063538 -11.10669525084954 0
313 3.140489206580626 -10.7889556208631 0
314 2.387206287811458 -10.13657473176851 0
315 2.224145387736088 -7.564982492077426 0
316 1.921832993806888 -8.44346958346917 0
317 1.491173236076172 -21.94345149284745 0
318 0.4658351197095197 -20.92821529113319 0
319 1.160332575415275 -15.00540173081279 0
320 1.380348663021431 -3.540912766509984 0
321 1.472585097058212 -2.663389458268474 0
322 2.337814426092519 -2.329190954003094 0
323 1.2164998978933 -4.33604467480345 0
324 1.641058272261638 -1.903342437334595 0
325 1.553593961299289 -10.43673901643893 0
326 5.243490838600217 -3.936788263011244 0
327 1.320637436884586 -11.43635947912256 0
328 1.934004891480112 -5.262245484527902 0
329 1.491592826061607 -6.096281904901907 0
330 16.97427533604749 -6.584901293587424 0
331 1.970473480762513 -21.1541974335255 0
332 130.7613852122266 -215.7781474981592 0
333 189.7866715175094 -215.0230002999542 0
334 1.417992831710478 -7.775141461005393 0
335 3.258847771545327 -9.735627691998571 0
336 4.506307468243259 -16.78460495264213 0
337 1.489499120502526 -28.21429357881764 0
338 1.425970836695134 -29.10414368982379 0
339 1.054142594541347 -8.452985612406996 0
340 1.48101710242908 -9.173945956496384 0
341 1.117108381008969 -17.77065515949266 0
342 1.188799138567489 -12.20497197550674 0
343 26.91485656993837 -70.72018784159944 0
344 27.03301190768603 -87.71917296554632 0
345 1.095481586765847 -15.65960698846639 0
346 2.418584187271601 -1.524492332442949 0
347 7.805001001653292 -22.82021998598936 0
348 220.3199940076306 -157.3104218588239 0
349 253.6807288236578 -224.3077644796421 0
350 248.0133882774813 -315.2092245141158 0
351 1.194185016541256 -5.355617918536482 0
352 47.92388889331495 -11.44484922603066 0
353 55.76630868962014 -24.5148942620575 0
354 70.14468963522596 -27.8742833861785 0
355 104.0756808166185 -46.37566755529792 0
356 49.33881263903144 -127.0561256484699 0
357 10.14634550956848 -2.951261202708019 0
358 11.43645439718206 -5.187287653680599 0
359 75.25272157998495 -212.8043490457699 0
360 5.611398064462366 -1.750685585487532 0
361 17.88131029011145 -34.9308283080141 0
362 12.12040198833818 -40.46584906582751 0
363 3.41548787728536 -36.22746656670048 0
364 5.67935096906961 -36.87328529265912 0
365 7.624036174445873 -35.20734888554263 0
366 8.888348213311977 -32.68303300030362 0
367 4.097292279867526 -38.47477330517063 0
368 2.085963615376404 -36.70564422472941 0
369 6.072785517638296 -39.2663712621991 0
370 4.06386919279114 -40.78881304274637 0
371 7.335493048568297 -41.96608624370523 0
372 11.82919070193142 -45.06728603571762 0
373 16.83772946112962 -49.79769569840293 0
374 6.608207741238309 -46.48823897150168 0
375 259.8722274681847 -100.4917955764359 0
376 0.8783104859425686 -3.009802141170534 0
377 0.8690835231707906 -13.46475181493155 0
378 14.58578289667522 -10.75252962873026 0
379 10.86596445405772 -35.375153019741 0
380 1.52715082055635 -35.87797968745174 0
381 2.124201951966564 -25.57241047672358 0
382 1.28695488665698 -25.59398213374338 0
383 0.3888277323113798 -24.51020408163265 0
384 7.527799529587361 -75.08631889656806 0
385 1.37381989865942 -34.46278127211255 0
386 1.046192312107703 -33.66685720517678 0
387 1.107653490491819 -21.17866860876065 0
388 1.143904553581709 -27.13734820105758 0
389 8.66812101328965 -5.234199836217062 0
390 9.709343387443568 -7.81129935900575 0
391 12.72004981655044 -7.658105485668635 0
392 17.06863812295912 -25.13857130948188 0
393 13.64702123963529 -28.11364693449731 0
394 167.0512132942137 -33.85725398644388 0
395 21.05492048822545 -143.995272446752 0
396 103.046776367428 -19.77612850064538 0
397 1.284726749458872 -43.77759026222868 0
398 3.156102224888377 -45.35939382597559 0
399 2.393352653679305 -42.58606494100734 0
400 0.9971599508865473 -35.23292921253245 0
401 13.21357578410138 -100.410132718639 0
402 1.193486499536931 -22.62883631815179 0
403 1.316864401560858 -23.40023645512652 0
404 3.752575595951444 -12.49388821667915 0
405 58.59725939544461 -40.94670678534816 0
406 0.8660285775718868 -26.10305877369199 0
407 5.828867358885327 -66.41633636259681 0
408 11.11655144333307 -61.92071669101991 0
409 1.006523664194276 -2.067112068339205 0
410 1.539010253523907 -6.945670610292346 0
411 1.072899706598955 -1.527832726944438 0
412 3.369221488022658 -54.72166852164271 0
413 6.407678909950027 -51.54486951646112 0
414 2.3436018855906 -9.170858253404512 0
415 1.426468064430057 -20.53688448141397 0
416 10.30509166632217 -27.25795607302469 0
417 1.202894376071999 -38.87731620141924 0
418 1.144967629216147 -37.9491893989439 0
419 2.424536088428878 -39.48307179870972 0
420 1.840017146862654 -47.6874655526066 0
421 3.174648256082512 -1.961469117315894 0
422 0.8570559688184256 -7.290575115621285 0
423 0.9109013557694402 -6.625644320713107 0
424 0.864870523000301 -10.82976779999406 0
425 138.2288389618363 -57.32030008789651 0
426 16.31371851084594 -3.020604694496153 0
427 202.8953808885817 -105.36270708556 0
428 270.0667607422421 -45.87560656377605 0
429 319.4146367440811 -81.94534159114234 0
430 0.3820700310812074 -1.102941176470206 0
431 0.9039571453486068 -0.9688030290062328 0
432 0.3977772382195224 -18.67021538195748 0
433 0.8919912844475459 -18.88563996406896 0
434 0.8467723457193785 -19.50983543888009 0
435 1.456090582749824 -19.20410637319305 0
436 0.3248855620684271 -19.55910994491887 0
437 2.984632747316056 -20.93495039483687 0
438 0.4572250090965317 -2.049252282368853 0
439 0.3885412768579549 -2.855025433596542 0
440 0.933174972023241 -42.64593296864862 0
441 1.912334577021324 -40.88447122167262 0
442 0.3859122001544583 -14.34836345013076 0
443 0.3266447170670183 -13.45765624533672 0
444 0.3987764337479813 -4.189620584782869 0
445 0.3820700310821532 -12.13235294117059 0
446 0.3820700310821484 -13.01470588234887 0
447 0.9423547907518499 -12.79411764705429 0
448 0.3820700310810211 -3.308823529410453 0
449 0.37789344127576 -5.514705882345259 0
450 0.3972587134190704 -4.632093626871848 0
451 0.8698526748502702 -4.856570737933602 0
452 0.3820700310798863 -6.397058823518313 0
453 0.3820700310799379 -7.279411764691451 0
454 0.3913814508516035 -11.69117647058146 0
455 0.4422555305680401 -8.173536817742205 0
456 0.3820700310821524 -9.926470588224909 0
457 0.8780852950049459 -10.16228708128526 0
458 0.8644807242711267 -9.600506509609358 0
459 0.3258021170329211 -10.81301238352135 0
460 0.4581491916788504 -8.656964759342126 0
461 0.382070031082146 -9.485294117635751 0
462 0.4500341572099238 -20.43669737675962 0
463 0.4032754732843938 -22.26530612244898 0
464 0.4070597489558301 -25.85628780192392 0
465 0.3888277323113475 -28.1020408163265 0
466 30.43610941690764 -221.3049444929287 0
467 0.3888277323113438 -29.44897959183673 0
468 0.8665453164591934 -29.66154974360819 0
469 0.9268241966302379 -30.20771919183348 0
470 0.8487817485091999 -29.0901203094494 0
471 0.3934899317077022 -30.39856544353684 0
472 0.7871739879737136 -30.74785774774067 0
473 0.9730482874264224 -31.32930106187655 0
474 1.747057333377747 -31.5346588279431 0
475 0.4114365480796904 -32.59183673469381 0
476 0.875266824697772 -32.81632653061209 0
477 0.3888277323113438 -31.69387755102039 0
478 0.9691238210617763 -31.90519314207184 0
479 0.3888277323116487 -34.8367346938777 0
480 0.4525572147612116 -33.93265499722281 0
481 0.3888277323112009 -36.18367346938769 0
482 0.503333260762572 -37.55672431025486 0
483 1.033288034674267 -37.30612244897993 0
484 0.9454946888107689 -36.55927579834139 0
485 0.3574477178991455 -36.61049461545058 0
486 0.3198067667572382 -14.77941176470544 0
487 68.21715685874905 -162.3900322423466 0
488 6.049906007260033 -16.39000266094467 0
489 0.3888277323113708 -26.30612244897954 0
490 0.388827732311297 -29.00000000000003 0
491 0.4039354166366077 -24.0612244897959 0
492 0.8954185468218775 -24.34084458110259 0
493 0.8276282639060341 -24.99636501253789 0
494 1.583394344938083 -24.90606791367192 0
495 1.54118374125045 -24.11782793408252 0
496 0.3225191808928012 -24.96130865089423 0
497 0.407348845839932 -21.36932785862216 0
498 1.391067966082745 -29.82272148891481 0
499 0.3972980373478547 -23.16326530612244 0
500 9.088096868203333 -10.39502782713824 0
501 2.334308114671981 -0.6869386417805813 0
502 0.8873687989041894 -20.62387470060044 0
503 0.3511214460690143 -17.80106585864069 0
504 0.3624648385238703 -17 0
505 0.765824939829588 -17.23585931945916 0
506 0.5070247941838555 -27.21799568575172 0
507 0.3549630831019155 -35.27515727107794 0
508 13.01706673620014 -14.14382971606259 0
509 102.9903461685376 -270.3229504180514 0
510 31.41242790865959 -107.2006799211826 0
511 0.3424832976989001 -16.19153499298449 0
512 0.7374236563760994 -16.36052285706225 0
513 0.9225144649329229 -14.12645844038315 0
514 5.342944383323287 -29.36935230719737 0
515 3.06219847134372 -25.47995561955845 0
516 6.292199050794927 -2.966530240084714 0
517 6.745462753906923 -4.482420037155265 0
518 14.07545795224337 -5.032199734075363 0
519 0.431289361444857 -33.48342103478516 0
520 3.871024322807266 -15.46810029162483 0
521 0.7912992250642966 -0.3947952653221692 0
522 0.8474672554123515 -22.0825387039063 0
523 0.8374596028566261 -3.948734548828158 0
524 0.9147793221546558 -20.14638022705483 0
525 7.815837090781772 -7.258092327501279 0
526 322.153757520538 -253.8988961633034 0
527 37.47675608403788 -6.773790412920297 0
528 1.353888802026801 -9.831079288237987 0
529 13.3436344502743 -32.43360872978558 0
530 0.8336845597416771 -34.2274462986128 0
531 0.288675134594759 -15.49999999999999 0
532 0.6749832116478118 -15.28591035777577 0
533 59.41922110245557 -338.6512393583185 0
534 0.8609267938677003 -27.85589668150743 0
535 0.8379572351478453 -9.065728715536224 0
536 49.69017456724063 -98.09529448208809 0
537 7.337854023367697 -30.2241110853067 0
538 4.203168884551325 -2.11530443661997 0
539 0.664801246543464 -40.75104313893683 0
540 19.89040037671928 -59.07174381039648 0
541 7.96291978686027 -3.122965389214198 0
542 11.04577147269401 -9.575141234583169 0
543 9.457432146927244 -24.56878372905086 0
544 0.4333720274735378 -37.97857705299421 0
545 18.44608161898922 -29.68227975298289 0
546 0.8307033913438627 -7.882565448411035 0
547 3.207055039585889 -2.817270884980142 0
548 0.8066522632576564 -14.64265039091 0
549 33.29256272757227 -19.05252885451898 0
550 0.8430873807171718 -18.33281976556687 0
551 5.198978348557099 -5.262466237597802 0
552 4.697438730287896 -13.3445640501498 0
553 0.8136715988681692 -3.491965007652274 0
554 80.5119058351145 -13.26976518635017 0
555 28.44327469862809 -16.10880894455988 0
556 0.8505240160938631 -35.95918367346958 0
557 8.512618950601828 -38.10607176691532 0
558 2.5104601391883 -37.98206164550825 0
559 3.350782557828541 -16.3695989847309 0
560 48.1570688106373 -34.07094281359551 0
561 39.09465668670962 -14.34140623362933 0
562 1.634434709811543 -1.190654600443167 0
563 4.080513118240159 -14.40962774336185 0
564 334.033429159746 -333.8216241353744 0
565 0.7658716295001156 -11.43717784659146 0
566 0.4314490905270709 -38.90673111833914 0
567 4.199386703463476 -10.45832793964857 0
568 4.358496128522402 -9.361363260134791 0
569 2.078729350407778 -19.02022105235527 0
570 1.433679005647843 -33.14260853794961 0
571 168.548316581218 -127.1418282828153 0
572 179.7117639138598 -69.72313100425531 0
573 0.6735451542528645 -17.94580611592372 0
574 4.098435704595252 -20.7906584423709 0
575 6.237685200073766 -23.69481097973658 0
576 0.7439694645534496 -4.392612834643986 0
577 1.818299568866327 -37.48583297221779 0
578 1.201142675270687 -17.18841487154278 0
579 2.142473530751295 -23.67036696370808 0
580 0.8732439970611227 -28.55827122077572 0
581 10.65348293628155 -49.48400990481139 0
582 11.76387299661906 -54.60328970575183 0
583 24.14370421539677 -50.17353375483678 0
584 0.7336281809916623 -23.39025137265796 0
585 17.47271834091809 -78.64125277942975 0
586 2.226037752887129 -6.728908617727773 0
587 0.8013986478568889 -21.6142820450478 0
588 2.443852434432257 -31.99992487254875 0
589 0.8812485540523023 -23.82043828845411 0
590 0.8199447991732234 -5.732179382332081 0
591 8.036054109322698 -26.7100725880868 0
592 1.41412894645178 -4.872602354013364 0
593 0.8243885623416489 -26.65750682357645 0
594 2.330286616572603 -32.9863356035839 0
595 0.81263221775316 -16.83681288924597 0
596 1.205784461426896 -16.13327268634839 0
597 1.37104164960233 -27.63423659028459 0
598 86.45864815629335 -31.39877214112328 0
599 0.8354923448357177 -32.36386617603866 0
600 0.3163715733043619 -30.78447902739286 0
601 14.79186560323025 -68.64275939693508 0
602 0.8388283769323164 -34.65361672854969 0
603 2.20397840175158 -20.33020482068552 0
604 10.34427839767681 -29.87896585605284 0
605 3.804653876714444 -11.44088410360293 0
606 43.33639165253659 -152.891088124502 0
607 19.76397781735871 -3.511498059906717 0
608 0.7893465411707747 -11.88609704565958 0
609 1.585854540172249 -15.20628413197633 0
610 0.6580154604173326 -15.85572478722226 0
611 158.6051100331398 -257.9593185641522 0
612 0.7473685801382035 -6.176470588225056 0
613 0.7737092151267301 -25.60898318664656 0
614 0.6633959303601149 -17.62191235050232 0
615 5.380419649596083 -30.6740038083831 0
616 357.9770215889097 -45.48633539767377 0
617 4.711404972233086 -43.43771940498725 0
618 6.462517378071498 -33.56233137967587 0
619 2.302819906282674 -35.96023980091878 0
620 0.3302958462821699 -0.3102637538863526 0
621 7.408504696284848 -56.51003295451144 0
622 208.2556777804983 -266.938089015602 0
623 1.909462622385738 -9.667794000068136 0
624 0.7220598580160564 -22.52594847379937 0
625 0.7776637964939288 -22.93877551020411 0
626 16.03963897473167 -13.3419230232362 0
627 1.434671614872262 -12.55716038865691 0
628 14.44581987675676 -37.15208128807532 0
629 0.7406674673516336 -12.31821380423019 0
630 8.92053270682838 -1.526777324435723 0
631 4.748126795596707 -0.9801958207417143 0
632 4.292043648491436 -48.72698119239636 0
633 0.7649832712154908 -2.526293100893012 0
634 111.0843938632709 -70.18691968838594 0
635 5.133923843882212 -21.1454240943182 0
636 2.762566301257001 -19.37180292948738 0
637 5.189462322623855 -2.83898517912201 0
638 0.7986662419437116 -33.25611719194157 0
639 1.48181402350204 -19.8997118125396 0
640 0.7287891925840798 -5.306520666581232 0
641 1.538555406436887 -14.5451167459744 0
642 0.7167480218209679 -1.730395482035624 0
643 8.538713679221857 -28.46194922428634 0
644 2.003753946721164 -29.57718100429352 0
645 0.7039788922152526 -1.336868803481483 0
$EndNodes
$Elements
1288
1 1 2 1 2 4 9
2 1 2 1 2 9 10
3 1 2 1 2 10 11
4 1 2 1 2 11 12
5 1 2 1 2 12 13
6 1 2 1 2 13 14
7 1 2 1 2 14 15
8 1 2 1 2 15 16
9 1 2 1 2 16 17
10 1 2 1 2 17 18
11 1 2 1 2 18 19
12 1 2 1 2 19 20
13 1 2 1 2 20 21
14 1 2 1 2 21 22
15 1 2 1 2 22 23
16 1 2 1 2 23 24
17 1 2 1 2 24 25
18 1 2 1 2 25 26
19 1 2 1 2 26 27
20 1 2 1 2 27 28
21 1 2 1 2 28 29
22 1 2 1 2 29 1
23 1 2 5 3 1 30
24 1 2 5 3 30 31
25 1 2 5 3 31 32
26 1 2 5 3 32 2
27 1 2 1 4 2 33
28 1 2 1 4 33 34
29 1 2 1 4 34 35
30 1 2 1 4 35 3
31 1 2 5 7 5 36
32 1 2 5 7 36 37
33 1 2 5 7 37 38
34 1 2 5 7 38 39
35 1 2 5 7 39 40
36 1 2 5 7 40 41
37 1 2 5 7 41 42
38 1 2 5 7 42 43
39 1 2 5 7 43 44
40 1 2 5 7 44 45
41 1 2 5 7 45 46
42 1 2 5 7 46 47
43 1 2 5 7 47 48
44 1 2 5 7 48 49
45 1 2 5 7 49 50
46 1 2 5 7 50 51
47 1 2 5 7 51 52
48 1 2 5 7 52 53
49 1 2 5 7 53 54
50 1 2 5 7 54 3
51 1 2 3 8 6 55
52 1 2 3 8 55 56
53 1 2 3 8 56 57
54 1 2 3 8 57 58
55 1 2 3 8 58 59
56 1 2 3 8 59 60
57 1 2 3 8 60 61
58 1 2 3 8 61 62
59 1 2 3 8 62 63
60 1 2 3 8 63 64
61 1 2 3 8 64 65
62 1 2 3 8 65 66
63 1 2 3 8 66 67
64 1 2 3 8 67 68
65 1 2 3 8 68 69
66 1 2 3 8 69 70
67 1 2 3 8 70 71
68 1 2 3 8 71 72
69 1 2 3 8 72 73
70 1 2 3 8 73 74
71 1 2 3 8 74 75
72 1 2 3 8 75 76
73 1 2 3 8 76 77
74 1 2 3 8 77 78
75 1 2 3 8 78 79
76 1 2 3 8 79 80
77 1 2 3 8 80 81
78 1 2 3 8 81 82
79 1 2 3 8 82 83
80 1 2 3 8 83 84
81 1 2 3 8 84 85
82 1 2 3 8 85 86
83 1 2 3 8 86 87
84 1 2 3 8 87 88
85 1 2 3 8 88 89
86 1 2 3 8 89 90
87 1 2 3 8 90 91
88 1 2 3 8 91 92
89 1 2 3 8 92 93
90 1 2 3 8 93 94
91 1 2 3 8 94 95
92 1 2 3 8 95 96
93 1 2 3 8 96 97
94 1 2 3 8 97 98
95 1 2 3 8 98 99
96 1 2 3 8 99 100
97 1 2 3 8 100 101
98 1 2 3 8 101 102
99 1 2 3 8 102 5
100 1 2 3 9 7 103
101 1 2 3 9 103 104
102 1 2 3 9 104 105
103 1 2 3 9 105 106
104 1 2 3 9 106 6
105 1 2 3 10 8 107
106 1 2 3 10 107 108
107 1 2 3 10 108 7
108 1 2 3 11 4 109
109 1 2 3 11 109 110
110 1 2 3 11 110 111
111 1 2 3 11 111 112
112 1 2 3 11 112 113
113 1 2 3 11 113 114
114 1 2 3 11 114 115
115 1 2 3 11 115 116
116 1 2 3 11 116 117
117 1 2 3 11 117 118
118 1 2 3 11 118 119
119 1 2 3 11 119 120
120 1 2 3 11 120 121
121 1 2 3 11 121 122
122 1 2 3 11 122 123
123 1 2 3 11 123 124
124 1 2 3 11 124 125
125 1 2 3 11 125 126
126 1 2 3 11 126 127
127 1 2 3 11 127 128
128 1 2 3 11 128 129
129 1 2 3 11 129 130
130 1 2 3 11 130 131
131 1 2 3 11 131 132
132 1 2 3 11 132 133
133 1 2 3 11 133 134
134 1 2 3 11 134 135
135 1 2 3 11 135 136
136 1 2 3 11 136 137
137 1 2 3 11 137 138
138 1 2 3 11 138 139
139 1 2 3 11 139 140
140 1 2 3 11 140 141
141 1 2 3 11 141 8
142 2 2 1 1 161 344 585
143 2 2 1 1 346 174 501
144 2 2 1 1 238 202 361
145 2 2 1 1 388 506 534
146 2 2 1 1 390 220 500
147 2 2 1 1 214 210 252
148 2 2 1 1 253 252 255
149 2 2 1 1 208 207 210
150 2 2 1 1 189 509 533
151 2 2 1 1 285 472 473
152 2 2 1 1 344 161 401
153 2 2 1 1 253 255 292
154 2 2 1 1 285 469 472
155 2 2 1 1 258 278 280
156 2 2 1 1 280 278 317
157 2 2 1 1 408 540 582
158 2 2 1 1 214 252 253
159 2 2 1 1 235 335 568
160 2 2 1 1 540 408 601
161 2 2 1 1 208 210 214
162 2 2 1 1 387 318 497
163 2 2 1 1 237 378 542
164 2 2 1 1 486 163 532
165 2 2 1 1 363 289 619
166 2 2 1 1 268 265 282
167 2 2 1 1 238 362 372
168 2 2 1 1 148 377 443
169 2 2 1 1 258 256 278
170 2 2 1 1 308 327 342
171 2 2 1 1 349 350 526
172 2 2 1 1 287 275 594
173 2 2 1 1 293 295 298
174 2 2 1 1 192 359 466
175 2 2 1 1 206 197 207
176 2 2 1 1 206 207 208
177 2 2 1 1 540 373 582
178 2 2 1 1 268 282 337
179 2 2 1 1 255 293 636
180 2 2 1 1 398 420 632
181 2 2 1 1 238 361 628
182 2 2 1 1 352 21 527
183 2 2 1 1 235 233 315
184 2 2 1 1 22 21 352
185 2 2 1 1 170 400 507
186 2 2 1 1 252 210 488
187 2 2 1 1 174 12 501
188 2 2 1 1 348 190 375
189 2 2 1 1 350 349 622
190 2 2 1 1 175 356 510
191 2 2 1 1 339 455 460
192 2 2 1 1 298 295 341
193 2 2 1 1 513 548 641
194 2 2 1 1 266 265 268
195 2 2 1 1 210 212 488
196 2 2 1 1 212 215 217
197 2 2 1 1 265 261 284
198 2 2 1 1 5 155 186
199 2 2 1 1 316 315 334
200 2 2 1 1 210 211 212
201 2 2 1 1 370 419 441
202 2 2 1 1 336 217 520
203 2 2 1 1 356 175 395
204 2 2 1 1 292 255 636
205 2 2 1 1 438 168 633
206 2 2 1 1 293 294 295
207 2 2 1 1 289 287 385
208 2 2 1 1 187 155 539
209 2 2 1 1 181 422 453
210 2 2 1 1 290 478 599
211 2 2 1 1 235 315 316
212 2 2 1 1 355 165 396
213 2 2 1 1 240 328 329
214 2 2 1 1 476 290 599
215 2 2 1 1 354 229 598
216 2 2 1 1 483 368 484
217 2 2 1 1 295 296 299
218 2 2 1 1 337 282 597
219 2 2 1 1 363 368 558
220 2 2 1 1 370 367 419
221 2 2 1 1 486 532 548
222 2 2 1 1 195 193 330
223 2 2 1 1 229 354 405
224 2 2 1 1 377 148 513
225 2 2 1 1 218 404 552
226 2 2 1 1 212 213 215
227 2 2 1 1 259 258 267
228 2 2 1 1 257 256 258
229 2 2 1 1 316 334 339
230 2 2 1 1 223 233 235
231 2 2 1 1 215 216 218
232 2 2 1 1 418 417 558
233 2 2 1 1 249 250 320
234 2 2 1 1 304 307 310
235 2 2 1 1 271 269 285
236 2 2 1 1 223 224 233
237 2 2 1 1 233 234 240
238 2 2 1 1 422 181 546
239 2 2 1 1 220 390 525
240 2 2 1 1 308 312 327
241 2 2 1 1 537 514 615
242 2 2 1 1 298 341 550
243 2 2 1 1 329 590 612
244 2 2 1 1 550 341 573
245 2 2 1 1 223 235 568
246 2 2 1 1 375 176 427
247 2 2 1 1 275 287 289
248 2 2 1 1 474 473 478
249 2 2 1 1 492 493 494
250 2 2 1 1 239 352 561
251 2 2 1 1 249 320 323
252 2 2 1 1 190 348 349
253 2 2 1 1 329 328 351
254 2 2 1 1 312 325 327
255 2 2 1 1 146 434 436
256 2 2 1 1 280 317 402
257 2 2 1 1 240 241 328
258 2 2 1 1 310 307 377
259 2 2 1 1 172 359 487
260 2 2 1 1 378 330 391
261 2 2 1 1 263 261 265
262 2 2 1 1 282 284 309
263 2 2 1 1 361 202 545
264 2 2 1 1 312 314 325
265 2 2 1 1 431 188 521
266 2 2 1 1 241 249 328
267 2 2 1 1 273 271 588
268 2 2 1 1 289 385 400
269 2 2 1 1 335 235 414
270 2 2 1 1 275 289 363
271 2 2 1 1 241 243 249
272 2 2 1 1 378 237 508
273 2 2 1 1 374 371 617
274 2 2 1 1 151 422 423
275 2 2 1 1 304 306 307
276 2 2 1 1 219 222 223
277 2 2 1 1 290 474 478
278 2 2 1 1 517 326 551
279 2 2 1 1 210 207 211
280 2 2 1 1 378 391 542
281 2 2 1 1 190 349 526
282 2 2 1 1 380 289 400
283 2 2 1 1 275 273 594
284 2 2 1 1 455 339 546
285 2 2 1 1 320 321 376
286 2 2 1 1 352 239 353
287 2 2 1 1 282 309 388
288 2 2 1 1 368 380 484
289 2 2 1 1 19 18 607
290 2 2 1 1 267 381 515
291 2 2 1 1 284 261 515
292 2 2 1 1 53 192 466
293 2 2 1 1 400 170 556
294 2 2 1 1 493 158 613
295 2 2 1 1 195 330 378
296 2 2 1 1 266 268 269
297 2 2 1 1 295 299 578
298 2 2 1 1 188 10 521
299 2 2 1 1 162 19 193
300 2 2 1 1 318 387 502
301 2 2 1 1 548 319 641
302 2 2 1 1 320 250 321
303 2 2 1 1 387 497 587
304 2 2 1 1 329 351 590
305 2 2 1 1 293 255 294
306 2 2 1 1 399 178 440
307 2 2 1 1 215 218 552
308 2 2 1 1 427 176 572
309 2 2 1 1 267 258 579
310 2 2 1 1 299 512 595
311 2 2 1 1 249 243 250
312 2 2 1 1 283 506 593
313 2 2 1 1 327 565 608
314 2 2 1 1 217 215 552
315 2 2 1 1 212 211 213
316 2 2 1 1 214 253 635
317 2 2 1 1 193 19 607
318 2 2 1 1 146 462 524
319 2 2 1 1 233 224 234
320 2 2 1 1 207 197 508
321 2 2 1 1 208 347 543
322 2 2 1 1 240 234 241
323 2 2 1 1 389 236 525
324 2 2 1 1 263 265 266
325 2 2 1 1 441 187 539
326 2 2 1 1 264 514 537
327 2 2 1 1 328 249 592
328 2 2 1 1 295 294 296
329 2 2 1 1 223 222 224
330 2 2 1 1 215 213 216
331 2 2 1 1 174 346 421
332 2 2 1 1 228 227 536
333 2 2 1 1 394 425 572
334 2 2 1 1 398 374 617
335 2 2 1 1 236 389 517
336 2 2 1 1 310 513 641
337 2 2 1 1 327 325 424
338 2 2 1 1 460 150 535
339 2 2 1 1 390 500 542
340 2 2 1 1 198 197 206
341 2 2 1 1 307 306 308
342 2 2 1 1 158 493 496
343 2 2 1 1 394 165 425
344 2 2 1 1 249 323 592
345 2 2 1 1 498 285 644
346 2 2 1 1 194 193 195
347 2 2 1 1 268 337 338
348 2 2 1 1 218 216 219
349 2 2 1 1 196 195 197
350 2 2 1 1 299 296 300
351 2 2 1 1 323 320 523
352 2 2 1 1 233 240 586
353 2 2 1 1 317 278 331
354 2 2 1 1 526 350 564
355 2 2 1 1 164 16 357
356 2 2 1 1 528 325 623
357 2 2 1 1 342 327 608
358 2 2 1 1 35 34 189
359 2 2 1 1 409 438 633
360 2 2 1 1 369 371 557
361 2 2 1 1 443 377 446
362 2 2 1 1 431 411 562
363 2 2 1 1 173 14 360
364 2 2 1 1 165 355 425
365 2 2 1 1 35 189 533
366 2 2 1 1 257 258 259
367 2 2 1 1 151 423 452
368 2 2 1 1 227 344 536
369 2 2 1 1 343 225 540
370 2 2 1 1 254 256 257
371 2 2 1 1 297 603 636
372 2 2 1 1 317 331 387
373 2 2 1 1 31 30 190
374 2 2 1 1 531 185 610
375 2 2 1 1 339 334 546
376 2 2 1 1 236 517 551
377 2 2 1 1 381 267 494
378 2 2 1 1 352 527 561
379 2 2 1 1 362 238 628
380 2 2 1 1 31 190 526
381 2 2 1 1 219 223 568
382 2 2 1 1 197 195 626
383 2 2 1 1 315 233 586
384 2 2 1 1 238 372 373
385 2 2 1 1 17 16 164
386 2 2 1 1 309 381 382
387 2 2 1 1 15 14 173
388 2 2 1 1 359 192 509
389 2 2 1 1 334 315 410
390 2 2 1 1 13 12 174
391 2 2 1 1 255 252 336
392 2 2 1 1 336 520 559
393 2 2 1 1 433 298 550
394 2 2 1 1 182 424 457
395 2 2 1 1 391 330 518
396 2 2 1 1 345 319 532
397 2 2 1 1 11 10 188
398 2 2 1 1 189 34 350
399 2 2 1 1 188 431 562
400 2 2 1 1 217 336 488
401 2 2 1 1 204 202 238
402 2 2 1 1 338 337 580
403 2 2 1 1 285 269 644
404 2 2 1 1 307 308 627
405 2 2 1 1 492 494 495
406 2 2 1 1 393 529 545
407 2 2 1 1 339 460 535
408 2 2 1 1 20 19 162
409 2 2 1 1 176 375 428
410 2 2 1 1 285 473 474
411 2 2 1 1 367 363 558
412 2 2 1 1 206 208 209
413 2 2 1 1 271 285 474
414 2 2 1 1 269 268 644
415 2 2 1 1 282 265 284
416 2 2 1 1 229 355 598
417 2 2 1 1 171 22 352
418 2 2 1 1 150 461 535
419 2 2 1 1 424 182 459
420 2 2 1 1 462 502 524
421 2 2 1 1 446 377 447
422 2 2 1 1 359 172 466
423 2 2 1 1 259 267 515
424 2 2 1 1 492 495 589
425 2 2 1 1 506 388 593
426 2 2 1 1 53 54 192
427 2 2 1 1 434 146 524
428 2 2 1 1 290 476 570
429 2 2 1 1 309 382 406
430 2 2 1 1 505 578 595
431 2 2 1 1 178 441 539
432 2 2 1 1 310 377 513
433 2 2 1 1 309 284 381
434 2 2 1 1 209 208 543
435 2 2 1 1 321 324 409
436 2 2 1 1 51 172 395
437 2 2 1 1 371 362 557
438 2 2 1 1 418 482 544
439 2 2 1 1 256 254 635
440 2 2 1 1 344 401 510
441 2 2 1 1 484 380 556
442 2 2 1 1 532 531 610
443 2 2 1 1 316 339 340
444 2 2 1 1 28 27 176
445 2 2 1 1 254 214 635
446 2 2 1 1 411 431 645
447 2 2 1 1 299 300 596
448 2 2 1 1 374 398 632
449 2 2 1 1 16 15 630
450 2 2 1 1 423 329 612
451 2 2 1 1 14 13 631
452 2 2 1 1 304 310 641
453 2 2 1 1 501 188 562
454 2 2 1 1 178 399 441
455 2 2 1 1 202 200 545
456 2 2 1 1 321 322 324
457 2 2 1 1 358 357 389
458 2 2 1 1 200 198 392
459 2 2 1 1 278 256 437
460 2 2 1 1 29 428 429
461 2 2 1 1 218 219 567
462 2 2 1 1 258 280 579
463 2 2 1 1 438 409 642
464 2 2 1 1 372 371 374
465 2 2 1 1 469 285 498
466 2 2 1 1 422 151 453
467 2 2 1 1 12 11 501
468 2 2 1 1 465 277 580
469 2 2 1 1 208 214 347
470 2 2 1 1 23 22 171
471 2 2 1 1 584 403 625
472 2 2 1 1 338 468 498
473 2 2 1 1 382 493 613
474 2 2 1 1 424 149 565
475 2 2 1 1 534 465 580
476 2 2 1 1 18 17 426
477 2 2 1 1 176 27 394
478 2 2 1 1 376 321 633
479 2 2 1 1 377 307 447
480 2 2 1 1 385 287 386
481 2 2 1 1 227 225 343
482 2 2 1 1 334 410 422
483 2 2 1 1 468 338 470
484 2 2 1 1 532 319 548
485 2 2 1 1 538 421 547
486 2 2 1 1 241 242 243
487 2 2 1 1 480 386 519
488 2 2 1 1 2 32 564
489 2 2 1 1 346 501 562
490 2 2 1 1 27 26 394
491 2 2 1 1 25 24 396
492 2 2 1 1 343 540 601
493 2 2 1 1 458 340 535
494 2 2 1 1 149 424 459
495 2 2 1 1 418 558 577
496 2 2 1 1 348 375 427
497 2 2 1 1 578 299 595
498 2 2 1 1 359 246 487
499 2 2 1 1 190 30 429
500 2 2 1 1 169 418 544
501 2 2 1 1 26 25 165
502 2 2 1 1 308 311 312
503 2 2 1 1 403 402 625
504 2 2 1 1 325 314 623
505 2 2 1 1 314 335 414
506 2 2 1 1 277 490 580
507 2 2 1 1 312 313 314
508 2 2 1 1 34 33 350
509 2 2 1 1 162 193 194
510 2 2 1 1 495 403 589
511 2 2 1 1 356 231 536
512 2 2 1 1 410 329 423
513 2 2 1 1 29 28 428
514 2 2 1 1 357 16 630
515 2 2 1 1 49 175 401
516 2 2 1 1 302 304 641
517 2 2 1 1 51 52 172
518 2 2 1 1 360 14 631
519 2 2 1 1 219 220 222
520 2 2 1 1 244 231 356
521 2 2 1 1 317 387 587
522 2 2 1 1 248 538 547
523 2 2 1 1 54 3 533
524 2 2 1 1 164 357 358
525 2 2 1 1 253 292 574
526 2 2 1 1 33 2 564
527 2 2 1 1 52 53 466
528 2 2 1 1 603 292 636
529 2 2 1 1 417 419 558
530 2 2 1 1 354 353 405
531 2 2 1 1 387 331 415
532 2 2 1 1 270 269 271
533 2 2 1 1 49 50 175
534 2 2 1 1 425 251 572
535 2 2 1 1 390 389 525
536 2 2 1 1 194 195 196
537 2 2 1 1 280 402 403
538 2 2 1 1 20 162 527
539 2 2 1 1 291 347 575
540 2 2 1 1 393 209 416
541 2 2 1 1 396 24 554
542 2 2 1 1 300 301 302
543 2 2 1 1 26 165 394
544 2 2 1 1 340 458 528
545 2 2 1 1 385 386 530
546 2 2 1 1 493 382 494
547 2 2 1 1 302 303 304
548 2 2 1 1 512 299 596
549 2 2 1 1 304 305 306
550 2 2 1 1 196 197 198
551 2 2 1 1 332 246 359
552 2 2 1 1 235 316 414
553 2 2 1 1 10 9 521
554 2 2 1 1 321 409 633
555 2 2 1 1 166 446 447
556 2 2 1 1 165 25 396
557 2 2 1 1 329 410 586
558 2 2 1 1 461 458 535
559 2 2 1 1 261 259 515
560 2 2 1 1 387 415 502
561 2 2 1 1 437 292 603
562 2 2 1 1 358 389 390
563 2 2 1 1 473 286 477
564 2 2 1 1 424 325 457
565 2 2 1 1 260 259 261
566 2 2 1 1 3 35 533
567 2 2 1 1 508 197 626
568 2 2 1 1 262 261 263
569 2 2 1 1 251 427 572
570 2 2 1 1 334 422 546
571 2 2 1 1 272 271 273
572 2 2 1 1 362 371 372
573 2 2 1 1 244 356 487
574 2 2 1 1 50 51 395
575 2 2 1 1 47 48 161
576 2 2 1 1 274 273 275
577 2 2 1 1 46 47 384
578 2 2 1 1 356 395 606
579 2 2 1 1 400 479 507
580 2 2 1 1 300 302 609
581 2 2 1 1 330 193 607
582 2 2 1 1 298 433 435
583 2 2 1 1 174 421 538
584 2 2 1 1 324 346 562
585 2 2 1 1 510 356 536
586 2 2 1 1 46 384 407
587 2 2 1 1 198 206 392
588 2 2 1 1 321 250 322
589 2 2 1 1 340 339 535
590 2 2 1 1 470 338 580
591 2 2 1 1 419 367 558
592 2 2 1 1 404 218 605
593 2 2 1 1 422 410 423
594 2 2 1 1 279 537 615
595 2 2 1 1 21 20 527
596 2 2 1 1 368 483 577
597 2 2 1 1 232 251 634
598 2 2 1 1 543 291 591
599 2 2 1 1 212 217 488
600 2 2 1 1 44 45 160
601 2 2 1 1 413 374 632
602 2 2 1 1 389 357 541
603 2 2 1 1 224 236 551
604 2 2 1 1 397 399 440
605 2 2 1 1 402 317 522
606 2 2 1 1 240 329 586
607 2 2 1 1 141 8 486
608 2 2 1 1 320 376 553
609 2 2 1 1 30 1 616
610 2 2 1 1 217 552 563
611 2 2 1 1 362 379 557
612 2 2 1 1 48 49 401
613 2 2 1 1 341 295 578
614 2 2 1 1 484 481 485
615 2 2 1 1 142 484 485
616 2 2 1 1 293 298 569
617 2 2 1 1 1 29 616
618 2 2 1 1 6 55 159
619 2 2 1 1 409 324 411
620 2 2 1 1 189 350 622
621 2 2 1 1 324 322 346
622 2 2 1 1 347 291 543
623 2 2 1 1 522 317 587
624 2 2 1 1 176 394 572
625 2 2 1 1 42 43 177
626 2 2 1 1 549 239 561
627 2 2 1 1 364 363 367
628 2 2 1 1 241 234 242
629 2 2 1 1 224 222 236
630 2 2 1 1 373 372 581
631 2 2 1 1 243 248 547
632 2 2 1 1 45 46 407
633 2 2 1 1 44 160 412
634 2 2 1 1 172 487 606
635 2 2 1 1 529 361 545
636 2 2 1 1 171 352 353
637 2 2 1 1 169 417 418
638 2 2 1 1 243 242 248
639 2 2 1 1 213 211 237
640 2 2 1 1 308 306 311
641 2 2 1 1 376 439 448
642 2 2 1 1 24 23 554
643 2 2 1 1 355 396 598
644 2 2 1 1 162 221 527
645 2 2 1 1 219 216 220
646 2 2 1 1 247 348 571
647 2 2 1 1 268 338 644
648 2 2 1 1 55 56 432
649 2 2 1 1 43 44 412
650 2 2 1 1 109 110 191
651 2 2 1 1 369 367 370
652 2 2 1 1 388 534 597
653 2 2 1 1 23 171 554
654 2 2 1 1 490 470 580
655 2 2 1 1 40 41 154
656 2 2 1 1 110 111 430
657 2 2 1 1 395 172 606
658 2 2 1 1 482 418 483
659 2 2 1 1 368 363 619
660 2 2 1 1 111 112 179
661 2 2 1 1 366 279 618
662 2 2 1 1 56 57 183
663 2 2 1 1 388 309 593
664 2 2 1 1 112 113 438
665 2 2 1 1 427 251 571
666 2 2 1 1 142 483 484
667 2 2 1 1 227 343 344
668 2 2 1 1 319 345 609
669 2 2 1 1 113 114 168
670 2 2 1 1 231 228 536
671 2 2 1 1 314 313 335
672 2 2 1 1 200 392 545
673 2 2 1 1 294 255 336
674 2 2 1 1 139 140 148
675 2 2 1 1 7 103 511
676 2 2 1 1 312 311 313
677 2 2 1 1 57 58 436
678 2 2 1 1 276 275 363
679 2 2 1 1 402 522 624
680 2 2 1 1 116 117 167
681 2 2 1 1 392 209 393
682 2 2 1 1 136 137 166
683 2 2 1 1 481 484 556
684 2 2 1 1 115 116 448
685 2 2 1 1 114 115 439
686 2 2 1 1 119 120 156
687 2 2 1 1 120 121 449
688 2 2 1 1 121 122 180
689 2 2 1 1 122 123 452
690 2 2 1 1 118 119 450
691 2 2 1 1 123 124 151
692 2 2 1 1 124 125 453
693 2 2 1 1 133 134 149
694 2 2 1 1 125 126 181
695 2 2 1 1 132 133 459
696 2 2 1 1 142 482 483
697 2 2 1 1 131 132 182
698 2 2 1 1 130 131 456
699 2 2 1 1 140 141 442
700 2 2 1 1 129 130 461
701 2 2 1 1 128 129 150
702 2 2 1 1 41 42 420
703 2 2 1 1 117 118 444
704 2 2 1 1 137 138 446
705 2 2 1 1 247 333 348
706 2 2 1 1 399 370 441
707 2 2 1 1 58 59 146
708 2 2 1 1 62 63 157
709 2 2 1 1 127 128 460
710 2 2 1 1 66 67 145
711 2 2 1 1 70 71 158
712 2 2 1 1 75 76 144
713 2 2 1 1 80 81 152
714 2 2 1 1 85 86 143
715 2 2 1 1 90 91 153
716 2 2 1 1 9 4 620
717 2 2 1 1 93 94 170
718 2 2 1 1 94 95 481
719 2 2 1 1 95 96 485
720 2 2 1 1 96 97 142
721 2 2 1 1 523 320 553
722 2 2 1 1 134 135 454
723 2 2 1 1 126 127 455
724 2 2 1 1 473 477 478
725 2 2 1 1 138 139 443
726 2 2 1 1 494 267 495
727 2 2 1 1 300 296 301
728 2 2 1 1 135 136 445
729 2 2 1 1 382 381 494
730 2 2 1 1 67 68 491
731 2 2 1 1 69 70 496
732 2 2 1 1 59 60 462
733 2 2 1 1 61 62 497
734 2 2 1 1 63 64 463
735 2 2 1 1 65 66 499
736 2 2 1 1 29 429 616
737 2 2 1 1 103 104 147
738 2 2 1 1 74 75 506
739 2 2 1 1 39 40 397
740 2 2 1 1 76 77 465
741 2 2 1 1 42 177 420
742 2 2 1 1 71 72 464
743 2 2 1 1 173 360 516
744 2 2 1 1 364 369 557
745 2 2 1 1 92 93 507
746 2 2 1 1 79 80 467
747 2 2 1 1 380 400 556
748 2 2 1 1 32 31 526
749 2 2 1 1 336 252 488
750 2 2 1 1 558 368 577
751 2 2 1 1 84 85 477
752 2 2 1 1 68 69 383
753 2 2 1 1 353 239 560
754 2 2 1 1 60 61 318
755 2 2 1 1 232 245 251
756 2 2 1 1 104 105 504
757 2 2 1 1 266 269 270
758 2 2 1 1 11 188 501
759 2 2 1 1 72 73 489
760 2 2 1 1 81 82 471
761 2 2 1 1 78 79 490
762 2 2 1 1 64 65 281
763 2 2 1 1 386 480 530
764 2 2 1 1 331 278 437
765 2 2 1 1 304 303 305
766 2 2 1 1 401 175 510
767 2 2 1 1 302 301 303
768 2 2 1 1 17 164 426
769 2 2 1 1 344 343 585
770 2 2 1 1 105 106 184
771 2 2 1 1 73 74 283
772 2 2 1 1 86 87 475
773 2 2 1 1 77 78 277
774 2 2 1 1 214 254 347
775 2 2 1 1 257 259 260
776 2 2 1 1 222 220 525
777 2 2 1 1 406 382 613
778 2 2 1 1 91 92 479
779 2 2 1 1 47 161 384
780 2 2 1 1 416 543 591
781 2 2 1 1 106 6 503
782 2 2 1 1 341 505 614
783 2 2 1 1 83 84 286
784 2 2 1 1 89 90 480
785 2 2 1 1 417 169 566
786 2 2 1 1 294 336 559
787 2 2 1 1 365 364 557
788 2 2 1 1 4 109 620
789 2 2 1 1 308 342 627
790 2 2 1 1 251 425 634
791 2 2 1 1 350 33 564
792 2 2 1 1 351 328 592
793 2 2 1 1 373 540 583
794 2 2 1 1 213 237 500
795 2 2 1 1 300 345 596
796 2 2 1 1 316 340 414
797 2 2 1 1 415 603 639
798 2 2 1 1 88 89 519
799 2 2 1 1 419 187 441
800 2 2 1 1 229 230 355
801 2 2 1 1 400 385 602
802 2 2 1 1 516 326 517
803 2 2 1 1 174 538 631
804 2 2 1 1 468 469 498
805 2 2 1 1 416 209 543
806 2 2 1 1 348 333 349
807 2 2 1 1 306 305 404
808 2 2 1 1 322 250 547
809 2 2 1 1 280 403 579
810 2 2 1 1 87 88 288
811 2 2 1 1 358 390 391
812 2 2 1 1 199 198 200
813 2 2 1 1 332 359 509
814 2 2 1 1 489 283 593
815 2 2 1 1 225 204 583
816 2 2 1 1 403 495 579
817 2 2 1 1 195 378 626
818 2 2 1 1 376 448 553
819 2 2 1 1 381 284 515
820 2 2 1 1 260 261 262
821 2 2 1 1 456 457 458
822 2 2 1 1 452 423 612
823 2 2 1 1 221 549 561
824 2 2 1 1 375 190 429
825 2 2 1 1 327 424 565
826 2 2 1 1 239 203 560
827 2 2 1 1 529 379 628
828 2 2 1 1 309 406 593
829 2 2 1 1 226 229 405
830 2 2 1 1 279 366 537
831 2 2 1 1 348 427 571
832 2 2 1 1 567 219 568
833 2 2 1 1 186 155 187
834 2 2 1 1 28 176 428
835 2 2 1 1 250 243 547
836 2 2 1 1 447 307 627
837 2 2 1 1 234 224 551
838 2 2 1 1 492 383 493
839 2 2 1 1 38 39 440
840 2 2 1 1 487 356 606
841 2 2 1 1 191 110 430
842 2 2 1 1 211 207 508
843 2 2 1 1 409 411 642
844 2 2 1 1 226 228 229
845 2 2 1 1 216 213 500
846 2 2 1 1 56 183 432
847 2 2 1 1 433 183 434
848 2 2 1 1 319 609 641
849 2 2 1 1 111 179 430
850 2 2 1 1 448 167 553
851 2 2 1 1 159 55 432
852 2 2 1 1 205 226 405
853 2 2 1 1 611 189 622
854 2 2 1 1 346 322 421
855 2 2 1 1 179 112 438
856 2 2 1 1 247 246 332
857 2 2 1 1 206 209 392
858 2 2 1 1 467 468 470
859 2 2 1 1 97 98 482
860 2 2 1 1 468 152 469
861 2 2 1 1 472 286 473
862 2 2 1 1 408 407 601
863 2 2 1 1 113 168 438
864 2 2 1 1 183 57 436
865 2 2 1 1 236 222 525
866 2 2 1 1 396 554 598
867 2 2 1 1 248 242 326
868 2 2 1 1 549 221 555
869 2 2 1 1 246 244 487
870 2 2 1 1 6 159 503
871 2 2 1 1 270 271 272
872 2 2 1 1 201 200 202
873 2 2 1 1 397 398 399
874 2 2 1 1 168 114 439
875 2 2 1 1 434 524 639
876 2 2 1 1 245 244 246
877 2 2 1 1 232 231 244
878 2 2 1 1 186 417 566
879 2 2 1 1 162 194 221
880 2 2 1 1 116 167 448
881 2 2 1 1 262 263 264
882 2 2 1 1 220 216 500
883 2 2 1 1 148 140 442
884 2 2 1 1 192 54 533
885 2 2 1 1 439 115 448
886 2 2 1 1 405 353 560
887 2 2 1 1 58 146 436
888 2 2 1 1 156 120 449
889 2 2 1 1 167 117 444
890 2 2 1 1 347 254 575
891 2 2 1 1 121 180 449
892 2 2 1 1 166 137 446
893 2 2 1 1 119 156 450
894 2 2 1 1 180 122 452
895 2 2 1 1 37 38 178
896 2 2 1 1 139 148 443
897 2 2 1 1 171 354 554
898 2 2 1 1 451 351 592
899 2 2 1 1 201 203 239
900 2 2 1 1 123 151 452
901 2 2 1 1 151 124 453
902 2 2 1 1 456 458 461
903 2 2 1 1 125 181 453
904 2 2 1 1 247 332 333
905 2 2 1 1 133 149 459
906 2 2 1 1 182 132 459
907 2 2 1 1 131 182 456
908 2 2 1 1 444 118 450
909 2 2 1 1 130 456 461
910 2 2 1 1 502 415 524
911 2 2 1 1 150 129 461
912 2 2 1 1 311 306 404
913 2 2 1 1 164 358 518
914 2 2 1 1 404 305 552
915 2 2 1 1 128 150 460
916 2 2 1 1 149 134 454
917 2 2 1 1 181 126 455
918 2 2 1 1 136 166 445
919 2 2 1 1 237 211 508
920 2 2 1 1 378 508 626
921 2 2 1 1 170 94 481
922 2 2 1 1 481 95 485
923 2 2 1 1 96 142 485
924 2 2 1 1 138 443 446
925 2 2 1 1 479 400 602
926 2 2 1 1 230 228 231
927 2 2 1 1 455 127 460
928 2 2 1 1 392 393 545
929 2 2 1 1 434 183 436
930 2 2 1 1 196 198 199
931 2 2 1 1 205 204 225
932 2 2 1 1 493 383 496
933 2 2 1 1 135 445 454
934 2 2 1 1 199 201 549
935 2 2 1 1 108 7 185
936 2 2 1 1 191 430 431
937 2 2 1 1 146 59 462
938 2 2 1 1 145 67 491
939 2 2 1 1 70 158 496
940 2 2 1 1 62 157 497
941 2 2 1 1 296 294 559
942 2 2 1 1 303 301 520
943 2 2 1 1 157 63 463
944 2 2 1 1 232 244 245
945 2 2 1 1 66 145 499
946 2 2 1 1 107 108 531
947 2 2 1 1 331 437 603
948 2 2 1 1 272 273 274
949 2 2 1 1 203 202 204
950 2 2 1 1 166 447 629
951 2 2 1 1 75 144 506
952 2 2 1 1 144 76 465
953 2 2 1 1 245 246 247
954 2 2 1 1 158 71 464
955 2 2 1 1 172 52 466
956 2 2 1 1 351 451 640
957 2 2 1 1 8 107 163
958 2 2 1 1 540 225 583
959 2 2 1 1 517 389 541
960 2 2 1 1 80 152 467
961 2 2 1 1 93 170 507
962 2 2 1 1 365 366 618
963 2 2 1 1 421 322 547
964 2 2 1 1 226 225 227
965 2 2 1 1 264 263 514
966 2 2 1 1 85 143 477
967 2 2 1 1 442 141 486
968 2 2 1 1 263 266 514
969 2 2 1 1 505 341 578
970 2 2 1 1 98 99 544
971 2 2 1 1 152 81 471
972 2 2 1 1 201 239 549
973 2 2 1 1 167 523 553
974 2 2 1 1 274 275 276
975 2 2 1 1 458 457 528
976 2 2 1 1 205 405 560
977 2 2 1 1 442 486 548
978 2 2 1 1 68 383 491
979 2 2 1 1 383 69 496
980 2 2 1 1 60 318 462
981 2 2 1 1 143 86 475
982 2 2 1 1 318 61 497
983 2 2 1 1 457 325 528
984 2 2 1 1 426 330 607
985 2 2 1 1 467 470 490
986 2 2 1 1 469 152 471
987 2 2 1 1 364 367 369
988 2 2 1 1 147 104 504
989 2 2 1 1 153 91 479
990 2 2 1 1 407 384 601
991 2 2 1 1 433 434 435
992 2 2 1 1 297 435 639
993 2 2 1 1 345 300 609
994 2 2 1 1 64 281 463
995 2 2 1 1 281 65 499
996 2 2 1 1 428 375 429
997 2 2 1 1 230 231 232
998 2 2 1 1 464 72 489
999 2 2 1 1 90 153 480
1000 2 2 1 1 167 444 523
1001 2 2 1 1 509 189 611
1002 2 2 1 1 500 237 542
1003 2 2 1 1 229 228 230
1004 2 2 1 1 171 353 354
1005 2 2 1 1 79 467 490
1006 2 2 1 1 204 238 583
1007 2 2 1 1 450 156 451
1008 2 2 1 1 283 74 506
1009 2 2 1 1 191 431 521
1010 2 2 1 1 254 257 575
1011 2 2 1 1 77 277 465
1012 2 2 1 1 260 262 291
1013 2 2 1 1 432 183 433
1014 2 2 1 1 105 184 504
1015 2 2 1 1 345 532 610
1016 2 2 1 1 479 92 507
1017 2 2 1 1 73 283 489
1018 2 2 1 1 181 455 546
1019 2 2 1 1 277 78 490
1020 2 2 1 1 82 83 600
1021 2 2 1 1 456 182 457
1022 2 2 1 1 603 297 639
1023 2 2 1 1 185 511 610
1024 2 2 1 1 148 442 513
1025 2 2 1 1 426 164 518
1026 2 2 1 1 286 84 477
1027 2 2 1 1 358 391 518
1028 2 2 1 1 519 386 638
1029 2 2 1 1 203 205 560
1030 2 2 1 1 344 510 536
1031 2 2 1 1 8 163 486
1032 2 2 1 1 103 147 511
1033 2 2 1 1 199 200 201
1034 2 2 1 1 406 489 593
1035 2 2 1 1 184 106 503
1036 2 2 1 1 40 154 397
1037 2 2 1 1 435 434 639
1038 2 2 1 1 366 365 379
1039 2 2 1 1 379 362 628
1040 2 2 1 1 511 147 512
1041 2 2 1 1 276 363 364
1042 2 2 1 1 32 526 564
1043 2 2 1 1 175 50 395
1044 2 2 1 1 199 549 555
1045 2 2 1 1 242 234 551
1046 2 2 1 1 99 100 169
1047 2 2 1 1 323 451 592
1048 2 2 1 1 153 479 602
1049 2 2 1 1 168 439 633
1050 2 2 1 1 266 270 514
1051 2 2 1 1 527 221 561
1052 2 2 1 1 410 315 586
1053 2 2 1 1 271 474 588
1054 2 2 1 1 391 390 542
1055 2 2 1 1 157 463 522
1056 2 2 1 1 18 426 607
1057 2 2 1 1 437 256 574
1058 2 2 1 1 462 318 502
1059 2 2 1 1 205 225 226
1060 2 2 1 1 447 342 629
1061 2 2 1 1 374 413 581
1062 2 2 1 1 467 152 468
1063 2 2 1 1 451 323 576
1064 2 2 1 1 89 480 519
1065 2 2 1 1 203 204 205
1066 2 2 1 1 369 370 371
1067 2 2 1 1 469 471 472
1068 2 2 1 1 87 288 475
1069 2 2 1 1 144 465 534
1070 2 2 1 1 36 37 539
1071 2 2 1 1 491 383 492
1072 2 2 1 1 429 30 616
1073 2 2 1 1 282 388 597
1074 2 2 1 1 512 596 610
1075 2 2 1 1 521 9 620
1076 2 2 1 1 425 355 634
1077 2 2 1 1 160 408 621
1078 2 2 1 1 142 97 482
1079 2 2 1 1 504 184 505
1080 2 2 1 1 201 202 203
1081 2 2 1 1 226 227 228
1082 2 2 1 1 386 287 570
1083 2 2 1 1 609 302 641
1084 2 2 1 1 191 521 620
1085 2 2 1 1 411 324 562
1086 2 2 1 1 435 297 569
1087 2 2 1 1 366 379 529
1088 2 2 1 1 288 88 519
1089 2 2 1 1 471 82 600
1090 2 2 1 1 149 454 565
1091 2 2 1 1 337 534 580
1092 2 2 1 1 301 296 559
1093 2 2 1 1 161 48 401
1094 2 2 1 1 335 313 567
1095 2 2 1 1 39 397 440
1096 2 2 1 1 314 414 623
1097 2 2 1 1 511 512 610
1098 2 2 1 1 159 432 550
1099 2 2 1 1 513 442 548
1100 2 2 1 1 472 471 600
1101 2 2 1 1 185 7 511
1102 2 2 1 1 477 143 478
1103 2 2 1 1 570 476 638
1104 2 2 1 1 83 286 600
1105 2 2 1 1 588 290 594
1106 2 2 1 1 373 581 582
1107 2 2 1 1 194 196 555
1108 2 2 1 1 516 517 541
1109 2 2 1 1 326 516 637
1110 2 2 1 1 286 472 600
1111 2 2 1 1 408 582 621
1112 2 2 1 1 248 326 637
1113 2 2 1 1 439 376 633
1114 2 2 1 1 272 274 279
1115 2 2 1 1 100 101 566
1116 2 2 1 1 160 45 407
1117 2 2 1 1 480 153 530
1118 2 2 1 1 552 305 563
1119 2 2 1 1 251 245 571
1120 2 2 1 1 332 509 611
1121 2 2 1 1 160 407 408
1122 2 2 1 1 257 260 575
1123 2 2 1 1 276 364 365
1124 2 2 1 1 186 187 417
1125 2 2 1 1 326 242 551
1126 2 2 1 1 330 426 518
1127 2 2 1 1 361 529 628
1128 2 2 1 1 475 288 476
1129 2 2 1 1 516 360 637
1130 2 2 1 1 15 173 630
1131 2 2 1 1 170 481 556
1132 2 2 1 1 338 498 644
1133 2 2 1 1 406 464 489
1134 2 2 1 1 349 333 622
1135 2 2 1 1 397 154 398
1136 2 2 1 1 177 43 412
1137 2 2 1 1 393 416 604
1138 2 2 1 1 13 174 631
1139 2 2 1 1 245 247 571
1140 2 2 1 1 464 406 613
1141 2 2 1 1 177 412 413
1142 2 2 1 1 289 380 619
1143 2 2 1 1 177 413 632
1144 2 2 1 1 499 145 584
1145 2 2 1 1 173 516 541
1146 2 2 1 1 530 153 602
1147 2 2 1 1 386 570 638
1148 2 2 1 1 415 331 603
1149 2 2 1 1 313 311 605
1150 2 2 1 1 154 41 420
1151 2 2 1 1 495 267 579
1152 2 2 1 1 520 301 559
1153 2 2 1 1 371 370 617
1154 2 2 1 1 305 303 563
1155 2 2 1 1 109 191 620
1156 2 2 1 1 238 373 583
1157 2 2 1 1 596 345 610
1158 2 2 1 1 221 194 555
1159 2 2 1 1 342 447 627
1160 2 2 1 1 101 102 186
1161 2 2 1 1 384 161 585
1162 2 2 1 1 163 531 532
1163 2 2 1 1 432 433 550
1164 2 2 1 1 292 437 574
1165 2 2 1 1 372 374 581
1166 2 2 1 1 449 180 590
1167 2 2 1 1 503 159 573
1168 2 2 1 1 5 36 155
1169 2 2 1 1 298 435 569
1170 2 2 1 1 541 357 630
1171 2 2 1 1 335 567 568
1172 2 2 1 1 196 199 555
1173 2 2 1 1 412 160 621
1174 2 2 1 1 538 360 631
1175 2 2 1 1 311 404 605
1176 2 2 1 1 366 529 604
1177 2 2 1 1 173 541 630
1178 2 2 1 1 414 340 623
1179 2 2 1 1 444 450 576
1180 2 2 1 1 230 232 634
1181 2 2 1 1 260 291 575
1182 2 2 1 1 333 332 611
1183 2 2 1 1 431 430 645
1184 2 2 1 1 380 368 619
1185 2 2 1 1 303 520 563
1186 2 2 1 1 482 98 544
1187 2 2 1 1 523 444 576
1188 2 2 1 1 450 451 576
1189 2 2 1 1 420 177 632
1190 2 2 1 1 379 365 557
1191 2 2 1 1 524 415 639
1192 2 2 1 1 474 290 588
1193 2 2 1 1 512 147 595
1194 2 2 1 1 340 528 623
1195 2 2 1 1 537 366 604
1196 2 2 1 1 158 464 613
1197 2 2 1 1 454 445 608
1198 2 2 1 1 108 185 531
1199 2 2 1 1 567 313 605
1200 2 2 1 1 451 156 640
1201 2 2 1 1 417 187 419
1202 2 2 1 1 497 157 587
1203 2 2 1 1 163 107 531
1204 2 2 1 1 145 491 589
1205 2 2 1 1 581 413 582
1206 2 2 1 1 180 452 612
1207 2 2 1 1 520 217 563
1208 2 2 1 1 147 504 595
1209 2 2 1 1 178 38 440
1210 2 2 1 1 159 550 573
1211 2 2 1 1 157 522 587
1212 2 2 1 1 538 248 637
1213 2 2 1 1 565 454 608
1214 2 2 1 1 355 230 634
1215 2 2 1 1 554 354 598
1216 2 2 1 1 290 570 594
1217 2 2 1 1 491 492 589
1218 2 2 1 1 445 166 629
1219 2 2 1 1 273 588 594
1220 2 2 1 1 281 499 625
1221 2 2 1 1 403 584 589
1222 2 2 1 1 504 505 595
1223 2 2 1 1 522 463 624
1224 2 2 1 1 537 604 643
1225 2 2 1 1 463 281 624
1226 2 2 1 1 272 279 615
1227 2 2 1 1 370 399 617
1228 2 2 1 1 99 169 544
1229 2 2 1 1 276 365 618
1230 2 2 1 1 291 262 591
1231 2 2 1 1 430 179 645
1232 2 2 1 1 143 475 599
1233 2 2 1 1 156 449 640
1234 2 2 1 1 360 538 637
1235 2 2 1 1 179 438 642
1236 2 2 1 1 505 184 614
1237 2 2 1 1 262 264 591
1238 2 2 1 1 483 418 577
1239 2 2 1 1 264 537 643
1240 2 2 1 1 37 178 539
1241 2 2 1 1 323 523 576
1242 2 2 1 1 584 145 589
1243 2 2 1 1 590 180 612
1244 2 2 1 1 184 503 614
1245 2 2 1 1 529 393 604
1246 2 2 1 1 499 584 625
1247 2 2 1 1 478 143 599
1248 2 2 1 1 449 590 640
1249 2 2 1 1 534 337 597
1250 2 2 1 1 475 476 599
1251 2 2 1 1 604 416 643
1252 2 2 1 1 582 413 621
1253 2 2 1 1 608 445 629
1254 2 2 1 1 333 611 622
1255 2 2 1 1 270 272 615
1256 2 2 1 1 384 585 601
1257 2 2 1 1 288 519 638
1258 2 2 1 1 514 270 615
1259 2 2 1 1 169 100 566
1260 2 2 1 1 476 288 638
1261 2 2 1 1 503 573 614
1262 2 2 1 1 569 297 636
1263 2 2 1 1 179 642 645
1264 2 2 1 1 585 343 601
1265 2 2 1 1 624 281 625
1266 2 2 1 1 413 412 621
1267 2 2 1 1 399 398 617
1268 2 2 1 1 274 276 618
1269 2 2 1 1 573 341 614
1270 2 2 1 1 279 274 618
1271 2 2 1 1 416 591 643
1272 2 2 1 1 385 530 602
1273 2 2 1 1 218 567 605
1274 2 2 1 1 293 569 636
1275 2 2 1 1 570 287 594
1276 2 2 1 1 155 36 539
1277 2 2 1 1 574 256 635
1278 2 2 1 1 101 186 566
1279 2 2 1 1 591 264 643
1280 2 2 1 1 590 351 640
1281 2 2 1 1 253 574 635
1282 2 2 1 1 642 411 645
1283 2 2 1 1 342 608 629
1284 2 2 1 1 402 624 625
1285 2 2 1 1 102 5 186
1286 2 2 1 1 506 144 534
1287 2 2 1 1 398 154 420
1288 2 2 1 1 509 192 533
$EndElements
