$MeshFormat
2.2 0 8
$EndMeshFormat
$Nodes
421
1 0.2 0 0
2 1 0 0
3 0.177091205130642 0.09294463440875371 0
4 0.1136129493462312 0.1645967731787313 0
5 0.02410733605106465 0.1985417748196108 0
6 -0.0709209774085071 0.187003248537083 0
7 -0.1497021496342202 0.1326245316481591 0
8 -0.1941883634852104 0.04786313285751162 0
9 -0.1941883634852104 -0.04786313285751149 0
10 -0.1497021496342203 -0.132624531648159 0
11 -0.07092097740850718 -0.1870032485370829 0
12 0.02410733605106447 -0.1985417748196108 0
13 0.1136129493462311 -0.1645967731787313 0
14 0.1770912051306419 -0.09294463440875383 0
15 0.9950307753654014 0.09956784659581641 0
16 0.9801724878485439 0.1981461431993971 0
17 0.955572805786141 0.2947551744109034 0
18 0.9214762118704081 0.3884347962746937 0
19 0.8782215733702291 0.4782539786213171 0
20 0.8262387743159958 0.5633200580636207 0
21 0.7660444431189791 0.642787609686538 0
22 0.6982368180860742 0.7158668492597171 0
23 0.6234898018587353 0.7818314824680284 0
24 0.5425462638657613 0.8400259231507702 0
25 0.4562106573531652 0.8898718088114674 0
26 0.3653410243663976 0.9308737486442032 0
27 0.2708404681430079 0.9626242469500113 0
28 0.1736481776669335 0.9848077530122075 0
29 0.07473009358642749 0.9972037971811799 0
30 -0.02493069173806936 0.9996891820008164 0
31 -0.1243437046474812 0.9922392066001726 0
32 -0.22252093395631 0.9749279121818246 0
33 -0.3184866502516801 0.9479273461671333 0
34 -0.4112871031306069 0.9115058523116752 0
35 -0.4999999999999956 0.8660254037844412 0
36 -0.5837436722347853 0.8119380057158597 0
37 -0.6616858375968552 0.7497812029677379 0
38 -0.7330518718298221 0.6801727377709239 0
39 -0.797132507222919 0.6038044103254819 0
40 -0.8532908816321524 0.5214352033795034 0
41 -0.9009688679024164 0.4338837391175638 0
42 -0.9396926207859061 0.3420201433256752 0
43 -0.9690772862290763 0.2467573976903003 0
44 -0.9888308262251275 0.1490422661761813 0
45 -0.998756921218922 0.04984588566070414 0
46 -0.9987569212189228 -0.0498458856606897 0
47 -0.9888308262251297 -0.1490422661761666 0
48 -0.96907728622908 -0.2467573976902858 0
49 -0.939692620785911 -0.3420201433256616 0
50 -0.9009688679024225 -0.4338837391175512 0
51 -0.8532908816321595 -0.5214352033794919 0
52 -0.7971325072229264 -0.6038044103254722 0
53 -0.7330518718298308 -0.6801727377709146 0
54 -0.6616858375968644 -0.7497812029677299 0
55 -0.5837436722347948 -0.8119380057158528 0
56 -0.500000000000005 -0.8660254037844357 0
57 -0.4112871031306164 -0.9115058523116709 0
58 -0.3184866502516892 -0.9479273461671301 0
59 -0.2225209339563189 -0.9749279121818226 0
60 -0.1243437046474902 -0.9922392066001714 0
61 -0.0249306917380776 -0.9996891820008161 0
62 0.07473009358641994 -0.9972037971811805 0
63 0.1736481776669265 -0.9848077530122088 0
64 0.2708404681430008 -0.9626242469500133 0
65 0.3653410243663913 -0.9308737486442057 0
66 0.4562106573531597 -0.8898718088114703 0
67 0.5425462638657567 -0.8400259231507732 0
68 0.6234898018587313 -0.7818314824680316 0
69 0.6982368180860711 -0.7158668492597202 0
70 0.7660444431189761 -0.6427876096865416 0
71 0.8262387743159935 -0.5633200580636242 0
72 0.8782215733702274 -0.4782539786213201 0
73 0.9214762118704073 -0.3884347962746956 0
74 0.9555728057861406 -0.2947551744109047 0
75 0.9801724878485438 -0.1981461431993977 0
76 0.9950307753654013 -0.09956784659581729 0
77 -0.2659540842340641 0.001187342835159081 0
78 0.2737888610014404 -0.05234943135765818 0
79 0.2132841949555912 0.1732080282740021 0
80 -0.1620434731394235 0.227853811609759 0
81 -0.157254910071651 -0.2287585246696079 0
82 0.09461698643850584 -0.2555561965035585 0
83 0.1948544136892594 0.8893232129749838 0
84 0.8975984794247011 0.2212867142611371 0
85 -0.7932924511024757 0.4249814954426979 0
86 -0.8001998893225694 -0.4509236661938681 0
87 0.6707174456786689 -0.6162955728431996 0
88 -0.05365957260449197 -0.9243938060349296 0
89 -0.1584402985632144 0.8985595847363828 0
90 0.5318503286981693 0.7380883976234071 0
91 -0.4040644636749474 -0.8087866566370624 0
92 0.8603572413255842 -0.3101881627390745 0
93 -0.9074886063703352 -0.09770473175494312 0
94 -0.5893961267516402 0.7175950174744486 0
95 0.3660777046751166 -0.8383441136390539 0
96 -0.8943302700017374 0.1807927644819884 0
97 0.9176811699042938 -0.03471432901106561 0
98 -0.6250086045405153 -0.6545689505783792 0
99 0.7390211645386097 0.5451092049152514 0
100 0.375267119360191 0.8316773681287263 0
101 0.2026029820148399 -0.8846843745507869 0
102 0.5326201688719631 -0.7408295426352955 0
103 -0.4256497443676062 0.7962579843856191 0
104 -0.69895527791409 0.5864931159071335 0
105 0.0296692437287838 0.9057091478437567 0
106 -0.2499143009397857 -0.8623392474680058 0
107 0.7823763559285891 -0.4849414389314047 0
108 -0.87456444224303 -0.2755317111867208 0
109 0.822063198960996 0.3958847716753381 0
110 -0.0810364773788045 -0.2866634561280614 0
111 -0.1658071309501791 -0.3247279836585786 0
112 -0.08736245534253038 -0.3766704563300255 0
113 -0.2439454978651246 -0.2707957308166359 0
114 -0.2526714139667915 -0.3657893269153271 0
115 -0.3315493813281853 -0.3119996568752831 0
116 -0.3403061978806011 -0.4073307217643967 0
117 -0.2610397865728147 -0.4611276375976312 0
118 -0.420248170703884 -0.3518567899206979 0
119 -0.4083006577029544 -0.2399749678189035 0
120 -0.5004132111460798 -0.2958170328357915 0
121 -0.4921866949781895 -0.1985944555116604 0
122 -0.3484887274948479 -0.5040389405967515 0
123 -0.2676859557418965 -0.5577843047608965 0
124 -0.5833979303043767 -0.2397010664182386 0
125 -0.5719704575224295 -0.1424205402549064 0
126 -0.5179982077167201 -0.3952204999456716 0
127 -0.2399546259328634 0.1773685629738498 0
128 -0.2455864776998128 0.2701160027569279 0
129 -0.1703477009272474 0.3238197726138179 0
130 -0.3225494464136719 0.2128387263699626 0
131 -0.2531384976366883 0.3658420099618785 0
132 -0.1731173762859064 0.4205549385686984 0
133 -0.2600959295687638 0.4624731923261899 0
134 -0.339752987333437 0.4072943284987154 0
135 -0.1798358685899443 0.5175120256473892 0
136 -0.09187849611386341 0.4754259426579502 0
137 -0.0992888220854662 0.5726106445393984 0
138 -0.01114212313455843 0.530378882270106 0
139 -0.3477103040316666 0.5044709479296972 0
140 -0.4263435614353924 0.4528144550225817 0
141 -0.1870712250277303 0.6147228148266193 0
142 -0.01866388629940004 0.627887299848182 0
143 0.06951406367285401 0.585529777816848 0
144 0.07698907060378379 0.4880475841518356 0
145 0.1576282211374936 0.5431274412908402 0
146 0.1649867363573701 0.4456206635855295 0
147 0.2457920400644769 0.5005428979143297 0
148 0.2384359100456878 0.5983129902944961 0
149 0.3266642511441684 0.5557394114851439 0
150 0.3339374607522618 0.4579325720616425 0
151 0.4148497672965514 0.5131024769705224 0
152 0.4195711773323631 0.4178184232136594 0
153 0.268584411590288 0.06646221371047291 0
154 0.3549101663850049 0.003170726016146034 0
155 0.3646928059952512 -0.09615492773882034 0
156 0.4420155979649994 -0.03967586519361615 0
157 0.4523534657533062 -0.1365487607575555 0
158 0.4336022197256229 0.05548271140056028 0
159 0.5206670356110176 0.01587904879087149 0
160 0.3756593149624345 -0.1942967684863554 0
161 0.462838092679287 -0.2333621390471725 0
162 0.3856176983340924 -0.291378899546229 0
163 0.5398365673878247 -0.177433024376193 0
164 0.511225889662679 0.1127550705406369 0
165 0.4738837411802175 -0.3302479435300749 0
166 0.3964897852753749 -0.3884143775188885 0
167 0.5998789013447258 0.07218025966818238 0
168 0.5904258399675415 0.1697466659208226 0
169 0.4858921222470856 -0.4272045205700298 0
170 0.4074014470019912 -0.4856409568640165 0
171 0.3164422789109318 -0.4423636635682426 0
172 0.3285165899312497 -0.5432935565428543 0
173 0.2388078113142838 -0.5049996365940597 0
174 0.2514919809603571 -0.6043742453187082 0
175 0.1601398877604557 -0.5636726825427903 0
176 0.5628956348552885 -0.369519743868397 0
177 0.4222485848923928 0.1439838651422322 0
178 0.06201893087045382 0.6832883670092252 0
179 -0.4865999950773106 -0.1009500920493646 0
180 -0.5643327934924774 -0.0451016490807876 0
181 -0.6505897374302076 -0.08470466202706742 0
182 -0.6439295077100291 0.01123330025102533 0
183 -0.5554412132233569 0.05241378778814213 0
184 -0.6356212344869566 0.1085755087809604 0
185 -0.5468632350124284 0.1498776902395331 0
186 -0.6270685689408996 0.2061278972469043 0
187 0.1730084890959831 -0.6633581250030147 0
188 0.08126370247315827 -0.6222127687606943 0
189 0.09256033508101606 -0.719992423820725 0
190 0.002069907938343628 -0.6803637672545604 0
191 0.4993161680681338 0.4743341969764545 0
192 0.6794896670608863 0.1290456907898212 0
193 0.6888333809898138 0.03127879406982164 0
194 -0.5428310869854446 0.2479314514531953 0
195 -0.6193150178665404 0.3040644600190497 0
196 0.6701018282172673 0.2267915344087322 0
197 0.3407737952899458 0.36075838138731 0
198 -0.00916949277690997 -0.5827101162189865 0
199 -0.3589414961991834 -0.5963691484166787 0
200 -0.2773105530639569 -0.6591295925168635 0
201 0.1451985759210485 -0.4589948023961807 0
202 0.5840006106335958 0.2678298832541466 0
203 -0.02641611418820355 0.7257400551269166 0
204 -0.7245374468854106 0.06706894662613652 0
205 -0.470869842398505 0.09403934188735708 0
206 -0.4356850751726168 0.5472827149241172 0
207 -0.5154951550730605 0.4935260553584546 0
208 -0.7078437154437627 0.2624504082518789 0
209 0.08543644577059846 0.3929581192816173 0
210 -0.4418059431344026 -0.5447180000950519 0
211 -0.355128376290806 0.6021533941060674 0
212 0.4973683268078355 -0.5246376991452674 0
213 0.2947260754531318 -0.2435211217461697 0
214 0.3429229733616534 -0.6436774490508382 0
215 0.7685775515773839 0.08728602731394497 0
216 -0.2729378803867574 -0.09473654775463905 0
217 0.6597806441635475 0.3246600555500513 0
218 -0.08812181799373424 -0.6410510356692204 0
219 -0.4448821205045582 -0.635303974580817 0
220 0.3194746698206703 0.6536700005866443 0
221 0.2309701290923836 0.6962140289312476 0
222 -0.09663093273317645 -0.546858033647291 0
223 0.4960360508680922 0.5684614896479827 0
224 -0.07619287003711697 -0.7366312034174591 0
225 0.1713772264384377 0.3504844396311828 0
226 0.4230762040740639 0.3288024863906973 0
227 -0.02785380999215786 0.2781620951485982 0
228 -0.4297568042591211 0.3553278184607075 0
229 0.3383331863526062 0.270215055076468 0
230 -0.4424566442168773 0.6426828532760843 0
231 0.5811244855611118 0.5399385058311671 0
232 0.7732216542546143 -0.01043577117089689 0
233 0.6978729508354783 -0.06682141561343724 0
234 0.7816589637781783 -0.1085592952672888 0
235 0.7070247748369807 -0.1650337614305907 0
236 0.7600706066999598 0.2956991818847414 0
237 0.06227155982053652 0.7928835608813461 0
238 -0.3412759730231379 -0.03442640515287614 0
239 -0.01729062198621257 -0.4898286219091939 0
240 0.1857818944166765 -0.7682388224641746 0
241 0.1045292637854198 -0.8213891527007994 0
242 0.01218019735562224 -0.3389716335232996 0
243 -0.3085222592455322 0.130668283876534 0
244 -0.5331495392973712 -0.5911434533667425 0
245 0.5681990745842173 0.6345380250152257 0
246 -0.3656470577067428 0.7114451497263899 0
247 -0.7015215693791373 0.3618683305208812 0
248 -0.7885715810049907 0.3188798237518899 0
249 -0.6035501517784979 0.3921348468906281 0
250 0.5753207544937596 0.362285755454553 0
251 0.6538593658890164 0.4113875969098756 0
252 -0.6781488060342454 0.4692167276869577 0
253 -0.3485557809903965 -0.1400915631903888 0
254 0.8011113746437497 -0.2233655632320422 0
255 0.7076432710182213 -0.2681700556987847 0
256 0.07841081586524688 0.2851020670429053 0
257 0.3225292290379165 0.169630560673622 0
258 -0.1704800565394484 -0.6989508338746518 0
259 -0.1606604881298041 -0.7978310375838596 0
260 0.2011616879863864 -0.1919523839111183 0
261 0.2013962735169559 -0.2901970922874249 0
262 0.1242806677426398 -0.3553043959565261 0
263 0.2195949457550372 -0.3866003775670341 0
264 0.8821824914593841 -0.1424178414036499 0
265 -0.5199846694607335 -0.6867402642264095 0
266 -0.6254977340494723 -0.5465472110720988 0
267 0.2726863246101436 -0.8116096037918593 0
268 0.8587773291906792 0.04736244133214153 0
269 -0.2468751973911167 -0.7578317676487056 0
270 -0.3427443677991234 -0.7325817846235461 0
271 -0.03421503759605547 0.8239836833974372 0
272 -0.1117582656354041 0.7631240780749241 0
273 -0.79779687958095 0.2204852796570392 0
274 -0.5301176280769708 -0.4956045758139377 0
275 -0.6331357611040713 -0.4453212801681427 0
276 -0.6042201336628134 -0.3445879764505227 0
277 -0.6766491559362969 -0.2735785709035813 0
278 -0.7150296143829231 -0.5042819699981405 0
279 -0.6976122709820541 -0.3616113864906153 0
280 -0.7743131989923244 -0.2968442082332332 0
281 -0.7447666983129915 -0.2077428431093531 0
282 0.05865235560146214 -0.4259582529460539 0
283 0.3086895118575912 0.7574363784018822 0
284 0.4128106764073235 0.721497155250976 0
285 0.25767784358764 0.3125197334742627 0
286 0.06979906783216698 -0.5238962074623165 0
287 -0.002422044984965289 0.4356280731572452 0
288 0.2641136248096456 -0.7050484116671378 0
289 0.2524241837483554 0.4046431146757095 0
290 -0.08026071962694789 0.3660623965638573 0
291 -0.4833959550610177 -0.003041787854203636 0
292 -0.4733730396232551 0.1972249606400512 0
293 -0.1806031147549978 -0.602296481309688 0
294 0.6091458065263334 -0.02489324034409707 0
295 0.5070570523441765 0.2063893055697336 0
296 -0.5292365562031165 0.3425168757817552 0
297 -0.7309024411041773 -0.02763634262280045 0
298 -0.8160158052098204 0.02913374737458464 0
299 0.01444831715156421 -0.7763201510055033 0
300 0.1502108921005459 0.6408593039585118 0
301 0.4191112522925166 -0.5832787359710472 0
302 0.5086838464359731 -0.6223646272677273 0
303 0.5861974195741737 -0.5653167198978252 0
304 0.6273237215775193 -0.2220201246212427 0
305 -0.7162891240424246 0.1646072161362729 0
306 0.7559740690468056 0.186472391467832 0
307 0.4092921618493079 0.6121910042009413 0
308 0.5754255317637333 -0.4664396905933241 0
309 0.6547825022872185 -0.4075094374805245 0
310 -0.4331608125012377 -0.4497949213560845 0
311 -0.5213175316506262 0.584533256543793 0
312 -0.6015847866066679 0.538174195476383 0
313 -0.3329106804260156 0.3125033336943313 0
314 -0.1751661974971081 -0.4164548477679002 0
315 -0.2674585250203443 0.5598354686677594 0
316 -0.1062457722370782 0.6692518264846871 0
317 0.02335405671454978 -0.8673317465881986 0
318 0.1426980977844026 0.7386832184084137 0
319 -0.2751666850154983 0.6592351327115857 0
320 -0.2774059379291275 0.7569655651610744 0
321 0.4345671013246091 -0.6834033760923958 0
322 0.1094732854943736 0.8648480226626534 0
323 0.2235168623921769 0.7938569036000237 0
324 -0.807275315682223 0.1240400382484022 0
325 -0.894682368372995 0.0821522752143916 0
326 0.680509230486718 -0.5006098123570175 0
327 0.5305059570991982 -0.08049946789079759 0
328 -0.1942763201862648 0.7114260664920823 0
329 0.302377842874254 -0.3404125887056648 0
330 0.6188718710373918 -0.121220934942523 0
331 -0.5982003603874709 0.6280030703694373 0
332 0.5492547267812613 -0.2731330396441107 0
333 -0.2343999458114791 -0.1774647343420507 0
334 -0.8747895313576036 0.27852457949552 0
335 -0.407771075400272 0.03103850300504048 0
336 -0.1952910368994552 0.8183851873505641 0
337 -0.2862724597151346 0.8533180728281241 0
338 0.1004148374165709 -0.9171212325118622 0
339 -0.6589945441481135 -0.1791975680440873 0
340 0.8363547228978657 0.1537030876358376 0
341 0.6387214033466969 -0.3137361177929945 0
342 0.4842890576464562 0.6565895791810414 0
343 -0.8183045326189579 -0.06701219429706311 0
344 0.4475559828425759 -0.7836282635852125 0
345 0.3546539519372907 -0.7442852029710828 0
346 0.6033242500842635 -0.6737507990619664 0
347 0.2811866584215477 -0.1452032112748126 0
348 -0.1803088354987586 -0.5074883166333399 0
349 0.2897515666347707 0.8609653097833051 0
350 0.4637370091369221 0.8042321305930693 0
351 -0.3384300877886915 -0.8646992464889437 0
352 0.8303152448998725 -0.3998587475527375 0
353 -0.8945977602965037 -0.190685982562464 0
354 -0.06991573903829915 0.9105475401470052 0
355 -0.1494812574654018 -0.8992352033079386 0
356 -0.7614454557560321 0.5191447214564249 0
357 -0.849214411048279 -0.3579738928686061 0
358 -0.5088202440238064 0.7629599214472715 0
359 0.861290614178068 0.3060439325139487 0
360 0.7858839487371255 0.4696695040532083 0
361 -0.5041100929654053 -0.7731273525625357 0
362 0.6616024974740021 0.6113503643211862 0
363 0.7326913356070969 0.3866477479768543 0
364 -0.4052640291419756 0.2509658338845798 0
365 -0.313350252739628 -0.2280653306086524 0
366 -0.7128983372796628 -0.5870514419604813 0
367 0.745177249905789 -0.5615908983763575 0
368 -0.916557113650237 -0.004964820502690421 0
369 0.7723389337388835 -0.3316444055282086 0
370 0.1782196887896007 0.2573291569714904 0
371 -0.7341783220236155 -0.117984921020814 0
372 0.360374922326245 0.08774601538860667 0
373 0.01066213740635486 0.3515825502388447 0
374 -0.06515704868898255 -0.8307752286678119 0
375 0.8958792802126806 -0.2337745769970138 0
376 -0.4300033214528369 -0.7239885499515131 0
377 -0.8191646150393412 -0.1507898166125139 0
378 -0.0957442548105243 -0.4578880052669704 0
379 -0.3876286563521422 0.138103319279555 0
380 0.6162992229775148 0.6983519164780629 0
381 0.5014545420619094 0.2977452674935794 0
382 -0.8593394178489807 0.3612812692908782 0
383 0.4221212099688825 0.2347626726574354 0
384 0.2971965974564634 -0.8867791228049386 0
385 -0.4419523834037432 0.7215395902131543 0
386 0.4963904119577183 0.3872254943413316 0
387 0.917510991362596 0.1278060923980253 0
388 0.2680608690859678 0.2308149407476353 0
389 0.5780505765702081 0.4463386647626205 0
390 0.6622922734515088 0.5028604390623411 0
391 -0.5039657605353921 0.4163929075819671 0
392 0.9378000531645941 0.04800441026298354 0
393 -0.01770648580535965 -0.4100277553140725 0
394 -0.4766234541410665 0.2881196803088646 0
395 -0.1089754411792537 0.8430564298576614 0
396 -0.3532524605698436 0.8058985248825765 0
397 -0.006734118180661563 -0.2615971196398119 0
398 -0.244612866489287 0.1009187832670591 0
399 -0.1048361481359033 0.2789360347062295 0
400 -0.4332176435864208 -0.1508567375043491 0
401 0.8222576984494799 0.2326410615526993 0
402 -0.5848524302856016 -0.7367728845268335 0
403 -0.5170238817390274 0.6762189515540313 0
404 0.8377833144043674 -0.05374377876623142 0
405 0.7155666170232561 0.4606131566999384 0
406 0.117173231571295 0.9347415587621422 0
407 0.7368374020429758 -0.412657709664079 0
408 -0.231650030853283 0.9021985078578958 0
409 0.700702144916573 -0.3513824161345815 0
410 -0.8156517706136442 -0.2236082269304464 0
411 -0.7816696916523095 -0.5329333720178829 0
412 -0.3788557687156018 -0.6694244070001848 0
413 -0.7275348595517944 -0.431591456504077 0
414 -0.7713585334301638 -0.3715871499119636 0
415 0.1519942971988185 0.8108343604637465 0
416 -0.4231932084498952 -0.0616850568138344 0
417 0.02398174467499422 -0.9411479528633974 0
418 -0.3255151455490738 0.05571325836736612 0
419 -0.3124835140955588 -0.7992180536937084 0
420 -0.58206101417898 0.4655211537738044 0
421 -0.659247922141167 0.6756797555082831 0
$EndNodes
$Elements
842
1 1 2 1 1 1 3
2 1 2 1 1 3 4
3 1 2 1 1 4 5
4 1 2 1 1 5 6
5 1 2 1 1 6 7
6 1 2 1 1 7 8
7 1 2 1 1 8 9
8 1 2 1 1 9 10
9 1 2 1 1 10 11
10 1 2 1 1 11 12
11 1 2 1 1 12 13
12 1 2 1 1 13 14
13 1 2 1 1 14 1
14 1 2 5 2 2 15
15 1 2 5 2 15 16
16 1 2 5 2 16 17
17 1 2 5 2 17 18
18 1 2 5 2 18 19
19 1 2 5 2 19 20
20 1 2 5 2 20 21
21 1 2 5 2 21 22
22 1 2 5 2 22 23
23 1 2 5 2 23 24
24 1 2 5 2 24 25
25 1 2 5 2 25 26
26 1 2 5 2 26 27
27 1 2 5 2 27 28
28 1 2 5 2 28 29
29 1 2 5 2 29 30
30 1 2 5 2 30 31
31 1 2 5 2 31 32
32 1 2 5 2 32 33
33 1 2 5 2 33 34
34 1 2 5 2 34 35
35 1 2 5 2 35 36
36 1 2 5 2 36 37
37 1 2 5 2 37 38
38 1 2 5 2 38 39
39 1 2 5 2 39 40
40 1 2 5 2 40 41
41 1 2 5 2 41 42
42 1 2 5 2 42 43
43 1 2 5 2 43 44
44 1 2 5 2 44 45
45 1 2 5 2 45 46
46 1 2 5 2 46 47
47 1 2 5 2 47 48
48 1 2 5 2 48 49
49 1 2 5 2 49 50
50 1 2 5 2 50 51
51 1 2 5 2 51 52
52 1 2 5 2 52 53
53 1 2 5 2 53 54
54 1 2 5 2 54 55
55 1 2 5 2 55 56
56 1 2 5 2 56 57
57 1 2 5 2 57 58
58 1 2 5 2 58 59
59 1 2 5 2 59 60
60 1 2 5 2 60 61
61 1 2 5 2 61 62
62 1 2 5 2 62 63
63 1 2 5 2 63 64
64 1 2 5 2 64 65
65 1 2 5 2 65 66
66 1 2 5 2 66 67
67 1 2 5 2 67 68
68 1 2 5 2 68 69
69 1 2 5 2 69 70
70 1 2 5 2 70 71
71 1 2 5 2 71 72
72 1 2 5 2 72 73
73 1 2 5 2 73 74
74 1 2 5 2 74 75
75 1 2 5 2 75 76
76 1 2 5 2 76 2
77 2 2 1 2 4 256 5
78 2 2 1 2 126 276 275
79 2 2 1 2 78 154 153
80 2 2 1 2 34 396 337
81 2 2 1 2 242 262 82
82 2 2 1 2 153 257 79
83 2 2 1 2 240 241 101
84 2 2 1 2 82 261 260
85 2 2 1 2 231 390 362
86 2 2 1 2 126 275 274
87 2 2 1 2 34 337 33
88 2 2 1 2 9 216 10
89 2 2 1 2 5 256 227
90 2 2 1 2 4 370 256
91 2 2 1 2 82 260 13
92 2 2 1 2 3 153 79
93 2 2 1 2 78 153 1
94 2 2 1 2 216 333 10
95 2 2 1 2 236 359 109
96 2 2 1 2 231 362 245
97 2 2 1 2 105 271 237
98 2 2 1 2 14 347 78
99 2 2 1 2 90 350 284
100 2 2 1 2 326 407 309
101 2 2 1 2 260 347 14
102 2 2 1 2 177 383 257
103 2 2 1 2 284 342 90
104 2 2 1 2 252 312 104
105 2 2 1 2 257 383 229
106 2 2 1 2 101 267 240
107 2 2 1 2 171 263 173
108 2 2 1 2 254 369 92
109 2 2 1 2 107 407 326
110 2 2 1 2 237 322 105
111 2 2 1 2 85 248 247
112 2 2 1 2 244 266 98
113 2 2 1 2 253 333 216
114 2 2 1 2 355 374 259
115 2 2 1 2 253 365 333
116 2 2 1 2 210 310 274
117 2 2 1 2 364 379 130
118 2 2 1 2 109 363 236
119 2 2 1 2 76 264 75
120 2 2 1 2 247 252 85
121 2 2 1 2 242 282 262
122 2 2 1 2 259 269 106
123 2 2 1 2 261 329 213
124 2 2 1 2 173 263 201
125 2 2 1 2 98 265 244
126 2 2 1 2 302 321 102
127 2 2 1 2 97 264 76
128 2 2 1 2 263 329 261
129 2 2 1 2 67 344 66
130 2 2 1 2 69 346 68
131 2 2 1 2 292 379 364
132 2 2 1 2 256 373 227
133 2 2 1 2 88 374 355
134 2 2 1 2 255 369 254
135 2 2 1 2 103 396 34
136 2 2 1 2 82 397 242
137 2 2 1 2 298 368 343
138 2 2 1 2 283 284 100
139 2 2 1 2 284 350 100
140 2 2 1 2 283 349 323
141 2 2 1 2 104 356 252
142 2 2 1 2 258 293 200
143 2 2 1 2 201 263 262
144 2 2 1 2 106 355 259
145 2 2 1 2 274 310 126
146 2 2 1 2 90 342 245
147 2 2 1 2 260 261 213
148 2 2 1 2 210 274 244
149 2 2 1 2 119 365 253
150 2 2 1 2 100 349 283
151 2 2 1 2 187 288 174
152 2 2 1 2 124 276 120
153 2 2 1 2 120 276 126
154 2 2 1 2 245 380 90
155 2 2 1 2 45 325 44
156 2 2 1 2 362 390 99
157 2 2 1 2 200 269 258
158 2 2 1 2 171 329 263
159 2 2 1 2 253 400 119
160 2 2 1 2 246 396 103
161 2 2 1 2 241 338 101
162 2 2 1 2 103 385 246
163 2 2 1 2 262 282 201
164 2 2 1 2 92 375 254
165 2 2 1 2 343 368 93
166 2 2 1 2 66 344 95
167 2 2 1 2 87 346 69
168 2 2 1 2 102 344 67
169 2 2 1 2 102 346 302
170 2 2 1 2 68 346 102
171 2 2 1 2 87 326 303
172 2 2 1 2 44 325 96
173 2 2 1 2 200 293 123
174 2 2 1 2 269 419 106
175 2 2 1 2 227 373 290
176 2 2 1 2 321 344 102
177 2 2 1 2 95 345 267
178 2 2 1 2 78 155 154
179 2 2 1 2 174 288 214
180 2 2 1 2 240 288 187
181 2 2 1 2 79 370 4
182 2 2 1 2 213 347 260
183 2 2 1 2 236 401 359
184 2 2 1 2 124 277 276
185 2 2 1 2 290 399 227
186 2 2 1 2 244 274 266
187 2 2 1 2 276 279 275
188 2 2 1 2 381 383 295
189 2 2 1 2 96 324 273
190 2 2 1 2 85 382 248
191 2 2 1 2 82 262 261
192 2 2 1 2 267 345 288
193 2 2 1 2 326 367 107
194 2 2 1 2 87 367 326
195 2 2 1 2 353 377 93
196 2 2 1 2 200 270 269
197 2 2 1 2 265 376 219
198 2 2 1 2 325 368 298
199 2 2 1 2 257 372 177
200 2 2 1 2 96 325 324
201 2 2 1 2 267 288 240
202 2 2 1 2 226 383 381
203 2 2 1 2 252 420 312
204 2 2 1 2 252 356 85
205 2 2 1 2 360 363 109
206 2 2 1 2 361 376 265
207 2 2 1 2 235 330 304
208 2 2 1 2 282 286 201
209 2 2 1 2 335 418 379
210 2 2 1 2 264 375 75
211 2 2 1 2 253 416 400
212 2 2 1 2 296 391 249
213 2 2 1 2 274 275 266
214 2 2 1 2 155 156 154
215 2 2 1 2 239 286 282
216 2 2 1 2 312 331 104
217 2 2 1 2 358 403 385
218 2 2 1 2 277 279 276
219 2 2 1 2 93 377 343
220 2 2 1 2 91 419 270
221 2 2 1 2 201 286 175
222 2 2 1 2 146 289 147
223 2 2 1 2 285 289 225
224 2 2 1 2 262 263 261
225 2 2 1 2 379 418 243
226 2 2 1 2 268 387 340
227 2 2 1 2 238 416 253
228 2 2 1 2 304 330 163
229 2 2 1 2 105 354 271
230 2 2 1 2 136 290 287
231 2 2 1 2 147 289 150
232 2 2 1 2 175 286 188
233 2 2 1 2 225 289 146
234 2 2 1 2 228 391 296
235 2 2 1 2 136 287 138
236 2 2 1 2 129 290 132
237 2 2 1 2 268 392 387
238 2 2 1 2 179 291 180
239 2 2 1 2 209 256 225
240 2 2 1 2 132 290 136
241 2 2 1 2 144 209 146
242 2 2 1 2 198 239 222
243 2 2 1 2 360 405 363
244 2 2 1 2 209 225 146
245 2 2 1 2 197 285 229
246 2 2 1 2 183 205 185
247 2 2 1 2 197 229 226
248 2 2 1 2 180 291 183
249 2 2 1 2 173 201 175
250 2 2 1 2 150 197 152
251 2 2 1 2 138 287 144
252 2 2 1 2 183 291 205
253 2 2 1 2 188 286 198
254 2 2 1 2 198 222 218
255 2 2 1 2 144 287 209
256 2 2 1 2 205 292 185
257 2 2 1 2 150 289 197
258 2 2 1 2 188 198 190
259 2 2 1 2 28 83 27
260 2 2 1 2 66 95 65
261 2 2 1 2 37 94 36
262 2 2 1 2 47 93 46
263 2 2 1 2 74 92 73
264 2 2 1 2 57 91 56
265 2 2 1 2 144 146 145
266 2 2 1 2 24 90 23
267 2 2 1 2 32 89 31
268 2 2 1 2 61 88 60
269 2 2 1 2 70 87 69
270 2 2 1 2 41 85 40
271 2 2 1 2 51 86 50
272 2 2 1 2 17 84 16
273 2 2 1 2 164 295 177
274 2 2 1 2 121 179 125
275 2 2 1 2 21 99 20
276 2 2 1 2 185 292 194
277 2 2 1 2 275 278 266
278 2 2 1 2 198 286 239
279 2 2 1 2 160 213 162
280 2 2 1 2 391 420 249
281 2 2 1 2 26 100 25
282 2 2 1 2 30 105 29
283 2 2 1 2 68 102 67
284 2 2 1 2 39 104 38
285 2 2 1 2 59 106 58
286 2 2 1 2 72 107 71
287 2 2 1 2 49 108 48
288 2 2 1 2 159 294 167
289 2 2 1 2 19 109 18
290 2 2 1 2 35 103 34
291 2 2 1 2 64 101 63
292 2 2 1 2 138 144 143
293 2 2 1 2 197 226 152
294 2 2 1 2 44 96 43
295 2 2 1 2 54 98 53
296 2 2 1 2 2 97 76
297 2 2 1 2 156 158 154
298 2 2 1 2 155 157 156
299 2 2 1 2 198 218 190
300 2 2 1 2 277 280 279
301 2 2 1 2 147 150 149
302 2 2 1 2 166 171 170
303 2 2 1 2 180 183 182
304 2 2 1 2 183 185 184
305 2 2 1 2 197 289 285
306 2 2 1 2 171 173 172
307 2 2 1 2 222 293 218
308 2 2 1 2 233 235 234
309 2 2 1 2 167 294 193
310 2 2 1 2 193 233 232
311 2 2 1 2 179 180 125
312 2 2 1 2 185 194 186
313 2 2 1 2 277 281 280
314 2 2 1 2 144 145 143
315 2 2 1 2 146 147 145
316 2 2 1 2 130 379 243
317 2 2 1 2 150 152 151
318 2 2 1 2 164 177 158
319 2 2 1 2 235 255 254
320 2 2 1 2 173 175 174
321 2 2 1 2 168 295 164
322 2 2 1 2 155 160 157
323 2 2 1 2 194 296 195
324 2 2 1 2 323 349 83
325 2 2 1 2 217 250 202
326 2 2 1 2 195 249 247
327 2 2 1 2 119 121 120
328 2 2 1 2 193 294 233
329 2 2 1 2 115 119 118
330 2 2 1 2 196 202 168
331 2 2 1 2 140 228 134
332 2 2 1 2 195 296 249
333 2 2 1 2 171 172 170
334 2 2 1 2 175 188 187
335 2 2 1 2 271 272 203
336 2 2 1 2 132 136 135
337 2 2 1 2 183 184 182
338 2 2 1 2 228 313 134
339 2 2 1 2 218 258 224
340 2 2 1 2 112 242 110
341 2 2 1 2 188 190 189
342 2 2 1 2 150 151 149
343 2 2 1 2 185 186 184
344 2 2 1 2 233 234 232
345 2 2 1 2 130 243 127
346 2 2 1 2 108 357 280
347 2 2 1 2 218 293 258
348 2 2 1 2 235 254 234
349 2 2 1 2 202 295 168
350 2 2 1 2 173 174 172
351 2 2 1 2 121 125 124
352 2 2 1 2 136 138 137
353 2 2 1 2 160 162 161
354 2 2 1 2 272 316 203
355 2 2 1 2 258 269 259
356 2 2 1 2 194 195 186
357 2 2 1 2 138 143 142
358 2 2 1 2 217 251 250
359 2 2 1 2 12 82 13
360 2 2 1 2 6 80 7
361 2 2 1 2 10 81 11
362 2 2 1 2 3 79 4
363 2 2 1 2 14 78 1
364 2 2 1 2 8 77 9
365 2 2 1 2 196 217 202
366 2 2 1 2 175 187 174
367 2 2 1 2 152 191 151
368 2 2 1 2 162 166 165
369 2 2 1 2 218 224 190
370 2 2 1 2 180 182 181
371 2 2 1 2 249 252 247
372 2 2 1 2 248 273 208
373 2 2 1 2 119 120 118
374 2 2 1 2 147 149 148
375 2 2 1 2 167 193 192
376 2 2 1 2 166 170 169
377 2 2 1 2 13 260 14
378 2 2 1 2 121 124 120
379 2 2 1 2 220 284 283
380 2 2 1 2 5 227 6
381 2 2 1 2 188 189 187
382 2 2 1 2 220 221 148
383 2 2 1 2 190 299 189
384 2 2 1 2 258 259 224
385 2 2 1 2 80 129 128
386 2 2 1 2 193 232 215
387 2 2 1 2 180 181 125
388 2 2 1 2 122 210 199
389 2 2 1 2 136 137 135
390 2 2 1 2 147 148 145
391 2 2 1 2 302 303 212
392 2 2 1 2 143 178 142
393 2 2 1 2 160 161 157
394 2 2 1 2 139 211 206
395 2 2 1 2 196 236 217
396 2 2 1 2 189 240 187
397 2 2 1 2 116 117 114
398 2 2 1 2 195 247 208
399 2 2 1 2 192 196 168
400 2 2 1 2 174 214 172
401 2 2 1 2 1 153 3
402 2 2 1 2 138 142 137
403 2 2 1 2 169 176 165
404 2 2 1 2 178 203 142
405 2 2 1 2 162 165 161
406 2 2 1 2 191 231 223
407 2 2 1 2 122 123 117
408 2 2 1 2 199 200 123
409 2 2 1 2 167 168 164
410 2 2 1 2 210 244 219
411 2 2 1 2 211 246 230
412 2 2 1 2 129 132 131
413 2 2 1 2 191 223 151
414 2 2 1 2 189 241 240
415 2 2 1 2 224 299 190
416 2 2 1 2 184 204 182
417 2 2 1 2 206 207 140
418 2 2 1 2 167 192 168
419 2 2 1 2 161 163 157
420 2 2 1 2 139 140 134
421 2 2 1 2 195 208 186
422 2 2 1 2 254 264 234
423 2 2 1 2 237 271 203
424 2 2 1 2 166 169 165
425 2 2 1 2 133 134 131
426 2 2 1 2 149 220 148
427 2 2 1 2 170 212 169
428 2 2 1 2 220 283 221
429 2 2 1 2 115 118 116
430 2 2 1 2 132 135 133
431 2 2 1 2 231 245 223
432 2 2 1 2 235 304 255
433 2 2 1 2 247 248 208
434 2 2 1 2 156 159 158
435 2 2 1 2 81 110 11
436 2 2 1 2 80 127 7
437 2 2 1 2 81 113 111
438 2 2 1 2 193 215 192
439 2 2 1 2 178 237 203
440 2 2 1 2 232 268 215
441 2 2 1 2 120 126 118
442 2 2 1 2 302 346 303
443 2 2 1 2 159 164 158
444 2 2 1 2 122 199 123
445 2 2 1 2 113 115 114
446 2 2 1 2 244 265 219
447 2 2 1 2 77 216 9
448 2 2 1 2 159 167 164
449 2 2 1 2 139 206 140
450 2 2 1 2 137 141 135
451 2 2 1 2 116 122 117
452 2 2 1 2 182 297 181
453 2 2 1 2 210 219 199
454 2 2 1 2 111 112 110
455 2 2 1 2 189 299 241
456 2 2 1 2 211 230 206
457 2 2 1 2 303 346 87
458 2 2 1 2 220 307 284
459 2 2 1 2 129 131 128
460 2 2 1 2 141 319 315
461 2 2 1 2 115 116 114
462 2 2 1 2 132 133 131
463 2 2 1 2 133 139 134
464 2 2 1 2 315 319 211
465 2 2 1 2 128 130 127
466 2 2 1 2 238 253 216
467 2 2 1 2 145 300 143
468 2 2 1 2 81 111 110
469 2 2 1 2 143 300 178
470 2 2 1 2 172 301 170
471 2 2 1 2 80 128 127
472 2 2 1 2 77 238 216
473 2 2 1 2 113 114 111
474 2 2 1 2 273 305 208
475 2 2 1 2 204 297 182
476 2 2 1 2 301 302 212
477 2 2 1 2 303 308 212
478 2 2 1 2 311 312 207
479 2 2 1 2 308 309 176
480 2 2 1 2 170 301 212
481 2 2 1 2 221 300 148
482 2 2 1 2 151 307 149
483 2 2 1 2 204 298 297
484 2 2 1 2 186 305 184
485 2 2 1 2 300 318 178
486 2 2 1 2 149 307 220
487 2 2 1 2 214 301 172
488 2 2 1 2 148 300 145
489 2 2 1 2 196 306 236
490 2 2 1 2 192 306 196
491 2 2 1 2 213 329 162
492 2 2 1 2 169 308 176
493 2 2 1 2 206 311 207
494 2 2 1 2 215 306 192
495 2 2 1 2 122 310 210
496 2 2 1 2 223 307 151
497 2 2 1 2 184 305 204
498 2 2 1 2 126 310 118
499 2 2 1 2 208 305 186
500 2 2 1 2 212 308 169
501 2 2 1 2 118 310 116
502 2 2 1 2 139 315 211
503 2 2 1 2 117 314 114
504 2 2 1 2 166 329 171
505 2 2 1 2 230 311 206
506 2 2 1 2 221 318 300
507 2 2 1 2 203 316 142
508 2 2 1 2 111 314 112
509 2 2 1 2 141 315 135
510 2 2 1 2 135 315 133
511 2 2 1 2 134 313 131
512 2 2 1 2 116 310 122
513 2 2 1 2 142 316 137
514 2 2 1 2 128 313 130
515 2 2 1 2 131 313 128
516 2 2 1 2 114 314 111
517 2 2 1 2 137 316 141
518 2 2 1 2 133 315 139
519 2 2 1 2 299 317 241
520 2 2 1 2 178 318 237
521 2 2 1 2 319 320 246
522 2 2 1 2 283 323 221
523 2 2 1 2 211 319 246
524 2 2 1 2 273 324 305
525 2 2 1 2 305 324 204
526 2 2 1 2 157 327 156
527 2 2 1 2 324 325 298
528 2 2 1 2 233 330 235
529 2 2 1 2 301 321 302
530 2 2 1 2 156 327 159
531 2 2 1 2 214 321 301
532 2 2 1 2 204 324 298
533 2 2 1 2 159 327 294
534 2 2 1 2 221 323 318
535 2 2 1 2 94 403 358
536 2 2 1 2 319 328 320
537 2 2 1 2 97 404 264
538 2 2 1 2 273 334 96
539 2 2 1 2 308 326 309
540 2 2 1 2 163 327 157
541 2 2 1 2 303 326 308
542 2 2 1 2 272 328 316
543 2 2 1 2 45 368 325
544 2 2 1 2 162 329 166
545 2 2 1 2 327 330 294
546 2 2 1 2 163 330 327
547 2 2 1 2 316 328 141
548 2 2 1 2 293 348 123
549 2 2 1 2 141 328 319
550 2 2 1 2 266 366 98
551 2 2 1 2 154 372 153
552 2 2 1 2 10 333 81
553 2 2 1 2 176 332 165
554 2 2 1 2 163 332 304
555 2 2 1 2 161 332 163
556 2 2 1 2 288 345 214
557 2 2 1 2 12 397 82
558 2 2 1 2 176 341 332
559 2 2 1 2 8 398 77
560 2 2 1 2 160 347 213
561 2 2 1 2 311 331 312
562 2 2 1 2 294 330 233
563 2 2 1 2 370 388 285
564 2 2 1 2 268 404 97
565 2 2 1 2 225 370 285
566 2 2 1 2 248 334 273
567 2 2 1 2 245 342 223
568 2 2 1 2 215 340 306
569 2 2 1 2 123 348 117
570 2 2 1 2 86 411 278
571 2 2 1 2 214 345 321
572 2 2 1 2 153 372 257
573 2 2 1 2 124 339 277
574 2 2 1 2 96 334 43
575 2 2 1 2 43 334 42
576 2 2 1 2 307 342 284
577 2 2 1 2 115 365 119
578 2 2 1 2 78 347 155
579 2 2 1 2 181 339 125
580 2 2 1 2 278 413 86
581 2 2 1 2 236 363 217
582 2 2 1 2 290 373 287
583 2 2 1 2 398 418 77
584 2 2 1 2 209 373 256
585 2 2 1 2 181 371 339
586 2 2 1 2 101 338 63
587 2 2 1 2 336 337 320
588 2 2 1 2 165 332 161
589 2 2 1 2 63 338 62
590 2 2 1 2 249 420 252
591 2 2 1 2 332 341 304
592 2 2 1 2 296 394 228
593 2 2 1 2 81 333 113
594 2 2 1 2 254 375 264
595 2 2 1 2 125 339 124
596 2 2 1 2 313 364 130
597 2 2 1 2 309 341 176
598 2 2 1 2 340 401 306
599 2 2 1 2 291 335 205
600 2 2 1 2 270 376 91
601 2 2 1 2 98 402 265
602 2 2 1 2 336 395 89
603 2 2 1 2 259 374 224
604 2 2 1 2 97 392 268
605 2 2 1 2 317 338 241
606 2 2 1 2 77 418 238
607 2 2 1 2 277 339 281
608 2 2 1 2 299 374 317
609 2 2 1 2 351 419 91
610 2 2 1 2 328 336 320
611 2 2 1 2 268 340 215
612 2 2 1 2 317 374 88
613 2 2 1 2 202 381 295
614 2 2 1 2 177 372 158
615 2 2 1 2 89 408 336
616 2 2 1 2 339 371 281
617 2 2 1 2 272 336 328
618 2 2 1 2 298 343 297
619 2 2 1 2 229 388 257
620 2 2 1 2 304 341 255
621 2 2 1 2 223 342 307
622 2 2 1 2 292 394 194
623 2 2 1 2 222 348 293
624 2 2 1 2 333 365 113
625 2 2 1 2 155 347 160
626 2 2 1 2 119 400 121
627 2 2 1 2 200 412 270
628 2 2 1 2 129 399 290
629 2 2 1 2 267 384 95
630 2 2 1 2 101 384 267
631 2 2 1 2 11 397 12
632 2 2 1 2 7 398 8
633 2 2 1 2 320 396 246
634 2 2 1 2 140 391 228
635 2 2 1 2 110 397 11
636 2 2 1 2 127 398 7
637 2 2 1 2 257 388 79
638 2 2 1 2 83 349 27
639 2 2 1 2 47 353 93
640 2 2 1 2 92 352 73
641 2 2 1 2 57 351 91
642 2 2 1 2 91 361 56
643 2 2 1 2 24 350 90
644 2 2 1 2 94 358 36
645 2 2 1 2 89 354 31
646 2 2 1 2 88 355 60
647 2 2 1 2 85 356 40
648 2 2 1 2 21 362 99
649 2 2 1 2 17 359 84
650 2 2 1 2 86 357 50
651 2 2 1 2 99 360 20
652 2 2 1 2 117 348 314
653 2 2 1 2 26 349 100
654 2 2 1 2 100 350 25
655 2 2 1 2 106 351 58
656 2 2 1 2 72 352 107
657 2 2 1 2 108 353 48
658 2 2 1 2 30 354 105
659 2 2 1 2 59 355 106
660 2 2 1 2 39 356 104
661 2 2 1 2 49 357 108
662 2 2 1 2 109 359 18
663 2 2 1 2 19 360 109
664 2 2 1 2 35 358 103
665 2 2 1 2 84 401 340
666 2 2 1 2 58 351 57
667 2 2 1 2 73 352 72
668 2 2 1 2 48 353 47
669 2 2 1 2 56 361 55
670 2 2 1 2 22 362 21
671 2 2 1 2 27 349 26
672 2 2 1 2 25 350 24
673 2 2 1 2 31 354 30
674 2 2 1 2 60 355 59
675 2 2 1 2 40 356 39
676 2 2 1 2 18 359 17
677 2 2 1 2 50 357 49
678 2 2 1 2 6 399 80
679 2 2 1 2 36 358 35
680 2 2 1 2 278 366 266
681 2 2 1 2 20 360 19
682 2 2 1 2 227 399 6
683 2 2 1 2 232 404 268
684 2 2 1 2 264 404 234
685 2 2 1 2 199 412 200
686 2 2 1 2 79 388 370
687 2 2 1 2 238 418 335
688 2 2 1 2 217 363 251
689 2 2 1 2 53 366 52
690 2 2 1 2 242 393 282
691 2 2 1 2 70 367 87
692 2 2 1 2 107 367 71
693 2 2 1 2 228 364 313
694 2 2 1 2 46 368 45
695 2 2 1 2 311 403 331
696 2 2 1 2 343 371 297
697 2 2 1 2 335 379 205
698 2 2 1 2 113 365 115
699 2 2 1 2 318 415 237
700 2 2 1 2 237 415 322
701 2 2 1 2 98 366 53
702 2 2 1 2 75 375 74
703 2 2 1 2 331 403 94
704 2 2 1 2 336 408 337
705 2 2 1 2 93 368 46
706 2 2 1 2 344 345 95
707 2 2 1 2 280 410 108
708 2 2 1 2 226 386 152
709 2 2 1 2 71 367 70
710 2 2 1 2 279 413 275
711 2 2 1 2 90 380 23
712 2 2 1 2 389 390 231
713 2 2 1 2 158 372 154
714 2 2 1 2 335 416 238
715 2 2 1 2 256 370 225
716 2 2 1 2 41 382 85
717 2 2 1 2 106 419 351
718 2 2 1 2 364 394 292
719 2 2 1 2 291 416 335
720 2 2 1 2 321 345 344
721 2 2 1 2 272 395 336
722 2 2 1 2 95 384 65
723 2 2 1 2 64 384 101
724 2 2 1 2 84 387 16
725 2 2 1 2 2 392 97
726 2 2 1 2 348 378 314
727 2 2 1 2 297 371 181
728 2 2 1 2 337 408 33
729 2 2 1 2 287 373 209
730 2 2 1 2 362 380 245
731 2 2 1 2 37 421 94
732 2 2 1 2 104 421 38
733 2 2 1 2 251 390 389
734 2 2 1 2 28 406 83
735 2 2 1 2 222 378 348
736 2 2 1 2 61 417 88
737 2 2 1 2 51 411 86
738 2 2 1 2 105 406 29
739 2 2 1 2 54 402 98
740 2 2 1 2 33 408 32
741 2 2 1 2 88 417 317
742 2 2 1 2 83 406 322
743 2 2 1 2 322 406 105
744 2 2 1 2 224 374 299
745 2 2 1 2 74 375 92
746 2 2 1 2 275 413 278
747 2 2 1 2 248 382 334
748 2 2 1 2 239 378 222
749 2 2 1 2 94 421 331
750 2 2 1 2 331 421 104
751 2 2 1 2 343 377 371
752 2 2 1 2 205 379 292
753 2 2 1 2 353 410 377
754 2 2 1 2 314 378 112
755 2 2 1 2 229 383 226
756 2 2 1 2 340 387 84
757 2 2 1 2 92 369 352
758 2 2 1 2 285 388 229
759 2 2 1 2 322 415 83
760 2 2 1 2 23 380 22
761 2 2 1 2 83 415 323
762 2 2 1 2 354 395 271
763 2 2 1 2 250 381 202
764 2 2 1 2 22 380 362
765 2 2 1 2 42 382 41
766 2 2 1 2 295 383 177
767 2 2 1 2 265 402 361
768 2 2 1 2 334 382 42
769 2 2 1 2 407 409 309
770 2 2 1 2 152 386 191
771 2 2 1 2 99 405 360
772 2 2 1 2 281 410 280
773 2 2 1 2 239 393 378
774 2 2 1 2 366 411 52
775 2 2 1 2 378 393 112
776 2 2 1 2 386 389 191
777 2 2 1 2 191 389 231
778 2 2 1 2 282 393 239
779 2 2 1 2 108 410 353
780 2 2 1 2 278 411 366
781 2 2 1 2 317 417 338
782 2 2 1 2 65 384 64
783 2 2 1 2 361 402 55
784 2 2 1 2 338 417 62
785 2 2 1 2 16 387 15
786 2 2 1 2 246 385 230
787 2 2 1 2 358 385 103
788 2 2 1 2 381 386 226
789 2 2 1 2 250 389 386
790 2 2 1 2 91 376 361
791 2 2 1 2 15 392 2
792 2 2 1 2 251 389 250
793 2 2 1 2 359 401 84
794 2 2 1 2 207 391 140
795 2 2 1 2 194 394 296
796 2 2 1 2 112 393 242
797 2 2 1 2 385 403 230
798 2 2 1 2 270 419 269
799 2 2 1 2 243 398 127
800 2 2 1 2 242 397 110
801 2 2 1 2 121 400 179
802 2 2 1 2 207 420 391
803 2 2 1 2 400 416 179
804 2 2 1 2 271 395 272
805 2 2 1 2 80 399 129
806 2 2 1 2 179 416 291
807 2 2 1 2 55 402 54
808 2 2 1 2 341 409 255
809 2 2 1 2 32 408 89
810 2 2 1 2 29 406 28
811 2 2 1 2 306 401 236
812 2 2 1 2 234 404 232
813 2 2 1 2 390 405 99
814 2 2 1 2 52 411 51
815 2 2 1 2 62 417 61
816 2 2 1 2 371 377 281
817 2 2 1 2 38 421 37
818 2 2 1 2 230 403 311
819 2 2 1 2 280 414 279
820 2 2 1 2 337 396 320
821 2 2 1 2 312 420 207
822 2 2 1 2 219 412 199
823 2 2 1 2 357 414 280
824 2 2 1 2 243 418 398
825 2 2 1 2 323 415 318
826 2 2 1 2 89 395 354
827 2 2 1 2 255 409 369
828 2 2 1 2 387 392 15
829 2 2 1 2 228 394 364
830 2 2 1 2 309 409 341
831 2 2 1 2 86 414 357
832 2 2 1 2 363 405 251
833 2 2 1 2 352 407 107
834 2 2 1 2 250 386 381
835 2 2 1 2 369 407 352
836 2 2 1 2 376 412 219
837 2 2 1 2 270 412 376
838 2 2 1 2 377 410 281
839 2 2 1 2 251 405 390
840 2 2 1 2 369 409 407
841 2 2 1 2 279 414 413
842 2 2 1 2 413 414 86
$EndElements
