$MeshFormat
2.2 0 8
$EndMeshFormat
$Nodes
319
1 3.061616997868383e-17 -7.498798913309288e-33 0.5
2 3.061616997868383e-17 -7.498798913309288e-33 -0.5
3 6.123233995736766e-17 -1.499759782661858e-32 1
4 6.123233995736766e-17 -1.499759782661858e-32 -1
5 0.2499999999999997 -6.123233995736757e-17 -0.4330127018922195
6 0.4330127018922192 -1.060575238724907e-16 -0.2500000000000002
7 0.5 -1.224646799147353e-16 -1.010643099614861e-15
8 0.4330127018922202 -1.060575238724909e-16 0.2499999999999985
9 0.2500000000000014 -6.123233995736801e-17 0.4330127018922185
10 0.2817325568414293 -6.900457479029124e-17 -0.9594929736144975
11 0.5406408174555971 -1.324188093170811e-16 -0.8412535328311814
12 0.7557495743542578 -1.851052594379833e-16 -0.6548607339452855
13 0.9096319953545183 -2.227955823025862e-16 -0.4154150130018864
14 0.9898214418809326 -2.424363321053804e-16 -0.1423148382732862
15 0.989821441880933 -2.424363321053805e-16 0.1423148382732831
16 0.9096319953545197 -2.227955823025865e-16 0.4154150130018835
17 0.755749574354261 -1.851052594379841e-16 0.6548607339452819
18 0.5406408174556006 -1.324188093170819e-16 0.8412535328311793
19 0.2817325568414315 -6.900457479029177e-17 0.9594929736144968
20 -0.2204866358983764 0.3300571246248502 0.3040525248614011
21 -0.1783017219931357 0.1873429588587417 0.4279148416453142
22 -0.3555941106933678 0.1886507629284145 0.296586780026892
23 0.003174066507000163 0.3365832962978711 0.3697318081462138
24 -0.002430935497963587 -0.4380519471031999 -0.2410489207436948
25 -0.009466194241918122 -0.3094916281083385 -0.3925879816008434
26 -0.2059149234196986 -0.3011531001829738 -0.3419149814840576
27 0.2310398310454895 -0.3507523363749832 -0.2712810258716269
28 -0.2459095916650172 -0.2660341348352741 0.3446074750053917
29 -0.1092249843575914 -0.1718010406216721 0.4566774630232966
30 -0.01644715139044535 -0.353203371414503 0.3535206778005615
31 -0.3103645496906958 -0.04112508071208136 0.3898494248190145
32 -0.1235374547147026 0.03302943272144064 0.483371031255197
33 0.0947278991567936 -0.1690325015510022 0.4609280188280495
34 0.1723901257428596 -0.2113666761705832 -0.4190534246978073
35 0.01921557235562187 -0.1297862411419505 -0.4824793191311824
36 0.0737504891497377 0.1190700341603996 -0.4799824916757023
37 0.3965323401506181 -0.3034108660440421 -0.02653204818853667
38 0.424187705419608 -0.1905146772765379 -0.1837632942485101
39 -0.1950843394893319 -0.1093025557898649 -0.4472080631918599
40 0.204506253035023 -0.4518609614391327 -0.06323657167239341
41 -0.2316833096698529 -0.3992253003231479 0.1922030270373372
42 0.0475538149727612 -0.4690239767684299 0.1665987511893884
43 -0.03992252401105278 -0.4945859763702466 -0.061570317966345
44 0.2140093465153579 -0.2952788488574835 0.3420678310240075
45 0.4063052920625173 -0.1894517154034546 0.2214137691578394
46 -0.3684017284244056 0.1190947403825846 -0.3163804818681382
47 -0.3586367407710949 0.3124391894347686 -0.154147465351952
48 -0.4802326131831732 0.113388374470726 -0.08074474453577211
49 -0.1652580585844969 0.3410401575546657 -0.3261615933980759
50 -0.1905754686843739 -0.4618825370930239 0.01858797095550289
51 0.346404090133392 0.2884581899954867 -0.2163240138389277
52 0.1825574668803722 0.4584225247298815 -0.08075617689380145
53 0.1339094190744555 0.3697568530566226 -0.3087849366481549
54 -0.02020739251001279 0.4703295655282118 -0.1684688727272484
55 -0.07047120365295928 0.4945579412987045 0.02112468115949356
56 0.1303565869722367 0.4391296485920717 0.2004303169691484
57 0.3648689908712161 0.3410948921588651 0.02291056620323049
58 -0.412099095573589 -0.2166917115455132 0.1822609052290315
59 -0.3939266972977473 -0.3045638563931169 -0.0454160162832661
60 -0.4876062692611844 -0.1094130183003338 0.01639870737589172
61 -0.4670402458621233 0.06301524733633362 0.1670403764010008
62 -0.3455940478234682 0.352906253477062 0.07760109770985228
63 0.2869447040523908 -0.3836528737705777 0.1430846227372567
64 0.2189077001675588 0.1936123269155734 -0.4057014735907269
65 0.2473362965891369 0.2316701750469388 0.3676325426064608
66 0.06157346554249538 0.1702938180006194 0.4660565672660981
67 0.4629941950833114 0.1742831457262587 -0.07253799304444751
68 0.4621078358332449 0.1695446451102678 0.08781207989763178
69 0.01035563241037437 0.248420261373569 -0.4337973427955373
70 0.3213790260868078 -0.1696492319444783 -0.3434161610817749
71 -0.2398930023677782 -0.4081592916889624 -0.1608021766735066
72 -0.3993668749760146 -0.1448561944615845 -0.2636717317006128
73 -0.155673739127745 0.1220964584336195 -0.4591929243618135
74 -0.09727412401182291 -0.03074804697794809 -0.4894816670773017
75 0.3595364869461536 0.2723840690545414 0.2157323190430888
76 -0.1102947016642536 0.4394485093405981 0.2114712425440386
77 -0.2110191686017772 0.4377925816270535 -0.1175098547141237
78 -0.8263092811641394 -0.278436062858148 0.4895777065615394
79 -0.9441921648917841 -0.2236851006653309 0.2417977077999432
80 -0.8687824734198861 -0.06594675381798676 0.4907830880738402
81 -0.9583259326305643 0.09036757000116935 0.2710075813327791
82 -0.04707485866687858 -0.2968935933407686 0.9537495226288187
83 -0.2908603289893392 -0.2889633177578846 0.9120857799629206
84 -0.1293268648012274 -0.1161414598204905 0.9847769916846405
85 0.9181625881348378 -0.2492484674327963 -0.3079815956058716
86 0.5778683989280124 -0.5289829564916201 -0.6214862389962953
87 0.5898761765280688 -0.6779693454550869 -0.4386384194160693
88 0.7783094163895767 -0.500292588561662 -0.3793965974934251
89 0.3425544348457136 -0.7710486463494673 -0.5367871497439073
90 -0.7496822928400423 -0.1804242843050162 0.636728778551056
91 -0.5344759869621994 -0.1587339924997891 0.8301439266692612
92 -0.6456958226526054 -0.4137289336030042 0.6417984684530621
93 -0.7287650495650045 0.06404469279211043 0.6817622605114489
94 -0.1188687657538836 -0.515834749015524 -0.8484012778374628
95 0.085303575955457 -0.6917353853060378 -0.7170951517370056
96 0.1698317190332372 -0.5335678587520851 -0.8285303418203407
97 -0.2081615996238139 -0.6777816007309341 -0.7051814306635333
98 -0.04368280778456338 0.9912040294934077 0.1249255146881086
99 -0.01799684893261206 0.9370831155255116 0.3486421489514679
100 -0.2343349363146995 0.9344488319318849 0.2681278018474059
101 0.2690727521221293 0.9440717097033371 0.1906002649610992
102 -0.4555674379946168 0.5325095940409893 -0.7133665549304381
103 -0.2917720474536997 0.4416112639979218 -0.8484388981151405
104 -0.1376806265445127 0.5751784215974632 -0.8063583746715608
105 -0.4412155561147924 0.2432648857060639 -0.8638003406023467
106 0.8723550865936496 0.4528441443942872 0.1841976758322214
107 0.9226270546823263 0.2392033579312774 0.3025575507612013
108 0.7734240193213112 0.4518538749411211 0.444570986499976
109 -0.1605609461377246 0.9396847689115955 -0.3020144328520079
110 0.04684495803037363 0.9303122628369815 -0.3637645440697422
111 -0.05561262368154248 0.9898119288038311 -0.1310709032733609
112 0.2596849524877135 0.9347673876284013 -0.2424327875470396
113 -0.05656872182287944 -0.9927856285604876 0.1057197967983451
114 -0.07078709655415524 -0.9351499024599698 0.3471078317908452
115 0.1560538886343138 -0.9462341417843358 0.2833516062487921
116 -0.3233748365195422 -0.9100613549189291 0.2592625028597121
117 -0.3802573820068191 -0.4674914771924273 -0.7980326072171251
118 -0.3047645375487053 -0.2638835168249841 -0.9151415552802759
119 -0.8101745924226487 -0.4507266059222826 0.3747834795005971
120 0.04288394141671534 -0.6578507703673341 0.7519264136174981
121 0.159438501789548 -0.4573102994217515 0.8748980821729422
122 0.2291355223583384 -0.6541953723653933 0.7207810535587598
123 -0.1455232731087693 -0.5195093706209094 0.8419815857967305
124 0.4213632310576895 -0.5185346000537301 0.7440261393659112
125 0.8102850131813033 0.4955423472692254 -0.3128513696257081
126 0.9273632354982081 0.2715711965078173 -0.2573839829391241
127 0.8974575863064062 0.4328176843319734 -0.08508074347693345
128 0.4503441394595201 0.4346955462569568 -0.7798909783545585
129 0.1542181102579514 0.460852583855238 -0.8739746394618194
130 0.3629074528113653 0.2331648487182083 -0.9021819849765244
131 0.7862463408379374 -0.2783857259686488 -0.5516503232083366
132 -0.1369663558999719 -0.7237518485129822 0.6763308946998677
133 0.1127555463307874 -0.836432981529601 0.5363450887079585
134 -0.3452359285140238 0.9255673880502661 -0.1553613975248289
135 -0.59848820367202 0.8009152014884197 0.01862015279751515
136 -0.5469269013516275 0.8150353271266358 -0.1912808932263875
137 0.8993001528412892 -0.4215737312675017 -0.1163392633844229
138 -0.2764483099295442 0.7369913752282008 -0.6167820075004977
139 -0.5422409208486171 0.7015125495037121 -0.462444511964458
140 0.7442151737014052 -0.6453207774627214 -0.172351006401169
141 -0.744227101325953 0.6292752979230001 -0.2239165493568733
142 0.1749824047140915 0.9841810242398856 -0.02772849737370287
143 0.4086144330586374 0.9118385057026407 -0.0398093533499786
144 -0.3422254266185892 0.8643744772044059 -0.3684270898472785
145 0.6123334687935797 -0.6051378530116115 0.5087788339226775
146 0.6126881560117802 -0.3926607182927331 0.6858795694527716
147 -0.01951558689510335 -0.3335040287098325 -0.9425466591646542
148 0.6023396570381342 0.2191384048874798 0.7675710371441551
149 0.3425599028731686 0.2163896531306151 0.9142364196210614
150 -0.8972772070627832 0.4282663949558582 -0.1071518018379716
151 -0.8292790209155506 0.5547552411684902 0.0674012452810495
152 0.1225383199656867 -0.2010523718350922 0.9718859521155097
153 0.6200268931676572 0.2137726271386993 -0.7548959634513097
154 0.8055729167674133 0.2818454073203399 -0.521167383997957
155 0.6677092651201701 0.489237228656818 -0.5610804499970381
156 0.8096743064001449 -0.2938825729753188 0.5079966051627222
157 0.9346538403292004 -0.2481914420978784 0.2546040196604388
158 0.4651622282118854 0.6670042282094493 -0.5820046915581272
159 0.08627172894242575 0.2099150902636163 -0.9739059727021405
160 0.2852878093833897 0.6334637264972598 -0.7192597396138836
161 -0.1511991128087375 0.3075274957941422 -0.9394496620982066
162 -0.1035094461711224 0.1002449698206001 -0.9895639143476355
163 0.5037811658830211 -0.8187116531588785 -0.275528158059027
164 0.4012905712651331 -0.1880092150427364 -0.8964476629858082
165 0.226847414669223 -0.2945388716435747 -0.9283248911608583
166 0.4116966722658149 -0.4262667529702384 -0.8054827778155558
167 -0.7667527250765874 -0.1151358869306594 -0.631533044367686
168 -0.5734656842389313 -0.2728838145232408 -0.7724451648962661
169 -0.6428902314768935 0.04500300318332599 -0.7646351286568436
170 -0.7443801158697598 -0.3503544467583501 -0.5684628437588277
171 -0.04312268647814569 0.7577239646711917 -0.6511488518563772
172 -0.1378195332907455 -0.1268851896068861 -0.982296251088207
173 -0.2865939399601644 0.04622714000137086 -0.9569362387878324
174 -0.4718750021162858 -0.04857018464158304 -0.8803265982245667
175 0.09510007046588596 0.6643311110648229 -0.7413637106500166
176 0.2057455876412968 0.8208604544842418 -0.5327821951135956
177 -0.405546066254755 -0.6387860200895076 0.6538232243378184
178 0.0802333387378749 -0.1531097979007841 -0.9849466996450896
179 -0.07433807870845745 -0.9193935956025473 -0.3862502639726669
180 0.02068573558130134 -0.8296965536394876 -0.5578312730765614
181 -0.2754855605704545 -0.8036141170268414 -0.5275528948194224
182 -0.2900607248945671 -0.9052237118977308 -0.3105395422353366
183 -0.4824802777855174 -0.749823306234575 -0.4527447304778494
184 -0.5463186603471893 -0.812357369800927 -0.2039887866687094
185 -0.6946178202989497 -0.5772235542009181 -0.4293239478514978
186 0.7116754909886596 0.6343701616841255 0.3018153301124827
187 0.2093049595782979 0.8569888121359518 0.4709157140824008
188 0.6342718839044992 0.4562637005235642 0.62411746720692
189 0.8122324959344837 0.2392639388119639 0.5320067106082627
190 0.1370591136910003 0.4028842692201849 0.9049304199600956
191 0.4008412424798065 0.4475154567463417 0.7994099163135007
192 -0.1333906851154646 0.1308642743659616 0.9823855998634636
193 0.4827229731911986 0.8027895085996117 0.350010765599922
194 -0.810607116658986 0.1620747879393928 -0.5627147283803808
195 -0.6322548806869763 0.3000101955802836 -0.7143162103686135
196 0.2182941673376629 -0.914095604865575 -0.3417263256932292
197 -0.4777842418059067 -0.8767041483019729 0.05578579238540231
198 -0.5850198979146934 -0.7751621621073339 0.2384855162917972
199 0.592305267237209 0.6272090544139621 0.505750207577023
200 -0.7124353106627457 -0.7016330698112579 0.01212284900951196
201 -0.7455533148963877 -0.6232118952002306 0.2361296007025478
202 -0.9998265395645685 -0.01708556074887243 -0.007414472080817079
203 -0.9539162514417594 0.276802302732321 0.1158631539247344
204 0.4274443705973548 -0.26195340687198 0.8652581826673436
205 0.6531201511011842 -0.1929247645425745 0.7322664156246403
206 0.3960086031150207 -0.8275300670465994 0.3979587596632856
207 0.3779474093743738 -0.9151160276223059 0.1404222622520039
208 0.6244016917117319 -0.739103192666533 0.2526835926166661
209 -0.9540475618158435 -0.2980625464403222 -0.03085398195946645
210 -0.8719681634268347 -0.478045937254948 0.1055632693888896
211 -0.8547942701006624 -0.4915576218498824 -0.1664267412538134
212 -0.9489792954081716 -0.216499333159767 -0.2292734952583623
213 -0.6837858006095153 0.383346305530845 0.6208724417468182
214 -0.5410241432223477 0.2039352697063012 0.8159064175629107
215 0.4488770815149604 0.6013769083677307 0.6609502097531111
216 -0.7144651708398564 0.6561839297362519 0.2428212717466584
217 -0.7146440490286652 0.4796780654244203 -0.5091098474186099
218 -0.8474383666538411 -0.3669055813836544 -0.3837036735198043
219 0.7810267324420934 0.6170166711733303 0.09637256199255578
220 0.5842843593748942 0.8067237608397324 0.08836606297933446
221 -0.4534457724526539 -0.7813361162863121 0.4288365712383201
222 -0.2180310290883577 -0.8357117120519943 0.5040321464884915
223 -0.09460606093544163 0.8712147849305576 -0.4816995866229094
224 0.7376440619878931 0.6662278714370631 -0.109643336023862
225 0.5275333817339934 0.8306142305389128 -0.1782933851340158
226 0.633646805071017 0.6870730672105595 -0.3555591747334984
227 0.436108746984583 0.8077603609316678 -0.3966514340212057
228 -0.5030004204613097 -0.5794348942538614 -0.6412844769185998
229 -0.8579785898834271 0.3879150027296046 -0.3367412804497497
230 -0.9638107722284546 0.2151448664610609 -0.1574213510672622
231 0.3868443559263996 0.7415401364317505 0.5481511382353137
232 -0.2843719682520004 -0.9558227513711499 -0.07440061581578561
233 -0.8820121064645674 -0.1410136049595388 -0.4496329695054087
234 -0.6389391297931472 -0.622438993450051 0.4520248752580583
235 -0.9514847858052152 0.07261052754344667 -0.2990057084255519
236 -0.4312995540288529 0.5094609808768735 0.7446007008178857
237 -0.2563290063932088 0.8498259774670298 0.460533656211658
238 -0.4974650632812679 0.8095609236265432 0.3116722986591887
239 -0.6700476517836024 0.6022778494920082 0.4339326403378318
240 -0.8499164370612583 0.394799744528508 0.3489630521034008
241 0.3892460252681351 -0.9154275006104283 -0.1023719831746102
242 -0.1387816268152674 0.5378042385802617 0.8315685546144784
243 0.1497283064087007 0.6611368103544372 0.7351731444050056
244 -0.07439084381856786 0.319021976646326 0.944823253721368
245 -0.3296115811472307 0.007901056395845183 0.9440835656240671
246 -0.3077333129077894 0.306068507321287 0.9009008141593146
247 0.9733158658898067 -0.2292929415286107 -0.008998453885686061
248 0.9048847281788819 -0.4091181963614063 0.1174986387777371
249 -0.05112704030664756 -0.9830064394529459 -0.1763075884456605
250 -0.4267569487959064 -0.4325168432501839 0.7942340253094827
251 0.7911065421521098 -0.6069500488461563 0.07590834716801909
252 0.8133026520793258 -0.5049935675329988 0.2889987765908876
253 0.6009593981660939 -0.7992144398923156 0.01020200095366188
254 0.1795379799983975 -0.9836273397640171 -0.01560032713945042
255 -0.3098364698847925 0.947812186150829 0.07518923934524441
256 -0.2041315619854102 0.7061617114548558 0.6779866832590044
257 -0.4764750919950184 0.6722415785450419 0.5666239906530689
258 -0.04304450010028957 0.8302190769561393 0.5557728450268261
259 0.9693157490522673 0.2436773461041971 0.0323779189395681
260 0.5859709989978982 -0.2577289412843309 -0.7682537218639837
261 -0.8616080410216193 0.1647146861552004 0.4801048383547926
262 0.3377660043954767 -0.6253783523459977 -0.703431619058825
263 0.3761041323494889 -0.7103302736624016 0.5949593128511695
264 0.1198353473652266 0.2104509976686452 0.9702318625473642
265 -0.718083450759248 -0.6710832255581468 -0.1844002768982852
266 0.07626076635431517 0.0898201470518242 0.9930340561625474
267 -0.5732493824572555 -0.1267499240420572 0.4158765170580465
268 0.02286114324515726 -0.3756096428816282 0.6349799582841745
269 0.4210024049562687 0.4080874564780231 -0.441625353468856
270 0.1275031542982263 0.4728607258323682 -0.5465153750702888
271 0.7417383919025506 0.1074974713329577 0.06657866350484885
272 0.2409935959039022 0.6144225674655976 -0.327900607057916
273 0.6225013035190546 0.406147838755372 -0.06239492497611536
274 -0.3267763062087173 0.05192777162003799 0.665091672261282
275 -0.09873666559800162 -0.07749905715498395 0.6734898648671124
276 0.02634403076357714 0.1776345139107433 0.7303855377584845
277 0.654948336593252 0.1815198222802332 -0.2723406267798099
278 -0.4952241938155866 -0.07523229812706776 -0.5661315888619017
279 -0.6531887671463981 -0.02098891566102781 -0.3321700665147983
280 0.01029643730978782 0.7403538584298452 -0.076331405742548
281 -0.08095557078201381 0.602193353124878 -0.4003668849111466
282 -0.2592920623137241 0.3482330567558139 -0.5791316591725916
283 0.5344809225240467 -0.4251116601288232 0.2928225724695626
284 -0.638820134371858 0.2050174224767235 0.3264138271021951
285 0.265766092452956 -0.1091005234749939 0.6893255208330622
286 0.6040729821170694 0.2818503588005556 0.3203825368850506
287 0.1615981932792064 -0.5663929623624733 -0.4470227829335263
288 -0.504663581741805 -0.4629003364182241 0.2633542459500057
289 -0.5178415611055421 -0.4951944253442797 -0.2079396796654322
290 -0.682555995605884 -0.2813733329648941 -0.1104121654145469
291 0.4494949432862371 -0.1669357278099797 -0.5539955636471199
292 -0.08763104676471654 0.5744685988920806 0.4492758440004532
293 0.2010232913704194 0.4881866739702427 0.4996843833296231
294 -0.4631655836816957 -0.3439496589141924 -0.4538335084655244
295 -0.367083508966306 -0.651273092897765 0.1451589768689976
296 -0.2096912312447108 -0.5719252292022643 0.4096716659076894
297 -0.7365407358393565 0.006753976818042395 0.1109458863063956
298 0.384351510963318 0.5873894260024615 0.1623048859925117
299 0.08305613089975286 0.2614116505289735 -0.7042829715977714
300 0.2289416967138464 -0.08043539271003815 -0.6768408140000131
301 -0.1831375656117084 -0.5541594699244855 -0.4699362062111626
302 -0.04633941253235151 -0.6810069935232039 -0.2755549986654321
303 0.4226204211394666 -0.5217350181262028 -0.2436928314637818
304 0.3710707275339766 0.1673895554645485 -0.631448594891549
305 -0.4120687885222286 0.6107349746642214 -0.111847528355359
306 -0.4344087476591189 0.5242358102989134 0.2855384193161742
307 -0.3783961532831304 -0.229853774032341 0.5904216959373664
308 -0.6447440701259097 0.3103135184887095 -0.168723207082127
309 -0.09440652675587123 0.3635206405797178 0.6070173977112447
310 -0.05877341432564208 -0.03940830914620853 -0.7429444795413771
311 0.2628119397136274 0.2652540851102475 0.6413931195924273
312 0.03247762280173346 -0.7315390778209707 0.04756688403762751
313 -0.1792944011006096 0.6989952890233833 0.1462009787944846
314 0.6787576992125467 -0.2849937606286343 -0.08353808037802804
315 -0.2540978142510263 0.02008858256302029 -0.6989086853088364
316 -0.2512252910496799 -0.6827720730127167 -0.1317885909422815
317 -0.09061586776220809 -0.2260628628127636 -0.6572783934502899
318 0.3698716136723371 -0.6412783865573284 0.0585501145608253
319 0.5115104504503767 0.05542884127378558 0.5277340059566156
$EndNodes
$Elements
1606
1 2 2 1 1 20 22 21
2 2 2 1 1 20 21 23
3 2 2 1 1 24 26 25
4 2 2 1 1 24 25 27
5 2 2 1 1 28 30 29
6 2 2 1 1 28 29 31
7 2 2 1 1 32 29 1
8 2 2 1 1 1 29 33
9 2 2 1 1 34 25 35
10 2 2 1 1 36 5 2
11 2 2 1 1 27 38 37
12 2 2 1 1 35 25 39
13 2 2 1 1 37 40 27
14 2 2 1 1 28 41 30
15 2 2 1 1 30 41 42
16 2 2 1 1 43 40 42
17 2 2 1 1 44 45 9
18 2 2 1 1 46 48 47
19 2 2 1 1 46 47 49
20 2 2 1 1 43 42 50
21 2 2 1 1 51 53 52
22 2 2 1 1 52 53 54
23 2 2 1 1 55 56 52
24 2 2 1 1 52 56 57
25 2 2 1 1 58 60 59
26 2 2 1 1 50 41 59
27 2 2 1 1 48 60 61
28 2 2 1 1 48 61 62
29 2 2 1 1 59 41 58
30 2 2 1 1 50 42 41
31 2 2 1 1 45 44 63
32 2 2 1 1 30 42 44
33 2 2 1 1 42 63 44
34 2 2 1 1 45 8 9
35 2 2 1 1 64 53 51
36 2 2 1 1 38 6 7
37 2 2 1 1 9 8 65
38 2 2 1 1 21 31 32
39 2 2 1 1 29 32 31
40 2 2 1 1 6 64 51
41 2 2 1 1 65 23 66
42 2 2 1 1 52 57 51
43 2 2 1 1 52 54 55
44 2 2 1 1 39 25 26
45 2 2 1 1 57 68 67
46 2 2 1 1 68 7 67
47 2 2 1 1 5 35 2
48 2 2 1 1 21 66 23
49 2 2 1 1 69 64 36
50 2 2 1 1 70 5 6
51 2 2 1 1 65 66 9
52 2 2 1 1 70 6 38
53 2 2 1 1 70 34 5
54 2 2 1 1 43 50 71
55 2 2 1 1 5 34 35
56 2 2 1 1 38 27 70
57 2 2 1 1 63 37 45
58 2 2 1 1 43 24 40
59 2 2 1 1 24 43 71
60 2 2 1 1 33 9 1
61 2 2 1 1 59 72 71
62 2 2 1 1 50 59 71
63 2 2 1 1 72 59 60
64 2 2 1 1 44 9 33
65 2 2 1 1 27 40 24
66 2 2 1 1 27 25 34
67 2 2 1 1 34 70 27
68 2 2 1 1 37 7 45
69 2 2 1 1 2 74 73
70 2 2 1 1 73 49 69
71 2 2 1 1 49 73 46
72 2 2 1 1 73 39 46
73 2 2 1 1 5 36 64
74 2 2 1 1 66 1 9
75 2 2 1 1 31 21 22
76 2 2 1 1 6 5 64
77 2 2 1 1 69 36 73
78 2 2 1 1 22 62 61
79 2 2 1 1 24 71 26
80 2 2 1 1 53 49 54
81 2 2 1 1 49 53 69
82 2 2 1 1 31 22 61
83 2 2 1 1 71 72 26
84 2 2 1 1 72 46 39
85 2 2 1 1 46 72 48
86 2 2 1 1 39 74 35
87 2 2 1 1 26 72 39
88 2 2 1 1 8 75 65
89 2 2 1 1 56 75 57
90 2 2 1 1 75 56 65
91 2 2 1 1 58 41 28
92 2 2 1 1 36 2 73
93 2 2 1 1 32 66 21
94 2 2 1 1 29 30 33
95 2 2 1 1 6 67 7
96 2 2 1 1 63 42 40
97 2 2 1 1 57 67 51
98 2 2 1 1 40 37 63
99 2 2 1 1 67 6 51
100 2 2 1 1 8 68 75
101 2 2 1 1 62 20 76
102 2 2 1 1 38 7 37
103 2 2 1 1 45 7 8
104 2 2 1 1 47 62 77
105 2 2 1 1 49 47 77
106 2 2 1 1 48 72 60
107 2 2 1 1 62 47 48
108 2 2 1 1 23 65 56
109 2 2 1 1 20 23 76
110 2 2 1 1 33 30 44
111 2 2 1 1 1 66 32
112 2 2 1 1 64 69 53
113 2 2 1 1 58 28 31
114 2 2 1 1 62 76 55
115 2 2 1 1 68 8 7
116 2 2 1 1 61 58 31
117 2 2 1 1 58 61 60
118 2 2 1 1 56 76 23
119 2 2 1 1 68 57 75
120 2 2 1 1 54 77 55
121 2 2 1 1 77 54 49
122 2 2 1 1 77 62 55
123 2 2 1 1 20 62 22
124 2 2 1 1 76 56 55
125 2 2 1 1 74 2 35
126 2 2 1 1 74 39 73
127 2 2 5 2 78 80 79
128 2 2 5 2 81 79 80
129 2 2 5 2 82 84 83
130 2 2 5 2 85 13 14
131 2 2 5 2 86 88 87
132 2 2 5 2 86 87 89
133 2 2 5 2 90 92 91
134 2 2 5 2 90 91 93
135 2 2 5 2 94 96 95
136 2 2 5 2 94 95 97
137 2 2 5 2 98 100 99
138 2 2 5 2 98 99 101
139 2 2 5 2 102 104 103
140 2 2 5 2 102 103 105
141 2 2 5 2 106 108 107
142 2 2 5 2 109 111 110
143 2 2 5 2 110 111 112
144 2 2 5 2 113 115 114
145 2 2 5 2 113 114 116
146 2 2 5 2 117 118 94
147 2 2 5 2 78 79 119
148 2 2 5 2 120 122 121
149 2 2 5 2 121 123 120
150 2 2 5 2 122 124 121
151 2 2 5 2 125 127 126
152 2 2 5 2 128 130 129
153 2 2 5 2 85 88 131
154 2 2 5 2 132 133 120
155 2 2 5 2 120 133 122
156 2 2 5 2 134 136 135
157 2 2 5 2 88 85 137
158 2 2 5 2 138 102 139
159 2 2 5 2 137 140 88
160 2 2 5 2 141 136 139
161 2 2 5 2 101 143 142
162 2 2 5 2 144 139 136
163 2 2 5 2 145 146 124
164 2 2 5 2 118 147 94
165 2 2 5 2 148 149 18
166 2 2 5 2 150 151 141
167 2 2 5 2 135 136 141
168 2 2 5 2 152 82 121
169 2 2 5 2 151 135 141
170 2 2 5 2 153 155 154
171 2 2 5 2 128 153 130
172 2 2 5 2 156 157 16
173 2 2 5 2 155 128 158
174 2 2 5 2 129 130 159
175 2 2 5 2 158 128 160
176 2 2 5 2 159 161 129
177 2 2 5 2 161 159 162
178 2 2 5 2 130 153 11
179 2 2 5 2 159 130 10
180 2 2 5 2 87 140 163
181 2 2 5 2 130 11 10
182 2 2 5 2 84 82 152
183 2 2 5 2 164 166 165
184 2 2 5 2 167 169 168
185 2 2 5 2 167 168 170
186 2 2 5 2 84 152 3
187 2 2 5 2 171 104 138
188 2 2 5 2 138 104 102
189 2 2 5 2 172 118 173
190 2 2 5 2 118 174 173
191 2 2 5 2 175 171 176
192 2 2 5 2 175 176 160
193 2 2 5 2 120 123 132
194 2 2 5 2 132 123 177
195 2 2 5 2 165 147 178
196 2 2 5 2 178 147 172
197 2 2 5 2 178 172 4
198 2 2 5 2 179 181 180
199 2 2 5 2 179 182 181
200 2 2 5 2 181 182 183
201 2 2 5 2 184 185 183
202 2 2 5 2 183 182 184
203 2 2 5 2 174 105 173
204 2 2 5 2 105 103 161
205 2 2 5 2 161 173 105
206 2 2 5 2 108 106 186
207 2 2 5 2 19 18 149
208 2 2 5 2 99 187 101
209 2 2 5 2 188 148 189
210 2 2 5 2 149 191 190
211 2 2 5 2 148 191 149
212 2 2 5 2 152 19 3
213 2 2 5 2 3 192 84
214 2 2 5 2 187 193 101
215 2 2 5 2 167 194 169
216 2 2 5 2 195 169 194
217 2 2 5 2 89 163 196
218 2 2 5 2 87 163 89
219 2 2 5 2 179 180 196
220 2 2 5 2 196 180 89
221 2 2 5 2 117 168 118
222 2 2 5 2 168 169 174
223 2 2 5 2 10 178 4
224 2 2 5 2 174 118 168
225 2 2 5 2 116 198 197
226 2 2 5 2 189 148 17
227 2 2 5 2 108 186 199
228 2 2 5 2 198 201 200
229 2 2 5 2 200 197 198
230 2 2 5 2 79 81 202
231 2 2 5 2 81 203 202
232 2 2 5 2 204 152 121
233 2 2 5 2 19 152 204
234 2 2 5 2 204 205 18
235 2 2 5 2 108 199 188
236 2 2 5 2 18 19 204
237 2 2 5 2 206 115 207
238 2 2 5 2 188 189 108
239 2 2 5 2 207 208 206
240 2 2 5 2 209 211 210
241 2 2 5 2 211 209 212
242 2 2 5 2 210 211 200
243 2 2 5 2 213 93 214
244 2 2 5 2 91 214 93
245 2 2 5 2 188 199 215
246 2 2 5 2 151 216 135
247 2 2 5 2 139 217 141
248 2 2 5 2 218 185 211
249 2 2 5 2 219 220 186
250 2 2 5 2 221 116 222
251 2 2 5 2 198 116 221
252 2 2 5 2 107 189 16
253 2 2 5 2 17 148 18
254 2 2 5 2 108 189 107
255 2 2 5 2 15 107 16
256 2 2 5 2 186 220 193
257 2 2 5 2 109 110 223
258 2 2 5 2 144 223 138
259 2 2 5 2 144 109 223
260 2 2 5 2 224 226 225
261 2 2 5 2 227 225 226
262 2 2 5 2 227 112 225
263 2 2 5 2 228 185 170
264 2 2 5 2 150 141 229
265 2 2 5 2 230 150 229
266 2 2 5 2 229 141 217
267 2 2 5 2 146 145 156
268 2 2 5 2 146 156 205
269 2 2 5 2 205 156 17
270 2 2 5 2 199 231 215
271 2 2 5 2 150 230 203
272 2 2 5 2 230 202 203
273 2 2 5 2 232 197 184
274 2 2 5 2 197 200 184
275 2 2 5 2 159 4 162
276 2 2 5 2 159 10 4
277 2 2 5 2 156 16 17
278 2 2 5 2 233 167 170
279 2 2 5 2 234 198 221
280 2 2 5 2 125 226 224
281 2 2 5 2 233 235 194
282 2 2 5 2 235 229 194
283 2 2 5 2 210 200 201
284 2 2 5 2 119 210 201
285 2 2 5 2 143 220 225
286 2 2 5 2 131 88 86
287 2 2 5 2 236 213 214
288 2 2 5 2 100 238 237
289 2 2 5 2 99 100 237
290 2 2 5 2 225 220 224
291 2 2 5 2 239 238 216
292 2 2 5 2 239 216 240
293 2 2 5 2 138 139 144
294 2 2 5 2 241 196 163
295 2 2 5 2 242 190 243
296 2 2 5 2 244 190 242
297 2 2 5 2 214 91 245
298 2 2 5 2 214 245 246
299 2 2 5 2 245 192 246
300 2 2 5 2 224 220 219
301 2 2 5 2 109 144 134
302 2 2 5 2 244 246 192
303 2 2 5 2 136 134 144
304 2 2 5 2 109 134 111
305 2 2 5 2 247 248 137
306 2 2 5 2 231 199 193
307 2 2 5 2 231 193 187
308 2 2 5 2 113 232 249
309 2 2 5 2 171 175 104
310 2 2 5 2 220 143 101
311 2 2 5 2 92 177 250
312 2 2 5 2 177 92 234
313 2 2 5 2 177 222 132
314 2 2 5 2 234 221 177
315 2 2 5 2 222 177 221
316 2 2 5 2 183 185 228
317 2 2 5 2 228 181 183
318 2 2 5 2 82 123 121
319 2 2 5 2 225 112 143
320 2 2 5 2 137 248 251
321 2 2 5 2 137 251 140
322 2 2 5 2 158 227 226
323 2 2 5 2 143 112 142
324 2 2 5 2 219 127 224
325 2 2 5 2 158 226 155
326 2 2 5 2 158 176 227
327 2 2 5 2 153 128 155
328 2 2 5 2 206 208 145
329 2 2 5 2 252 145 208
330 2 2 5 2 235 233 212
331 2 2 5 2 212 233 218
332 2 2 5 2 241 253 207
333 2 2 5 2 249 196 254
334 2 2 5 2 210 79 209
335 2 2 5 2 182 232 184
336 2 2 5 2 79 210 119
337 2 2 5 2 209 79 202
338 2 2 5 2 243 191 215
339 2 2 5 2 189 17 16
340 2 2 5 2 213 239 240
341 2 2 5 2 103 104 161
342 2 2 5 2 172 173 162
343 2 2 5 2 173 161 162
344 2 2 5 2 161 104 129
345 2 2 5 2 243 215 231
346 2 2 5 2 207 115 254
347 2 2 5 2 115 113 254
348 2 2 5 2 135 255 134
349 2 2 5 2 165 10 164
350 2 2 5 2 10 165 178
351 2 2 5 2 164 10 11
352 2 2 5 2 230 235 202
353 2 2 5 2 235 212 202
354 2 2 5 2 254 196 241
355 2 2 5 2 243 190 191
356 2 2 5 2 242 243 256
357 2 2 5 2 252 157 156
358 2 2 5 2 157 252 248
359 2 2 5 2 93 80 90
360 2 2 5 2 80 78 90
361 2 2 5 2 156 145 252
362 2 2 5 2 257 256 237
363 2 2 5 2 197 232 116
364 2 2 5 2 257 236 256
365 2 2 5 2 187 258 243
366 2 2 5 2 170 185 218
367 2 2 5 2 256 243 258
368 2 2 5 2 187 243 231
369 2 2 5 2 11 153 12
370 2 2 5 2 232 113 116
371 2 2 5 2 100 255 238
372 2 2 5 2 147 118 172
373 2 2 5 2 13 85 131
374 2 2 5 2 238 255 135
375 2 2 5 2 216 238 135
376 2 2 5 2 13 131 12
377 2 2 5 2 151 240 216
378 2 2 5 2 106 259 127
379 2 2 5 2 259 106 107
380 2 2 5 2 87 88 140
381 2 2 5 2 15 259 107
382 2 2 5 2 154 155 125
383 2 2 5 2 194 167 233
384 2 2 5 2 204 121 124
385 2 2 5 2 125 155 226
386 2 2 5 2 192 245 84
387 2 2 5 2 174 169 105
388 2 2 5 2 217 195 194
389 2 2 5 2 217 102 195
390 2 2 5 2 129 175 160
391 2 2 5 2 104 175 129
392 2 2 5 2 160 128 129
393 2 2 5 2 116 114 222
394 2 2 5 2 222 114 133
395 2 2 5 2 206 133 115
396 2 2 5 2 115 133 114
397 2 2 5 2 214 246 236
398 2 2 5 2 246 242 236
399 2 2 5 2 260 164 11
400 2 2 5 2 12 260 11
401 2 2 5 2 82 83 123
402 2 2 5 2 250 123 83
403 2 2 5 2 91 92 250
404 2 2 5 2 125 126 154
405 2 2 5 2 106 127 219
406 2 2 5 2 237 258 99
407 2 2 5 2 237 256 258
408 2 2 5 2 140 253 163
409 2 2 5 2 91 83 245
410 2 2 5 2 244 242 246
411 2 2 5 2 245 83 84
412 2 2 5 2 253 241 163
413 2 2 5 2 233 170 218
414 2 2 5 2 101 142 98
415 2 2 5 2 102 217 139
416 2 2 5 2 137 85 247
417 2 2 5 2 157 15 16
418 2 2 5 2 110 176 223
419 2 2 5 2 142 111 98
420 2 2 5 2 85 14 247
421 2 2 5 2 117 228 168
422 2 2 5 2 168 228 170
423 2 2 5 2 261 240 81
424 2 2 5 2 240 261 213
425 2 2 5 2 230 229 235
426 2 2 5 2 153 154 12
427 2 2 5 2 154 13 12
428 2 2 5 2 177 123 250
429 2 2 5 2 238 257 237
430 2 2 5 2 239 257 238
431 2 2 5 2 89 180 95
432 2 2 5 2 95 96 262
433 2 2 5 2 95 262 89
434 2 2 5 2 262 86 89
435 2 2 5 2 166 260 86
436 2 2 5 2 131 86 260
437 2 2 5 2 92 119 234
438 2 2 5 2 119 92 78
439 2 2 5 2 180 97 95
440 2 2 5 2 97 117 94
441 2 2 5 2 263 145 124
442 2 2 5 2 112 227 176
443 2 2 5 2 239 213 257
444 2 2 5 2 93 261 80
445 2 2 5 2 93 213 261
446 2 2 5 2 251 253 140
447 2 2 5 2 264 190 244
448 2 2 5 2 205 17 18
449 2 2 5 2 97 180 181
450 2 2 5 2 181 228 97
451 2 2 5 2 97 228 117
452 2 2 5 2 124 146 204
453 2 2 5 2 122 263 124
454 2 2 5 2 127 259 126
455 2 2 5 2 223 176 171
456 2 2 5 2 138 223 171
457 2 2 5 2 256 236 242
458 2 2 5 2 259 14 126
459 2 2 5 2 126 13 154
460 2 2 5 2 229 217 194
461 2 2 5 2 149 190 264
462 2 2 5 2 264 244 192
463 2 2 5 2 191 188 215
464 2 2 5 2 182 249 232
465 2 2 5 2 258 187 99
466 2 2 5 2 205 204 146
467 2 2 5 2 149 264 19
468 2 2 5 2 96 147 165
469 2 2 5 2 165 166 96
470 2 2 5 2 147 96 94
471 2 2 5 2 91 250 83
472 2 2 5 2 98 255 100
473 2 2 5 2 12 131 260
474 2 2 5 2 248 247 157
475 2 2 5 2 179 196 249
476 2 2 5 2 247 15 157
477 2 2 5 2 249 182 179
478 2 2 5 2 126 14 13
479 2 2 5 2 4 172 162
480 2 2 5 2 92 90 78
481 2 2 5 2 248 252 251
482 2 2 5 2 252 208 251
483 2 2 5 2 201 198 234
484 2 2 5 2 119 201 234
485 2 2 5 2 262 96 166
486 2 2 5 2 86 262 166
487 2 2 5 2 254 113 249
488 2 2 5 2 254 241 207
489 2 2 5 2 176 158 160
490 2 2 5 2 15 247 14
491 2 2 5 2 255 98 111
492 2 2 5 2 263 133 206
493 2 2 5 2 145 263 206
494 2 2 5 2 151 203 240
495 2 2 5 2 203 151 150
496 2 2 5 2 80 261 81
497 2 2 5 2 133 263 122
498 2 2 5 2 169 195 105
499 2 2 5 2 195 102 105
500 2 2 5 2 211 212 218
501 2 2 5 2 208 207 253
502 2 2 5 2 260 166 164
503 2 2 5 2 257 213 236
504 2 2 5 2 222 133 132
505 2 2 5 2 186 106 219
506 2 2 5 2 186 193 199
507 2 2 5 2 220 101 193
508 2 2 5 2 253 251 208
509 2 2 5 2 81 240 203
510 2 2 5 2 110 112 176
511 2 2 5 2 188 191 148
512 2 2 5 2 111 134 255
513 2 2 5 2 209 202 212
514 2 2 5 2 259 15 14
515 2 2 5 2 224 127 125
516 2 2 5 2 184 265 185
517 2 2 5 2 211 265 200
518 2 2 5 2 265 211 185
519 2 2 5 2 265 184 200
520 2 2 5 2 111 142 112
521 2 2 5 2 3 266 192
522 2 2 5 2 264 266 19
523 2 2 5 2 266 3 19
524 2 2 5 2 266 264 192
525 4 2 1 2 267 90 78 92
526 4 2 1 2 268 133 30 122
527 4 2 1 2 269 53 270 64
528 4 2 1 2 271 247 14 15
529 4 2 1 2 272 273 52 51
530 4 2 1 2 274 275 276 192
531 4 2 1 2 271 273 277 67
532 4 2 1 2 153 277 154 269
533 4 2 1 2 268 29 30 28
534 4 2 1 2 270 171 175 104
535 4 2 1 2 278 46 279 72
536 4 2 1 2 272 280 112 110
537 4 2 1 2 281 282 69 49
538 4 2 1 2 283 146 156 205
539 4 2 1 2 284 93 80 267
540 4 2 1 2 285 283 146 124
541 4 2 1 2 286 219 273 186
542 4 2 1 2 287 262 86 89
543 4 2 1 2 288 59 289 290
544 4 2 1 2 291 6 131 13
545 4 2 1 2 268 285 44 33
546 4 2 1 2 281 176 270 171
547 4 2 1 2 292 56 23 76
548 4 2 1 2 292 56 293 23
549 4 2 1 2 288 59 290 58
550 4 2 1 2 294 71 26 72
551 4 2 1 2 295 296 42 50
552 4 2 1 2 295 288 296 41
553 4 2 1 2 272 53 52 54
554 4 2 1 2 9 276 66 1
555 4 2 1 2 297 81 284 203
556 4 2 1 2 282 47 49 139
557 4 2 1 2 281 138 282 139
558 4 2 1 2 276 1 285 275
559 4 2 1 2 268 120 133 122
560 4 2 1 2 292 99 187 56
561 4 2 1 2 298 220 225 143
562 4 2 1 2 286 108 186 199
563 4 2 1 2 2 299 36 300
564 4 2 1 2 279 235 212 202
565 4 2 1 2 301 302 182 181
566 4 2 1 2 303 40 302 196
567 4 2 1 2 288 267 58 79
568 4 2 1 2 270 64 299 304
569 4 2 1 2 305 134 280 109
570 4 2 1 2 127 271 259 106
571 4 2 1 2 306 305 216 135
572 4 2 1 2 283 252 208 251
573 4 2 1 2 42 206 63 44
574 4 2 1 2 272 112 280 143
575 4 2 1 2 284 214 213 93
576 4 2 1 2 269 64 270 304
577 4 2 1 2 288 307 267 92
578 4 2 1 2 113 295 116 114
579 4 2 1 2 296 132 123 177
580 4 2 1 2 304 130 159 299
581 4 2 1 2 272 226 273 269
582 4 2 1 2 291 34 70 5
583 4 2 1 2 269 154 153 155
584 4 2 1 2 272 280 52 143
585 4 2 1 2 288 267 28 58
586 4 2 1 2 297 279 308 48
587 4 2 1 2 270 304 299 128
588 4 2 1 2 272 273 226 225
589 4 2 1 2 309 293 292 243
590 4 2 1 2 310 74 35 2
591 4 2 1 2 243 311 309 293
592 4 2 1 2 206 133 312 115
593 4 2 1 2 278 167 168 170
594 4 2 1 2 278 169 195 105
595 4 2 1 2 287 303 196 89
596 4 2 1 2 285 3 275 152
597 4 2 1 2 268 152 275 82
598 4 2 1 2 306 62 313 76
599 4 2 1 2 309 246 242 236
600 4 2 1 2 306 237 313 238
601 4 2 1 2 269 53 64 51
602 4 2 1 2 105 278 169 174
603 4 2 1 2 273 277 125 126
604 4 2 1 2 274 91 214 93
605 4 2 1 2 267 58 297 61
606 4 2 1 2 311 188 293 215
607 4 2 1 2 268 120 122 121
608 4 2 1 2 268 121 285 152
609 4 2 1 2 297 203 308 230
610 4 2 1 2 306 257 239 213
611 4 2 1 2 281 171 138 223
612 4 2 1 2 296 28 268 30
613 4 2 1 2 298 187 193 101
614 4 2 1 2 283 248 314 157
615 4 2 1 2 271 157 15 16
616 4 2 1 2 285 205 204 146
617 4 2 1 2 304 291 11 12
618 4 2 1 2 268 82 83 123
619 4 2 1 2 314 140 88 137
620 4 2 1 2 271 15 107 16
621 4 2 1 2 288 201 119 210
622 4 2 1 2 278 195 282 315
623 4 2 1 2 309 246 274 276
624 4 2 1 2 294 218 289 290
625 4 2 1 2 309 244 242 246
626 4 2 1 2 289 200 211 265
627 4 2 1 2 295 232 312 113
628 4 2 1 2 312 316 302 249
629 4 2 1 2 268 122 124 121
630 4 2 1 2 271 45 8 7
631 4 2 1 2 296 42 50 41
632 4 2 1 2 306 313 292 76
633 4 2 1 2 271 8 157 16
634 4 2 1 2 287 24 302 40
635 4 2 1 2 287 196 303 302
636 4 2 1 2 309 276 244 246
637 4 2 1 2 305 139 141 136
638 4 2 1 2 309 236 242 256
639 4 2 1 2 299 130 129 128
640 4 2 1 2 295 312 296 114
641 4 2 1 2 306 216 238 135
642 4 2 1 2 317 26 294 301
643 4 2 1 2 317 301 294 117
644 4 2 1 2 277 13 314 6
645 4 2 1 2 156 157 8 16
646 4 2 1 2 291 300 11 164
647 4 2 1 2 318 37 314 303
648 4 2 1 2 312 241 254 196
649 4 2 1 2 281 305 109 144
650 4 2 1 2 271 45 157 8
651 4 2 1 2 309 292 236 256
652 4 2 1 2 283 63 206 44
653 4 2 1 2 273 125 127 126
654 4 2 1 2 282 105 103 161
655 4 2 1 2 267 22 31 61
656 4 2 1 2 297 308 284 48
657 4 2 1 2 301 95 180 97
658 4 2 1 2 277 269 155 154
659 4 2 1 2 317 34 287 96
660 4 2 1 2 318 140 251 253
661 4 2 1 2 307 275 274 83
662 4 2 1 2 317 287 34 25
663 4 2 1 2 317 96 287 95
664 4 2 1 2 318 241 163 253
665 4 2 1 2 278 169 194 195
666 4 2 1 2 314 85 14 247
667 4 2 1 2 270 129 160 128
668 4 2 1 2 319 9 311 65
669 4 2 1 2 277 6 269 304
670 4 2 1 2 285 9 45 44
671 4 2 1 2 275 152 3 84
672 4 2 1 2 295 116 232 113
673 4 2 1 2 306 309 21 20
674 4 2 1 2 300 166 165 164
675 4 2 1 2 292 237 258 99
676 4 2 1 2 286 319 8 16
677 4 2 1 2 272 270 176 160
678 4 2 1 2 272 112 176 110
679 4 2 1 2 310 162 159 4
680 4 2 1 2 317 96 95 94
681 4 2 1 2 272 52 273 225
682 4 2 1 2 305 139 308 141
683 4 2 1 2 282 195 102 105
684 4 2 1 2 309 23 66 21
685 4 2 1 2 317 178 300 165
686 4 2 1 2 287 34 25 27
687 4 2 1 2 278 195 315 105
688 4 2 1 2 287 86 303 89
689 4 2 1 2 42 44 30 133
690 4 2 1 2 205 285 319 45
691 4 2 1 2 298 231 193 187
692 4 2 1 2 286 293 75 65
693 4 2 1 2 283 248 157 252
694 4 2 1 2 283 124 44 263
695 4 2 1 2 301 71 302 24
696 4 2 1 2 307 90 92 91
697 4 2 1 2 289 184 200 265
698 4 2 1 2 314 88 38 131
699 4 2 1 2 290 58 59 60
700 4 2 1 2 289 183 301 316
701 4 2 1 2 301 95 97 94
702 4 2 1 2 317 178 165 147
703 4 2 1 2 86 303 27 287
704 4 2 1 2 287 301 95 180
705 4 2 1 2 317 165 300 96
706 4 2 1 2 295 197 116 198
707 4 2 1 2 295 200 288 289
708 4 2 1 2 268 44 285 124
709 4 2 1 2 295 50 312 316
710 4 2 1 2 267 93 90 91
711 4 2 1 2 297 290 279 60
712 4 2 1 2 256 309 292 243
713 4 2 1 2 297 61 58 60
714 4 2 1 2 297 79 290 58
715 4 2 1 2 182 301 183 316
716 4 2 1 2 282 217 102 195
717 4 2 1 2 318 163 303 253
718 4 2 1 2 317 147 165 96
719 4 2 1 2 306 237 292 313
720 4 2 1 2 296 288 234 177
721 4 2 1 2 296 288 307 28
722 4 2 1 2 272 269 227 226
723 4 2 1 2 159 300 304 299
724 4 2 1 2 305 134 109 144
725 4 2 1 2 306 213 22 236
726 4 2 1 2 272 269 273 51
727 4 2 1 2 294 183 289 185
728 4 2 1 2 93 80 261 284
729 4 2 1 2 73 278 46 282
730 4 2 1 2 295 316 289 50
731 4 2 1 2 296 114 42 133
732 4 2 1 2 274 245 275 192
733 4 2 1 2 292 56 313 99
734 4 2 1 2 309 236 274 246
735 4 2 1 2 319 16 156 8
736 4 2 1 2 272 112 225 227
737 4 2 1 2 297 230 235 202
738 4 2 1 2 305 77 47 49
739 4 2 1 2 281 49 69 53
740 4 2 1 2 267 307 90 92
741 4 2 1 2 295 197 232 116
742 4 2 1 2 270 299 129 128
743 4 2 1 2 267 78 80 79
744 4 2 1 2 306 236 257 213
745 4 2 1 2 277 14 314 13
746 4 2 1 2 286 273 68 57
747 4 2 1 2 272 227 225 226
748 4 2 1 2 280 55 77 54
749 4 2 1 2 278 194 279 46
750 4 2 1 2 271 314 45 7
751 4 2 1 2 295 197 316 232
752 4 2 1 2 286 68 75 57
753 4 2 1 2 296 133 120 132
754 4 2 1 2 298 186 273 219
755 4 2 1 2 286 108 188 189
756 4 2 1 2 286 271 106 107
757 4 2 1 2 309 276 274 32
758 4 2 1 2 45 156 319 205
759 4 2 1 2 268 124 285 121
760 4 2 1 2 271 247 314 14
761 4 2 1 2 319 18 205 17
762 4 2 1 2 297 80 81 79
763 4 2 1 2 279 60 72 48
764 4 2 1 2 289 290 59 72
765 4 2 1 2 295 197 200 184
766 4 2 1 2 22 236 213 214
767 4 2 1 2 288 28 267 307
768 4 2 1 2 291 164 260 166
769 4 2 1 2 312 318 42 206
770 4 2 1 2 313 305 255 134
771 4 2 1 2 281 272 176 110
772 4 2 1 2 313 255 280 134
773 4 2 1 2 309 306 292 20
774 4 2 1 2 292 237 257 256
775 4 2 1 2 268 121 152 82
776 4 2 1 2 283 124 145 146
777 4 2 1 2 122 263 133 44
778 4 2 1 2 268 44 124 122
779 4 2 1 2 312 318 196 40
780 4 2 1 2 276 275 285 3
781 4 2 1 2 277 12 304 153
782 4 2 1 2 273 57 52 51
783 4 2 1 2 295 116 221 198
784 4 2 1 2 319 285 311 9
785 4 2 1 2 312 133 42 114
786 4 2 1 2 285 3 19 266
787 4 2 1 2 307 29 268 28
788 4 2 1 2 307 275 268 29
789 4 2 1 2 120 296 123 268
790 4 2 1 2 319 75 8 65
791 4 2 1 2 312 232 249 113
792 4 2 1 2 214 284 22 274
793 4 2 1 2 311 191 293 243
794 4 2 1 2 284 151 306 62
795 4 2 1 2 306 236 292 257
796 4 2 1 2 281 270 282 104
797 4 2 1 2 288 119 79 210
798 4 2 1 2 294 218 279 170
799 4 2 1 2 280 112 142 143
800 4 2 1 2 250 296 288 307
801 4 2 1 2 308 151 150 203
802 4 2 1 2 289 200 290 211
803 4 2 1 2 300 10 178 4
804 4 2 1 2 302 180 196 179
805 4 2 1 2 296 268 307 123
806 4 2 1 2 34 262 86 287
807 4 2 1 2 196 318 303 40
808 4 2 1 2 30 122 133 44
809 4 2 1 2 287 40 303 27
810 4 2 1 2 281 280 77 54
811 4 2 1 2 277 12 153 154
812 4 2 1 2 300 96 166 34
813 4 2 1 2 283 251 314 248
814 4 2 1 2 272 176 158 160
815 4 2 1 2 291 27 70 34
816 4 2 1 2 282 102 138 104
817 4 2 1 2 279 212 290 202
818 4 2 1 2 272 269 158 227
819 4 2 1 2 272 158 270 160
820 4 2 1 2 299 159 162 161
821 4 2 1 2 304 11 153 12
822 4 2 1 2 311 215 293 191
823 4 2 1 2 313 305 135 255
824 4 2 1 2 295 221 288 198
825 4 2 1 2 281 138 171 104
826 4 2 1 2 311 191 243 190
827 4 2 1 2 284 213 306 239
828 4 2 1 2 308 194 229 217
829 4 2 1 2 306 292 237 257
830 4 2 1 2 313 280 305 134
831 4 2 1 2 292 258 293 187
832 4 2 1 2 305 135 141 151
833 4 2 1 2 289 316 301 71
834 4 2 1 2 284 48 308 62
835 4 2 1 2 313 55 280 56
836 4 2 1 2 315 74 310 73
837 4 2 1 2 278 315 317 118
838 4 2 1 2 282 46 47 217
839 4 2 1 2 273 220 219 224
840 4 2 1 2 299 300 310 159
841 4 2 1 2 317 300 35 34
842 4 2 1 2 126 273 271 127
843 4 2 1 2 311 149 18 148
844 4 2 1 2 298 280 101 143
845 4 2 1 2 309 242 244 190
846 4 2 1 2 276 192 244 246
847 4 2 1 2 315 173 105 161
848 4 2 1 2 300 10 165 178
849 4 2 1 2 315 162 310 173
850 4 2 1 2 296 30 268 133
851 4 2 1 2 295 200 197 198
852 4 2 1 2 299 304 130 128
853 4 2 1 2 269 270 160 128
854 4 2 1 2 282 104 299 161
855 4 2 1 2 272 52 53 51
856 4 2 1 2 281 176 171 223
857 4 2 1 2 295 288 200 198
858 4 2 1 2 312 318 254 241
859 4 2 1 2 312 115 254 207
860 4 2 1 2 318 251 283 208
861 4 2 1 2 268 30 33 44
862 4 2 1 2 288 200 201 210
863 4 2 1 2 295 59 288 41
864 4 2 1 2 288 234 92 119
865 4 2 1 2 296 234 288 221
866 4 2 1 2 274 83 245 91
867 4 2 1 2 294 301 183 228
868 4 2 1 2 235 308 297 279
869 4 2 1 2 297 48 284 61
870 4 2 1 2 286 271 273 106
871 4 2 1 2 272 52 280 54
872 4 2 1 2 272 143 52 225
873 4 2 1 2 309 292 23 20
874 4 2 1 2 301 24 25 26
875 4 2 1 2 295 50 59 41
876 4 2 1 2 294 290 279 218
877 4 2 1 2 297 235 279 202
878 4 2 1 2 284 151 308 203
879 4 2 1 2 308 279 46 48
880 4 2 1 2 282 73 315 299
881 4 2 1 2 313 98 100 99
882 4 2 1 2 305 49 47 139
883 4 2 1 2 306 237 238 257
884 4 2 1 2 194 308 229 235
885 4 2 1 2 267 274 284 93
886 4 2 1 2 315 299 310 161
887 4 2 1 2 287 302 303 40
888 4 2 1 2 126 273 277 271
889 4 2 1 2 292 256 257 236
890 4 2 1 2 296 133 268 120
891 4 2 1 2 276 3 285 266
892 4 2 1 2 283 252 251 248
893 4 2 1 2 156 8 157 45
894 4 2 1 2 297 209 79 202
895 4 2 1 2 297 279 290 202
896 4 2 1 2 284 151 240 216
897 4 2 1 2 124 263 122 44
898 4 2 1 2 6 314 38 131
899 4 2 1 2 314 6 38 7
900 4 2 1 2 312 196 302 40
901 4 2 1 2 307 275 29 31
902 4 2 1 2 295 289 316 184
903 4 2 1 2 317 96 300 34
904 4 2 1 2 278 317 294 117
905 4 2 1 2 32 309 276 66
906 4 2 1 2 306 305 313 62
907 4 2 1 2 286 188 319 189
908 4 2 1 2 278 194 46 195
909 4 2 1 2 313 305 280 77
910 4 2 1 2 214 284 213 22
911 4 2 1 2 306 151 305 62
912 4 2 1 2 270 129 299 104
913 4 2 1 2 34 96 262 287
914 4 2 1 2 34 96 166 262
915 4 2 1 2 278 282 195 46
916 4 2 1 2 22 267 274 284
917 4 2 1 2 267 274 93 91
918 4 2 1 2 268 82 275 83
919 4 2 1 2 19 311 149 18
920 4 2 1 2 274 32 276 275
921 4 2 1 2 281 176 272 270
922 4 2 1 2 282 73 299 69
923 4 2 1 2 278 174 118 168
924 4 2 1 2 287 24 301 302
925 4 2 1 2 294 185 289 218
926 4 2 1 2 288 201 200 198
927 4 2 1 2 278 174 168 169
928 4 2 1 2 278 168 118 117
929 4 2 1 2 294 183 185 228
930 4 2 1 2 289 71 59 50
931 4 2 1 2 42 263 206 44
932 4 2 1 2 206 312 207 115
933 4 2 1 2 42 133 263 44
934 4 2 1 2 296 114 133 222
935 4 2 1 2 281 54 272 280
936 4 2 1 2 282 139 138 102
937 4 2 1 2 73 278 282 315
938 4 2 1 2 281 171 270 104
939 4 2 1 2 273 224 125 226
940 4 2 1 2 277 304 291 6
941 4 2 1 2 314 140 303 88
942 4 2 1 2 34 262 291 86
943 4 2 1 2 291 166 86 262
944 4 2 1 2 306 292 20 76
945 4 2 1 2 281 223 109 110
946 4 2 1 2 280 111 109 134
947 4 2 1 2 278 167 194 169
948 4 2 1 2 298 293 231 187
949 4 2 1 2 313 135 238 255
950 4 2 1 2 290 79 209 210
951 4 2 1 2 289 183 316 184
952 4 2 1 2 288 92 267 119
953 4 2 1 2 289 265 211 185
954 4 2 1 2 307 268 83 123
955 4 2 1 2 120 296 132 123
956 4 2 1 2 276 311 285 9
957 4 2 1 2 267 307 274 91
958 4 2 1 2 288 290 200 210
959 4 2 1 2 302 182 181 179
960 4 2 1 2 286 186 298 199
961 4 2 1 2 271 45 314 157
962 4 2 1 2 278 174 315 118
963 4 2 1 2 291 70 38 6
964 4 2 1 2 278 118 317 117
965 4 2 1 2 196 312 249 254
966 4 2 1 2 289 185 211 218
967 4 2 1 2 113 295 114 312
968 4 2 1 2 294 301 228 117
969 4 2 1 2 317 294 26 39
970 4 2 1 2 317 95 287 301
971 4 2 1 2 317 95 301 94
972 4 2 1 2 317 35 25 34
973 4 2 1 2 291 70 303 38
974 4 2 1 2 318 140 314 251
975 4 2 1 2 278 294 168 117
976 4 2 1 2 299 159 310 162
977 4 2 1 2 299 310 2 73
978 4 2 1 2 305 308 139 47
979 4 2 1 2 281 282 138 104
980 4 2 1 2 281 53 272 54
981 4 2 1 2 281 69 282 270
982 4 2 1 2 282 46 217 195
983 4 2 1 2 282 299 315 161
984 4 2 1 2 271 314 277 14
985 4 2 1 2 296 114 312 42
986 4 2 1 2 278 167 279 194
987 4 2 1 2 268 152 285 275
988 4 2 1 2 273 125 277 269
989 4 2 1 2 296 234 221 177
990 4 2 1 2 281 138 144 223
991 4 2 1 2 282 49 47 46
992 4 2 1 2 281 305 144 139
993 4 2 1 2 299 162 310 161
994 4 2 1 2 281 176 223 110
995 4 2 1 2 277 6 291 13
996 4 2 1 2 298 280 52 56
997 4 2 1 2 298 225 273 52
998 4 2 1 2 314 318 283 37
999 4 2 1 2 298 52 280 143
1000 4 2 1 2 4 300 159 310
1001 4 2 1 2 86 303 291 27
1002 4 2 1 2 317 310 300 178
1003 4 2 1 2 287 302 180 196
1004 4 2 1 2 282 104 270 299
1005 4 2 1 2 282 103 104 161
1006 4 2 1 2 282 102 217 139
1007 4 2 1 2 42 133 206 263
1008 4 2 1 2 312 318 241 196
1009 4 2 1 2 312 43 302 316
1010 4 2 1 2 287 180 89 196
1011 4 2 1 2 287 89 180 95
1012 4 2 1 2 277 291 12 13
1013 4 2 1 2 277 291 304 12
1014 4 2 1 2 80 261 284 81
1015 4 2 1 2 281 109 305 280
1016 4 2 1 2 284 274 214 93
1017 4 2 1 2 288 198 221 234
1018 4 2 1 2 307 83 91 250
1019 4 2 1 2 288 79 290 210
1020 4 2 1 2 274 83 275 245
1021 4 2 1 2 285 3 152 19
1022 4 2 1 2 314 318 251 283
1023 4 2 1 2 205 283 146 285
1024 4 2 1 2 292 187 293 56
1025 4 2 1 2 279 60 290 72
1026 4 2 1 2 297 202 203 230
1027 4 2 1 2 281 280 305 77
1028 4 2 1 2 283 263 206 145
1029 4 2 1 2 278 168 167 169
1030 4 2 1 2 314 7 37 45
1031 4 2 1 2 283 206 208 145
1032 4 2 1 2 4 300 10 159
1033 4 2 1 2 286 293 188 199
1034 4 2 1 2 286 219 186 106
1035 4 2 1 2 274 246 245 192
1036 4 2 1 2 307 29 28 31
1037 4 2 1 2 276 275 32 1
1038 4 2 1 2 274 192 276 246
1039 4 2 1 2 285 283 124 44
1040 4 2 1 2 267 297 80 284
1041 4 2 1 2 312 232 316 249
1042 4 2 1 2 295 42 296 312
1043 4 2 1 2 295 296 221 116
1044 4 2 1 2 101 313 98 280
1045 4 2 1 2 291 303 86 88
1046 4 2 1 2 318 303 314 140
1047 4 2 1 2 278 279 167 170
1048 4 2 1 2 295 316 197 184
1049 4 2 1 2 271 157 314 247
1050 4 2 1 2 273 269 277 51
1051 4 2 1 2 288 290 289 200
1052 4 2 1 2 306 313 135 238
1053 4 2 1 2 292 243 293 258
1054 4 2 1 2 187 99 101 56
1055 4 2 1 2 298 52 273 57
1056 4 2 1 2 298 199 193 231
1057 4 2 1 2 311 148 188 191
1058 4 2 1 2 276 266 264 192
1059 4 2 1 2 235 308 230 297
1060 4 2 1 2 306 135 313 305
1061 4 2 1 2 256 309 243 242
1062 4 2 1 2 298 293 199 231
1063 4 2 1 2 293 243 187 258
1064 4 2 1 2 286 271 8 68
1065 4 2 1 2 286 273 271 68
1066 4 2 1 2 273 127 125 224
1067 4 2 1 2 286 75 298 57
1068 4 2 1 2 286 106 108 107
1069 4 2 1 2 286 311 319 188
1070 4 2 1 2 278 168 294 170
1071 4 2 1 2 297 290 209 202
1072 4 2 1 2 309 32 274 21
1073 4 2 1 2 308 47 46 217
1074 4 2 1 2 313 280 101 56
1075 4 2 1 2 283 206 263 44
1076 4 2 1 2 127 271 106 273
1077 4 2 1 2 278 294 279 170
1078 4 2 1 2 271 277 314 7
1079 4 2 1 2 153 277 269 304
1080 4 2 1 2 300 96 165 166
1081 4 2 1 2 312 133 114 115
1082 4 2 1 2 314 13 14 85
1083 4 2 1 2 309 292 293 23
1084 4 2 1 2 276 66 311 9
1085 4 2 1 2 272 53 269 51
1086 4 2 1 2 281 270 272 53
1087 4 2 1 2 281 109 280 110
1088 4 2 1 2 284 306 151 216
1089 4 2 1 2 283 145 124 263
1090 4 2 1 2 273 225 220 224
1091 4 2 1 2 286 8 319 75
1092 4 2 1 2 281 77 305 49
1093 4 2 1 2 304 291 6 5
1094 4 2 1 2 278 72 294 39
1095 4 2 1 2 314 88 131 85
1096 4 2 1 2 295 296 50 41
1097 4 2 1 2 294 301 289 183
1098 4 2 1 2 290 211 200 210
1099 4 2 1 2 294 289 301 71
1100 4 2 1 2 271 259 14 126
1101 4 2 1 2 273 226 225 224
1102 4 2 1 2 45 156 205 283
1103 4 2 1 2 283 157 314 45
1104 4 2 1 2 314 137 251 140
1105 4 2 1 2 292 313 56 76
1106 4 2 1 2 319 18 285 205
1107 4 2 1 2 286 273 219 106
1108 4 2 1 2 305 135 151 216
1109 4 2 1 2 308 141 139 217
1110 4 2 1 2 313 280 55 77
1111 4 2 1 2 313 55 62 77
1112 4 2 1 2 280 134 255 111
1113 4 2 1 2 284 213 239 240
1114 4 2 1 2 269 160 270 158
1115 4 2 1 2 269 155 153 128
1116 4 2 1 2 291 300 166 34
1117 4 2 1 2 278 315 73 39
1118 4 2 1 2 317 118 310 172
1119 4 2 1 2 178 317 310 172
1120 4 2 1 2 317 118 172 147
1121 4 2 1 2 298 101 280 56
1122 4 2 1 2 280 142 101 143
1123 4 2 1 2 298 225 52 143
1124 4 2 1 2 298 186 193 199
1125 4 2 1 2 295 200 289 184
1126 4 2 1 2 267 92 78 119
1127 4 2 1 2 296 116 114 222
1128 4 2 1 2 298 220 273 225
1129 4 2 1 2 286 298 273 57
1130 4 2 1 2 286 189 319 16
1131 4 2 1 2 298 186 219 220
1132 4 2 1 2 286 293 298 75
1133 4 2 1 2 292 243 258 256
1134 4 2 1 2 284 48 62 61
1135 4 2 1 2 305 308 62 151
1136 4 2 1 2 21 22 306 20
1137 4 2 1 2 21 22 236 306
1138 4 2 1 2 313 101 99 56
1139 4 2 1 2 284 62 308 151
1140 4 2 1 2 291 86 131 88
1141 4 2 1 2 295 316 312 232
1142 4 2 1 2 277 155 125 154
1143 4 2 1 2 303 87 86 88
1144 4 2 1 2 318 283 63 206
1145 4 2 1 2 216 284 306 239
1146 4 2 1 2 267 61 297 284
1147 4 2 1 2 308 46 194 217
1148 4 2 1 2 22 267 31 274
1149 4 2 1 2 313 62 305 77
1150 4 2 1 2 306 305 151 216
1151 4 2 1 2 297 203 284 308
1152 4 2 1 2 294 185 218 170
1153 4 2 1 2 312 302 43 40
1154 4 2 1 2 312 43 316 50
1155 4 2 1 2 302 180 179 181
1156 4 2 1 2 318 63 283 37
1157 4 2 1 2 318 251 208 253
1158 4 2 1 2 317 26 301 25
1159 4 2 1 2 178 317 172 147
1160 4 2 1 2 291 300 164 166
1161 4 2 1 2 278 279 294 72
1162 4 2 1 2 317 26 25 39
1163 4 2 1 2 309 23 21 20
1164 4 2 1 2 271 127 259 126
1165 4 2 1 2 319 8 156 45
1166 4 2 1 2 286 271 107 16
1167 4 2 1 2 205 285 45 283
1168 4 2 1 2 319 18 311 285
1169 4 2 1 2 292 258 187 99
1170 4 2 1 2 312 42 318 40
1171 4 2 1 2 287 24 40 27
1172 4 2 1 2 286 107 189 16
1173 4 2 1 2 296 123 307 250
1174 4 2 1 2 288 92 250 307
1175 4 2 1 2 267 119 78 79
1176 4 2 1 2 294 289 71 72
1177 4 2 1 2 281 280 272 110
1178 4 2 1 2 269 304 270 128
1179 4 2 1 2 22 236 214 274
1180 4 2 1 2 296 123 250 177
1181 4 2 1 2 298 101 220 143
1182 4 2 1 2 309 276 311 190
1183 4 2 1 2 295 221 296 288
1184 4 2 1 2 286 199 298 293
1185 4 2 1 2 319 188 311 148
1186 4 2 1 2 307 274 275 31
1187 4 2 1 2 296 28 307 268
1188 4 2 1 2 288 119 267 79
1189 4 2 1 2 291 38 88 131
1190 4 2 1 2 34 86 27 287
1191 4 2 1 2 285 204 124 146
1192 4 2 1 2 319 45 285 9
1193 4 2 1 2 307 83 274 91
1194 4 2 1 2 291 11 260 164
1195 4 2 1 2 286 293 311 188
1196 4 2 1 2 318 208 283 206
1197 4 2 1 2 295 289 288 59
1198 4 2 1 2 182 301 181 183
1199 4 2 1 2 196 312 302 249
1200 4 2 1 2 131 314 85 13
1201 4 2 1 2 299 2 36 73
1202 4 2 1 2 269 160 158 128
1203 4 2 1 2 317 94 301 117
1204 4 2 1 2 159 300 10 304
1205 4 2 1 2 278 317 39 294
1206 4 2 1 2 315 162 173 161
1207 4 2 1 2 291 38 131 6
1208 4 2 1 2 315 310 162 161
1209 4 2 1 2 317 39 25 35
1210 4 2 1 2 273 125 269 226
1211 4 2 1 2 267 284 22 61
1212 4 2 1 2 289 316 71 50
1213 4 2 1 2 288 92 177 250
1214 4 2 1 2 301 182 302 316
1215 4 2 1 2 303 38 70 27
1216 4 2 1 2 319 156 16 17
1217 4 2 1 2 32 309 66 21
1218 4 2 1 2 308 46 279 194
1219 4 2 1 2 281 139 282 49
1220 4 2 1 2 279 218 290 212
1221 4 2 1 2 294 301 26 71
1222 4 2 1 2 294 279 290 72
1223 4 2 1 2 46 195 194 217
1224 4 2 1 2 194 308 235 279
1225 4 2 1 2 279 233 218 212
1226 4 2 1 2 281 49 54 77
1227 4 2 1 2 281 144 109 223
1228 4 2 1 2 281 49 305 139
1229 4 2 1 2 272 158 269 270
1230 4 2 1 2 295 289 59 50
1231 4 2 1 2 297 209 290 79
1232 4 2 1 2 277 6 314 7
1233 4 2 1 2 303 163 140 253
1234 4 2 1 2 101 313 99 98
1235 4 2 1 2 305 141 308 151
1236 4 2 1 2 308 141 150 151
1237 4 2 1 2 282 299 270 69
1238 4 2 1 2 308 235 230 229
1239 4 2 1 2 308 139 47 217
1240 4 2 1 2 314 247 157 248
1241 4 2 1 2 163 318 196 241
1242 4 2 1 2 291 131 12 13
1243 4 2 1 2 291 300 34 5
1244 4 2 1 2 291 38 303 88
1245 4 2 1 2 287 302 301 180
1246 4 2 1 2 243 311 190 309
1247 4 2 1 2 311 188 215 191
1248 4 2 1 2 317 301 287 25
1249 4 2 1 2 262 291 166 34
1250 4 2 1 2 287 301 24 25
1251 4 2 1 2 288 58 290 79
1252 4 2 1 2 317 96 94 147
1253 4 2 1 2 206 133 42 312
1254 4 2 1 2 310 162 172 173
1255 4 2 1 2 291 86 260 131
1256 4 2 1 2 304 11 300 10
1257 4 2 1 2 295 42 312 50
1258 4 2 1 2 250 296 177 288
1259 4 2 1 2 312 254 113 249
1260 4 2 1 2 318 303 140 253
1261 4 2 1 2 302 24 43 40
1262 4 2 1 2 287 262 95 96
1263 4 2 1 2 291 303 70 27
1264 4 2 1 2 301 94 97 117
1265 4 2 1 2 274 236 214 246
1266 4 2 1 2 295 296 116 114
1267 4 2 1 2 276 192 275 3
1268 4 2 1 2 307 83 250 123
1269 4 2 1 2 306 309 236 21
1270 4 2 1 2 309 292 306 236
1271 4 2 1 2 276 192 3 266
1272 4 2 1 2 292 313 237 99
1273 4 2 1 2 309 23 293 66
1274 4 2 1 2 284 80 81 297
1275 4 2 1 2 286 65 319 311
1276 4 2 1 2 298 293 187 56
1277 4 2 1 2 316 184 183 182
1278 4 2 1 2 279 218 233 170
1279 4 2 1 2 288 177 92 234
1280 4 2 1 2 304 130 10 159
1281 4 2 1 2 304 11 10 130
1282 4 2 1 2 270 129 104 175
1283 4 2 1 2 300 178 310 4
1284 4 2 1 2 282 105 315 195
1285 4 2 1 2 286 186 108 106
1286 4 2 1 2 305 62 308 47
1287 4 2 1 2 309 243 242 190
1288 4 2 1 2 293 75 65 56
1289 4 2 1 2 298 219 273 220
1290 4 2 1 2 317 74 39 35
1291 4 2 1 2 309 293 311 66
1292 4 2 1 2 285 124 204 121
1293 4 2 1 2 307 83 268 275
1294 4 2 1 2 34 86 291 27
1295 4 2 1 2 286 273 298 186
1296 4 2 1 2 291 166 260 86
1297 4 2 1 2 6 314 131 13
1298 4 2 1 2 271 14 277 126
1299 4 2 1 2 286 188 108 199
1300 4 2 1 2 276 32 66 1
1301 4 2 1 2 317 310 74 35
1302 4 2 1 2 275 32 29 31
1303 4 2 1 2 293 199 215 188
1304 4 2 1 2 276 19 311 149
1305 4 2 1 2 310 74 2 73
1306 4 2 1 2 317 310 315 74
1307 4 2 1 2 317 74 315 39
1308 4 2 1 2 317 300 310 35
1309 4 2 1 2 315 310 299 73
1310 4 2 1 2 299 36 69 73
1311 4 2 1 2 289 211 290 218
1312 4 2 1 2 316 249 232 182
1313 4 2 1 2 312 254 318 207
1314 4 2 1 2 316 184 232 197
1315 4 2 1 2 282 315 105 161
1316 4 2 1 2 278 73 46 39
1317 4 2 1 2 316 182 232 184
1318 4 2 1 2 316 43 71 50
1319 4 2 1 2 206 312 318 207
1320 4 2 1 2 302 249 316 182
1321 4 2 1 2 302 249 182 179
1322 4 2 1 2 302 196 249 179
1323 4 2 1 2 302 71 316 43
1324 4 2 1 2 302 71 43 24
1325 4 2 1 2 301 71 24 26
1326 4 2 1 2 301 316 302 71
1327 4 2 1 2 301 97 228 117
1328 4 2 1 2 278 46 72 39
1329 4 2 1 2 301 183 228 181
1330 4 2 1 2 301 180 302 181
1331 4 2 1 2 301 97 180 181
1332 4 2 1 2 301 228 97 181
1333 4 2 1 2 267 274 307 31
1334 4 2 1 2 290 209 211 210
1335 4 2 1 2 290 212 209 202
1336 4 2 1 2 290 218 211 212
1337 4 2 1 2 290 60 59 72
1338 4 2 1 2 290 212 211 209
1339 4 2 1 2 289 185 183 184
1340 4 2 1 2 289 72 59 71
1341 4 2 1 2 289 265 185 184
1342 4 2 1 2 279 167 170 233
1343 4 2 1 2 279 233 194 167
1344 4 2 1 2 279 212 235 233
1345 4 2 1 2 278 39 317 315
1346 4 2 1 2 279 194 233 235
1347 4 2 1 2 279 72 46 48
1348 4 2 1 2 294 117 228 168
1349 4 2 1 2 294 72 26 39
1350 4 2 1 2 294 290 289 72
1351 4 2 1 2 294 185 170 228
1352 4 2 1 2 294 168 228 170
1353 4 2 1 2 310 172 162 4
1354 4 2 1 2 310 178 172 4
1355 4 2 1 2 275 245 83 84
1356 4 2 1 2 275 192 245 84
1357 4 2 1 2 275 84 3 192
1358 4 2 1 2 275 82 152 84
1359 4 2 1 2 275 29 1 33
1360 4 2 1 2 275 84 83 82
1361 4 2 1 2 275 29 32 1
1362 4 2 1 2 303 140 87 88
1363 4 2 1 2 303 89 86 87
1364 4 2 1 2 303 196 89 163
1365 4 2 1 2 303 87 140 163
1366 4 2 1 2 303 89 87 163
1367 4 2 1 2 303 37 38 27
1368 4 2 1 2 303 40 37 27
1369 4 2 1 2 287 24 27 25
1370 4 2 1 2 287 89 95 262
1371 4 2 1 2 314 88 303 38
1372 4 2 1 2 314 137 88 85
1373 4 2 1 2 314 251 137 248
1374 4 2 1 2 314 38 303 37
1375 4 2 1 2 314 38 37 7
1376 4 2 1 2 314 137 85 247
1377 4 2 1 2 314 137 247 248
1378 4 2 1 2 2 299 300 310
1379 4 2 1 2 300 36 2 5
1380 4 2 1 2 300 165 10 164
1381 4 2 1 2 300 164 10 11
1382 4 2 1 2 281 69 270 53
1383 4 2 1 2 300 310 35 2
1384 4 2 1 2 300 35 5 2
1385 4 2 1 2 300 35 34 5
1386 4 2 1 2 276 266 19 264
1387 4 2 1 2 285 121 204 152
1388 4 2 1 2 285 18 204 205
1389 4 2 1 2 19 311 18 285
1390 4 2 1 2 9 276 1 285
1391 4 2 1 2 285 275 1 33
1392 4 2 1 2 285 152 204 19
1393 4 2 1 2 285 44 33 9
1394 4 2 1 2 285 19 204 18
1395 4 2 1 2 285 1 9 33
1396 4 2 1 2 291 12 260 11
1397 4 2 1 2 273 106 127 219
1398 4 2 1 2 269 153 304 128
1399 4 2 1 2 291 260 12 131
1400 4 2 1 2 291 70 6 5
1401 4 2 1 2 304 11 291 300
1402 4 2 1 2 304 300 291 5
1403 4 2 1 2 304 300 5 36
1404 4 2 1 2 304 5 64 36
1405 4 2 1 2 304 6 64 5
1406 4 2 1 2 277 155 269 125
1407 4 2 1 2 317 117 118 94
1408 4 2 1 2 304 130 153 11
1409 4 2 1 2 304 153 130 128
1410 4 2 1 2 293 243 231 187
1411 4 2 1 2 293 199 231 215
1412 4 2 1 2 293 215 243 191
1413 4 2 1 2 293 65 23 56
1414 4 2 1 2 293 65 66 23
1415 4 2 1 2 293 215 231 243
1416 4 2 1 2 299 304 64 36
1417 4 2 1 2 299 64 69 36
1418 4 2 1 2 299 300 304 36
1419 4 2 1 2 299 159 129 130
1420 4 2 1 2 299 104 129 161
1421 4 2 1 2 299 129 159 161
1422 4 2 1 2 282 217 47 139
1423 4 2 1 2 270 69 299 64
1424 4 2 1 2 270 69 64 53
1425 4 2 1 2 270 175 171 176
1426 4 2 1 2 272 112 143 225
1427 4 2 1 2 270 129 175 160
1428 4 2 1 2 270 175 176 160
1429 4 2 1 2 276 285 311 19
1430 4 2 1 2 276 266 285 19
1431 4 2 1 2 309 311 276 66
1432 4 2 1 2 149 276 190 311
1433 4 2 1 2 286 65 311 293
1434 4 2 1 2 311 149 191 190
1435 4 2 1 2 311 149 148 191
1436 4 2 1 2 276 264 19 149
1437 4 2 1 2 319 188 148 189
1438 4 2 1 2 311 66 65 9
1439 4 2 1 2 311 66 293 65
1440 4 2 1 2 149 276 264 190
1441 4 2 1 2 276 190 244 264
1442 4 2 1 2 276 264 244 192
1443 4 2 1 2 269 64 304 6
1444 4 2 1 2 269 64 6 51
1445 4 2 1 2 269 226 158 227
1446 4 2 1 2 269 226 125 155
1447 4 2 1 2 286 8 271 16
1448 4 2 1 2 269 128 158 155
1449 4 2 1 2 269 155 158 226
1450 4 2 1 2 277 269 6 51
1451 4 2 1 2 277 67 6 7
1452 4 2 1 2 271 15 157 247
1453 4 2 1 2 286 75 319 65
1454 4 2 1 2 277 12 154 13
1455 4 2 1 2 277 14 13 126
1456 4 2 1 2 277 6 67 51
1457 4 2 1 2 277 125 126 154
1458 4 2 1 2 277 13 154 126
1459 4 2 1 2 273 51 277 67
1460 4 2 1 2 273 51 67 57
1461 4 2 1 2 273 219 127 224
1462 4 2 1 2 273 67 68 57
1463 4 2 1 2 280 109 111 110
1464 4 2 1 2 280 55 52 56
1465 4 2 1 2 280 98 111 255
1466 4 2 1 2 280 142 98 101
1467 4 2 1 2 280 111 112 110
1468 4 2 1 2 280 54 52 55
1469 4 2 1 2 280 111 98 142
1470 4 2 1 2 280 112 111 142
1471 4 2 1 2 281 138 139 144
1472 4 2 1 2 272 158 176 227
1473 4 2 1 2 272 270 269 53
1474 4 2 1 2 272 112 227 176
1475 4 2 1 2 315 74 73 39
1476 4 2 1 2 317 118 315 310
1477 4 2 1 2 315 173 310 172
1478 4 2 1 2 315 172 310 118
1479 4 2 1 2 315 173 172 118
1480 4 2 1 2 105 278 174 315
1481 4 2 1 2 315 174 173 118
1482 4 2 1 2 315 173 174 105
1483 4 2 1 2 282 102 104 103
1484 4 2 1 2 282 102 103 105
1485 4 2 1 2 282 49 46 73
1486 4 2 1 2 282 69 49 73
1487 4 2 1 2 309 274 236 21
1488 4 2 1 2 284 151 203 240
1489 4 2 1 2 274 22 236 21
1490 4 2 1 2 274 245 214 91
1491 4 2 1 2 274 214 245 246
1492 4 2 1 2 274 31 22 21
1493 4 2 1 2 274 32 31 21
1494 4 2 1 2 274 275 31 32
1495 4 2 1 2 308 141 217 229
1496 4 2 1 2 308 203 150 230
1497 4 2 1 2 267 90 307 91
1498 4 2 1 2 308 47 62 48
1499 4 2 1 2 308 46 47 48
1500 4 2 1 2 308 150 141 229
1501 4 2 1 2 308 230 150 229
1502 4 2 1 2 305 144 139 136
1503 4 2 1 2 305 134 135 255
1504 4 2 1 2 305 134 144 136
1505 4 2 1 2 305 77 62 47
1506 4 2 1 2 305 141 135 136
1507 4 2 1 2 305 135 134 136
1508 4 2 1 2 281 54 49 53
1509 4 2 1 2 309 244 276 190
1510 4 2 1 2 313 76 55 56
1511 4 2 1 2 313 237 99 100
1512 4 2 1 2 313 76 62 55
1513 4 2 1 2 313 98 280 255
1514 4 2 1 2 313 100 98 255
1515 4 2 1 2 313 238 237 100
1516 4 2 1 2 313 255 238 100
1517 4 2 1 2 292 23 20 76
1518 4 2 1 2 292 256 258 237
1519 4 2 1 2 306 20 62 76
1520 4 2 1 2 216 284 239 240
1521 4 2 1 2 306 22 62 20
1522 4 2 1 2 306 239 238 216
1523 4 2 1 2 306 257 238 239
1524 4 2 1 2 267 80 297 79
1525 4 2 1 2 284 261 93 213
1526 4 2 1 2 317 118 147 94
1527 4 2 1 2 284 240 203 81
1528 4 2 1 2 297 58 290 60
1529 4 2 1 2 284 62 306 22
1530 4 2 1 2 284 61 62 22
1531 4 2 1 2 284 22 306 213
1532 4 2 1 2 284 240 261 213
1533 4 2 1 2 284 81 261 240
1534 4 2 1 2 297 60 279 48
1535 4 2 1 2 297 81 203 202
1536 4 2 1 2 297 79 81 202
1537 4 2 1 2 297 61 60 48
1538 4 2 1 2 298 187 101 56
1539 4 2 1 2 298 75 293 56
1540 4 2 1 2 298 193 186 220
1541 4 2 1 2 298 101 193 220
1542 4 2 1 2 298 57 75 56
1543 4 2 1 2 298 52 57 56
1544 4 2 1 2 319 16 189 17
1545 4 2 1 2 319 8 45 9
1546 4 2 1 2 319 205 156 17
1547 4 2 1 2 319 148 311 18
1548 4 2 1 2 319 65 8 9
1549 4 2 1 2 319 189 148 17
1550 4 2 1 2 319 148 18 17
1551 4 2 1 2 271 106 107 259
1552 4 2 1 2 271 68 273 67
1553 4 2 1 2 271 67 277 7
1554 4 2 1 2 271 259 107 15
1555 4 2 1 2 271 15 14 259
1556 4 2 1 2 271 68 67 7
1557 4 2 1 2 271 8 68 7
1558 4 2 1 2 286 68 8 75
1559 4 2 1 2 286 107 108 189
1560 4 2 1 2 268 122 30 44
1561 4 2 1 2 268 275 285 33
1562 4 2 1 2 268 29 275 33
1563 4 2 1 2 268 121 82 123
1564 4 2 1 2 268 123 120 121
1565 4 2 1 2 268 30 29 33
1566 4 2 1 2 283 44 285 45
1567 4 2 1 2 283 45 314 37
1568 4 2 1 2 283 145 156 146
1569 4 2 1 2 283 157 156 252
1570 4 2 1 2 283 156 157 45
1571 4 2 1 2 283 208 252 145
1572 4 2 1 2 283 45 63 44
1573 4 2 1 2 283 37 63 45
1574 4 2 1 2 283 156 145 252
1575 4 2 1 2 318 63 42 206
1576 4 2 1 2 318 207 254 241
1577 4 2 1 2 318 207 208 206
1578 4 2 1 2 318 303 40 37
1579 4 2 1 2 318 40 63 37
1580 4 2 1 2 163 318 303 196
1581 4 2 1 2 318 42 63 40
1582 4 2 1 2 318 207 241 253
1583 4 2 1 2 318 208 207 253
1584 4 2 1 2 312 43 42 40
1585 4 2 1 2 296 177 221 222
1586 4 2 1 2 312 115 114 113
1587 4 2 1 2 312 42 43 50
1588 4 2 1 2 312 254 115 113
1589 4 2 1 2 267 297 58 79
1590 4 2 1 2 307 91 92 250
1591 4 2 1 2 267 31 307 28
1592 4 2 1 2 267 58 31 28
1593 4 2 1 2 267 93 80 90
1594 4 2 1 2 267 31 58 61
1595 4 2 1 2 267 78 90 80
1596 4 2 1 2 288 234 119 201
1597 4 2 1 2 288 198 234 201
1598 4 2 1 2 288 58 28 41
1599 4 2 1 2 288 41 59 58
1600 4 2 1 2 296 41 288 28
1601 4 2 1 2 296 222 133 132
1602 4 2 1 2 296 133 42 30
1603 4 2 1 2 296 222 221 116
1604 4 2 1 2 296 30 41 28
1605 4 2 1 2 296 132 177 222
1606 4 2 1 2 296 30 42 41
$EndElements
